<svg width="871" height="599" viewBox="0 0 871 599" fill="none" xmlns="http://www.w3.org/2000/svg">
<path d="M4 29.3496V584.19C4 586.77 5.02512 589.245 6.84985 591.07C8.67458 592.894 11.1494 593.92 13.73 593.92H857.27C859.851 593.92 862.325 592.894 864.15 591.07C865.975 589.245 867 586.77 867 584.19V29.3496H4Z" fill="#C8DDFA"/>
<path d="M856.9 2.5H13.8999C11.3194 2.5 8.8445 3.52512 7.01978 5.34985C5.19505 7.17458 4.16992 9.64944 4.16992 12.23V44.04H866.6V12.23C866.6 9.65463 865.579 7.18431 863.761 5.36044C861.942 3.53657 859.475 2.50794 856.9 2.5V2.5Z" fill="#EEEEEE"/>
<path d="M37.0099 32.7103C42.5714 32.7103 47.0799 28.2018 47.0799 22.6403C47.0799 17.0788 42.5714 12.5703 37.0099 12.5703C31.4484 12.5703 26.9399 17.0788 26.9399 22.6403C26.9399 28.2018 31.4484 32.7103 37.0099 32.7103Z" fill="#FF5252"/>
<path d="M64.7099 32.7103C70.2714 32.7103 74.7799 28.2018 74.7799 22.6403C74.7799 17.0788 70.2714 12.5703 64.7099 12.5703C59.1484 12.5703 54.6399 17.0788 54.6399 22.6403C54.6399 28.2018 59.1484 32.7103 64.7099 32.7103Z" fill="#FFFF00"/>
<path d="M92.4001 32.7103C97.9616 32.7103 102.47 28.2018 102.47 22.6403C102.47 17.0788 97.9616 12.5703 92.4001 12.5703C86.8386 12.5703 82.3301 17.0788 82.3301 22.6403C82.3301 28.2018 86.8386 32.7103 92.4001 32.7103Z" fill="#69F0AE"/>
<path d="M867 44H4V235H867V44Z" fill="#91BFFF"/>
<g opacity="0.5">
<path opacity="0.5" d="M322.6 356.71C348.972 356.71 370.35 335.332 370.35 308.96C370.35 282.588 348.972 261.21 322.6 261.21C296.229 261.21 274.85 282.588 274.85 308.96C274.85 335.332 296.229 356.71 322.6 356.71Z" fill="url(#paint0_linear)"/>
</g>
<path d="M322.6 355.45C348.419 355.45 369.35 334.52 369.35 308.7C369.35 282.881 348.419 261.95 322.6 261.95C296.781 261.95 275.85 282.881 275.85 308.7C275.85 334.52 296.781 355.45 322.6 355.45Z" fill="#F5F5F5"/>
<path d="M322.73 355.59C331.862 355.604 340.797 352.929 348.42 347.9C346.7 338.49 340.14 337.9 340.14 337.9H304C304 337.9 297.81 338.41 295.88 347.07C303.735 352.616 313.115 355.593 322.73 355.59V355.59Z" fill="#0F77FF"/>
<path d="M322.24 328.39C333.683 328.39 342.96 319.114 342.96 307.67C342.96 296.227 333.683 286.95 322.24 286.95C310.797 286.95 301.52 296.227 301.52 307.67C301.52 319.114 310.797 328.39 322.24 328.39Z" fill="#333333"/>
<path opacity="0.1" d="M315 326.46H329.46V338C329.46 339.917 328.698 341.756 327.342 343.112C325.986 344.468 324.148 345.23 322.23 345.23V345.23C320.312 345.23 318.474 344.468 317.118 343.112C315.762 341.756 315 339.917 315 338V326.46Z" fill="black"/>
<path d="M316.33 325.93H328C328.366 325.93 328.717 326.075 328.976 326.334C329.235 326.593 329.38 326.944 329.38 327.31V337.5C329.38 338.449 329.193 339.389 328.83 340.267C328.466 341.144 327.934 341.941 327.262 342.612C326.591 343.283 325.794 343.816 324.917 344.179C324.04 344.543 323.099 344.73 322.15 344.73C321.2 344.73 320.26 344.543 319.383 344.179C318.506 343.816 317.709 343.283 317.038 342.612C316.366 341.941 315.834 341.144 315.47 340.267C315.107 339.389 314.92 338.449 314.92 337.5V327.31C314.92 326.944 315.065 326.593 315.324 326.334C315.583 326.075 315.934 325.93 316.3 325.93H316.33Z" fill="#BE7C5E"/>
<path opacity="0.1" d="M314.98 331.92C319.645 333.648 324.775 333.648 329.44 331.92V330.14H314.98V331.92Z" fill="black"/>
<path d="M322.24 332.89C333.683 332.89 342.96 323.614 342.96 312.17C342.96 300.727 333.683 291.45 322.24 291.45C310.797 291.45 301.52 300.727 301.52 312.17C301.52 323.614 310.797 332.89 322.24 332.89Z" fill="#BE7C5E"/>
<path d="M309.68 303.62C309.809 302.692 310.293 301.849 311.03 301.27C311.709 300.973 312.459 300.879 313.19 301C318.92 301.31 324.6 300 330.19 298.64C333.37 297.86 336.79 296.91 338.83 294.35C340.87 291.79 338.2 283.72 335.07 282.76C333 282.13 330.62 283.31 328.67 282.38C327.85 281.873 327.091 281.273 326.41 280.59C324.784 279.471 322.935 278.717 320.99 278.38C318.76 277.83 316.34 277.29 314.22 278.18C312.58 278.87 311.37 280.31 309.81 281.18C306.81 282.81 303.2 282.06 299.81 282.05C298.66 282.05 297.29 282.28 296.81 283.34C296.639 284.101 296.639 284.89 296.81 285.65C296.91 288.11 294.87 290.05 293.16 291.82C291.45 293.59 289.83 296.15 290.92 298.37C291.33 299.22 292.09 299.85 292.51 300.69C293.25 302.14 292.88 303.89 293.14 305.5C293.409 306.716 293.864 307.883 294.49 308.96C295.76 311.43 302.13 324.74 305.07 321.36C306.49 319.72 306.73 314.95 307.29 312.81C308.063 309.743 308.86 306.68 309.68 303.62Z" fill="#333333"/>
<path d="M307.49 315.02C308.556 315.02 309.42 313.404 309.42 311.41C309.42 309.416 308.556 307.8 307.49 307.8C306.424 307.8 305.56 309.416 305.56 311.41C305.56 313.404 306.424 315.02 307.49 315.02Z" fill="#BE7C5E"/>
<g opacity="0.5">
<path opacity="0.5" d="M433.18 460.64C459.552 460.64 480.93 439.262 480.93 412.89C480.93 386.519 459.552 365.14 433.18 365.14C406.808 365.14 385.43 386.519 385.43 412.89C385.43 439.262 406.808 460.64 433.18 460.64Z" fill="url(#paint1_linear)"/>
</g>
<path d="M433.27 459.34C459.089 459.34 480.02 438.409 480.02 412.59C480.02 386.771 459.089 365.84 433.27 365.84C407.451 365.84 386.52 386.771 386.52 412.59C386.52 438.409 407.451 459.34 433.27 459.34Z" fill="#F5F5F5"/>
<path d="M433.31 459.5C442.442 459.513 451.377 456.839 459 451.81C457.28 442.4 450.72 441.81 450.72 441.81H414.58C414.58 441.81 408.39 442.32 406.46 450.98C414.315 456.526 423.695 459.503 433.31 459.5Z" fill="#0F77FF"/>
<path d="M432.82 434.16C445.28 434.16 455.38 424.06 455.38 411.6C455.38 399.14 445.28 389.04 432.82 389.04C420.36 389.04 410.26 399.14 410.26 411.6C410.26 424.06 420.36 434.16 432.82 434.16Z" fill="#F55F44"/>
<path opacity="0.1" d="M425.53 430.4H440V442C440 442.949 439.813 443.89 439.45 444.767C439.086 445.644 438.554 446.441 437.882 447.112C437.211 447.784 436.414 448.316 435.537 448.68C434.66 449.043 433.719 449.23 432.77 449.23C431.821 449.23 430.88 449.043 430.003 448.68C429.126 448.316 428.329 447.784 427.658 447.112C426.986 446.441 426.454 445.644 426.09 444.767C425.727 443.89 425.54 442.949 425.54 442V430.4H425.53Z" fill="black"/>
<path d="M426.91 429.86H438.61C438.976 429.86 439.327 430.005 439.586 430.264C439.845 430.523 439.99 430.874 439.99 431.24V441.43C439.99 443.347 439.228 445.186 437.872 446.542C436.517 447.898 434.678 448.66 432.76 448.66V448.66C431.811 448.66 430.87 448.473 429.993 448.11C429.116 447.746 428.319 447.214 427.648 446.542C426.976 445.871 426.444 445.074 426.08 444.197C425.717 443.32 425.53 442.379 425.53 441.43V431.24C425.53 431.059 425.566 430.879 425.635 430.712C425.704 430.544 425.806 430.392 425.934 430.264C426.062 430.136 426.214 430.034 426.382 429.965C426.549 429.896 426.729 429.86 426.91 429.86Z" fill="#FDA57D"/>
<path opacity="0.1" d="M425.56 435.86C430.225 437.588 435.355 437.588 440.02 435.86V434.08H425.56V435.86Z" fill="black"/>
<path d="M432.82 436.82C444.263 436.82 453.54 427.543 453.54 416.1C453.54 404.657 444.263 395.38 432.82 395.38C421.377 395.38 412.1 404.657 412.1 416.1C412.1 427.543 421.377 436.82 432.82 436.82Z" fill="#FDA57D"/>
<path d="M432.79 396.99C437.396 396.99 441.13 393.256 441.13 388.65C441.13 384.044 437.396 380.31 432.79 380.31C428.184 380.31 424.45 384.044 424.45 388.65C424.45 393.256 428.184 396.99 432.79 396.99Z" fill="#F55F44"/>
<path d="M432.79 385.91C435.811 385.91 438.26 383.461 438.26 380.44C438.26 377.419 435.811 374.97 432.79 374.97C429.769 374.97 427.32 377.419 427.32 380.44C427.32 383.461 429.769 385.91 432.79 385.91Z" fill="#F55F44"/>
<path d="M429.17 393.22C427.214 392.343 425.671 390.746 424.861 388.761C424.051 386.776 424.036 384.555 424.82 382.56L424.65 382.91C424.202 383.909 423.954 384.987 423.922 386.082C423.891 387.177 424.075 388.268 424.464 389.291C424.854 390.315 425.441 391.252 426.193 392.049C426.944 392.846 427.846 393.487 428.845 393.935C429.844 394.384 430.922 394.631 432.017 394.663C433.112 394.695 434.203 394.51 435.226 394.121C436.25 393.731 437.187 393.144 437.984 392.392C438.781 391.641 439.422 390.739 439.87 389.74L440.02 389.38C439.051 391.292 437.384 392.757 435.364 393.472C433.343 394.187 431.126 394.096 429.17 393.22V393.22Z" fill="#F55F44"/>
<path opacity="0.1" d="M418.06 397.25C418.06 397.25 426.79 414.98 451.43 404.68L445.69 395.68L435.5 392.04L418.06 397.25Z" fill="black"/>
<path d="M418.06 396.99C418.06 396.99 426.79 414.72 451.43 404.42L445.69 395.42L435.5 391.78L418.06 396.99Z" fill="#F55F44"/>
<path d="M424.77 390.5C430.142 390.078 435.538 390.078 440.91 390.5C440.91 390.5 429.01 391.65 424.77 390.5Z" fill="#333333"/>
<path d="M434.04 374.63C433.628 374.614 433.215 374.644 432.81 374.72H433.13C434.482 374.759 435.772 375.297 436.75 376.23C437.729 377.164 438.327 378.427 438.429 379.776C438.53 381.124 438.129 382.463 437.302 383.533C436.475 384.603 435.281 385.329 433.95 385.57C435.401 385.584 436.797 385.02 437.833 384.003C438.868 382.987 439.457 381.601 439.47 380.15C439.483 378.7 438.92 377.303 437.903 376.268C436.887 375.233 435.501 374.644 434.05 374.63H434.04Z" fill="#F55F44"/>
<path d="M412.09 419.69C413.156 419.69 414.02 418.074 414.02 416.08C414.02 414.086 413.156 412.47 412.09 412.47C411.024 412.47 410.16 414.086 410.16 416.08C410.16 418.074 411.024 419.69 412.09 419.69Z" fill="#FDA57D"/>
<path d="M453.54 419.69C454.606 419.69 455.47 418.074 455.47 416.08C455.47 414.086 454.606 412.47 453.54 412.47C452.474 412.47 451.61 414.086 451.61 416.08C451.61 418.074 452.474 419.69 453.54 419.69Z" fill="#FDA57D"/>
<path d="M416.75 397.51L420.79 395.43L421.71 398.77L419.23 400.46L416.75 397.51Z" fill="#F55F44"/>
<g opacity="0.5">
<path opacity="0.5" d="M433.13 354.36C459.501 354.36 480.88 332.982 480.88 306.61C480.88 280.239 459.501 258.86 433.13 258.86C406.758 258.86 385.38 280.239 385.38 306.61C385.38 332.982 406.758 354.36 433.13 354.36Z" fill="url(#paint2_linear)"/>
</g>
<path d="M433.13 353.1C458.949 353.1 479.88 332.169 479.88 306.35C479.88 280.53 458.949 259.6 433.13 259.6C407.311 259.6 386.38 280.53 386.38 306.35C386.38 332.169 407.311 353.1 433.13 353.1Z" fill="#F5F5F5"/>
<path d="M414.89 306.77C414.89 306.77 409.59 332.88 406.7 331.43C406.7 331.43 434.6 355.53 459.23 331.43C459.23 331.43 454.89 313.03 448.63 306.77H414.89Z" fill="#333333"/>
<path d="M433.26 353.24C442.401 353.24 451.339 350.548 458.96 345.5C457.24 336.09 450.68 335.5 450.68 335.5H414.5C414.5 335.5 408.31 336.01 406.38 344.67C414.237 350.24 423.629 353.234 433.26 353.24V353.24Z" fill="#0F77FF"/>
<path d="M432.77 326.04C444.213 326.04 453.49 316.763 453.49 305.32C453.49 293.876 444.213 284.6 432.77 284.6C421.327 284.6 412.05 293.876 412.05 305.32C412.05 316.763 421.327 326.04 432.77 326.04Z" fill="#333333"/>
<path opacity="0.1" d="M425.49 324.12H439.95V335.69C439.95 337.608 439.188 339.447 437.832 340.802C436.476 342.158 434.638 342.92 432.72 342.92V342.92C430.802 342.92 428.963 342.158 427.608 340.802C426.252 339.447 425.49 337.608 425.49 335.69V324.12V324.12Z" fill="black"/>
<path d="M426.87 323.58H438.57C438.936 323.58 439.287 323.725 439.546 323.984C439.805 324.243 439.95 324.594 439.95 324.96V335.15C439.95 336.1 439.763 337.04 439.4 337.917C439.036 338.794 438.504 339.591 437.832 340.262C437.161 340.934 436.364 341.466 435.487 341.83C434.61 342.193 433.67 342.38 432.72 342.38C431.771 342.38 430.83 342.193 429.953 341.83C429.076 341.466 428.279 340.934 427.608 340.262C426.936 339.591 426.404 338.794 426.04 337.917C425.677 337.04 425.49 336.1 425.49 335.15V325C425.485 324.816 425.516 324.632 425.583 324.46C425.65 324.288 425.751 324.131 425.88 323.998C426.009 323.866 426.162 323.761 426.333 323.689C426.503 323.617 426.685 323.58 426.87 323.58V323.58Z" fill="#BE7C5E"/>
<path opacity="0.1" d="M425.5 329.58C430.165 331.308 435.295 331.308 439.96 329.58V327.8H425.5V329.58Z" fill="black"/>
<path d="M432.77 330.54C444.213 330.54 453.49 321.263 453.49 309.82C453.49 298.376 444.213 289.1 432.77 289.1C421.327 289.1 412.05 298.376 412.05 309.82C412.05 321.263 421.327 330.54 432.77 330.54Z" fill="#BE7C5E"/>
<path d="M412.96 301.95H452.5C452.5 301.95 449.13 285.95 434.19 287.01C419.25 288.07 412.96 301.95 412.96 301.95Z" fill="#333333"/>
<path d="M412.48 312.55C413.546 312.55 414.41 310.934 414.41 308.94C414.41 306.946 413.546 305.33 412.48 305.33C411.414 305.33 410.55 306.946 410.55 308.94C410.55 310.934 411.414 312.55 412.48 312.55Z" fill="#BE7C5E"/>
<path d="M452.96 312.55C454.026 312.55 454.89 310.934 454.89 308.94C454.89 306.946 454.026 305.33 452.96 305.33C451.894 305.33 451.03 306.946 451.03 308.94C451.03 310.934 451.894 312.55 452.96 312.55Z" fill="#BE7C5E"/>
<path opacity="0.1" d="M412.96 302.5H452.5C452.5 302.5 449.1 286.5 434.16 287.5C419.22 288.5 412.96 302.5 412.96 302.5Z" fill="black"/>
<g opacity="0.5">
<path opacity="0.5" d="M546.97 354.15C573.342 354.15 594.72 332.772 594.72 306.4C594.72 280.029 573.342 258.65 546.97 258.65C520.598 258.65 499.22 280.029 499.22 306.4C499.22 332.772 520.598 354.15 546.97 354.15Z" fill="url(#paint3_linear)"/>
</g>
<path d="M547.06 352.85C572.879 352.85 593.81 331.919 593.81 306.1C593.81 280.28 572.879 259.35 547.06 259.35C521.241 259.35 500.31 280.28 500.31 306.1C500.31 331.919 521.241 352.85 547.06 352.85Z" fill="#F5F5F5"/>
<path d="M547.1 353.03C556.232 353.043 565.167 350.369 572.79 345.34C571.07 335.93 564.51 335.34 564.51 335.34H528.37C528.37 335.34 522.18 335.85 520.25 344.51C528.105 350.056 537.485 353.032 547.1 353.03V353.03Z" fill="#0F77FF"/>
<path d="M546.61 327.67C559.07 327.67 569.17 317.569 569.17 305.11C569.17 292.65 559.07 282.55 546.61 282.55C534.151 282.55 524.05 292.65 524.05 305.11C524.05 317.569 534.151 327.67 546.61 327.67Z" fill="#72351C"/>
<path opacity="0.1" d="M539.33 323.91H553.79V335.48C553.79 337.398 553.028 339.237 551.672 340.593C550.317 341.948 548.478 342.71 546.56 342.71C544.643 342.71 542.804 341.948 541.448 340.593C540.092 339.237 539.33 337.398 539.33 335.48V323.91Z" fill="black"/>
<path d="M540.71 323.37H552.41C552.776 323.37 553.127 323.516 553.386 323.774C553.645 324.033 553.79 324.384 553.79 324.75V334.94C553.79 335.89 553.603 336.83 553.24 337.707C552.876 338.584 552.344 339.381 551.672 340.052C551.001 340.724 550.204 341.256 549.327 341.62C548.45 341.983 547.51 342.17 546.56 342.17C545.611 342.17 544.67 341.983 543.793 341.62C542.916 341.256 542.119 340.724 541.448 340.052C540.776 339.381 540.244 338.584 539.88 337.707C539.517 336.83 539.33 335.89 539.33 334.94V324.75C539.33 324.384 539.475 324.033 539.734 323.774C539.993 323.516 540.344 323.37 540.71 323.37Z" fill="#FDA57D"/>
<path opacity="0.1" d="M539.35 329.36C544.015 331.089 549.145 331.089 553.81 329.36V327.58H539.35V329.36Z" fill="black"/>
<path d="M546.61 330.33C558.053 330.33 567.33 321.053 567.33 309.61C567.33 298.166 558.053 288.89 546.61 288.89C535.167 288.89 525.89 298.166 525.89 309.61C525.89 321.053 535.167 330.33 546.61 330.33Z" fill="#FDA57D"/>
<path opacity="0.1" d="M531.85 290.76C531.85 290.76 540.58 308.49 565.22 298.19L559.48 289.19L549.31 285.5L531.85 290.76Z" fill="black"/>
<path d="M531.85 290.5C531.85 290.5 540.58 308.23 565.22 297.93L559.48 288.93L549.31 285.28L531.85 290.5Z" fill="#72351C"/>
<path d="M531.77 289.3C532.369 287.473 533.398 285.816 534.77 284.47C538.85 280.47 545.53 279.59 548.96 275C549.146 275.325 549.263 275.685 549.301 276.058C549.34 276.43 549.3 276.807 549.184 277.163C549.068 277.519 548.879 277.847 548.628 278.126C548.378 278.404 548.072 278.627 547.73 278.78C551.01 278.78 554.82 278.47 556.68 275.78C557.145 276.845 557.298 278.021 557.12 279.17C556.943 280.319 556.444 281.394 555.68 282.27C558.59 282.4 561.68 284.38 561.88 287.27C561.879 288.243 561.633 289.2 561.165 290.053C560.697 290.906 560.021 291.627 559.2 292.15C557.544 293.163 555.706 293.842 553.79 294.15C548.18 295.41 528.16 300.5 531.77 289.3Z" fill="#72351C"/>
<path d="M567.33 309.79H566.78L556.09 319.31C545.79 314.49 538.23 319.31 538.23 319.31L527.02 310.19L525.89 310.33C525.96 315.825 528.211 321.068 532.146 324.904C536.082 328.74 541.38 330.855 546.875 330.785C552.37 330.715 557.613 328.464 561.449 324.529C565.285 320.593 567.4 315.295 567.33 309.8V309.79ZM546.58 322.95C542.58 322.95 539.28 322.13 539.28 321.13C539.28 320.13 542.55 319.31 546.58 319.31C550.61 319.31 553.88 320.13 553.88 321.13C553.88 322.13 550.61 322.96 546.58 322.96V322.95Z" fill="#72351C"/>
<path d="M525.88 313.2C526.946 313.2 527.81 311.584 527.81 309.59C527.81 307.597 526.946 305.98 525.88 305.98C524.814 305.98 523.95 307.597 523.95 309.59C523.95 311.584 524.814 313.2 525.88 313.2Z" fill="#FDA57D"/>
<path d="M567.33 313.2C568.396 313.2 569.26 311.584 569.26 309.59C569.26 307.597 568.396 305.98 567.33 305.98C566.264 305.98 565.4 307.597 565.4 309.59C565.4 311.584 566.264 313.2 567.33 313.2Z" fill="#FDA57D"/>
<g opacity="0.5">
<path opacity="0.5" d="M322.25 457.52C348.622 457.52 370 436.142 370 409.77C370 383.398 348.622 362.02 322.25 362.02C295.878 362.02 274.5 383.398 274.5 409.77C274.5 436.142 295.878 457.52 322.25 457.52Z" fill="url(#paint4_linear)"/>
</g>
<path d="M322.34 456.21C348.159 456.21 369.09 435.279 369.09 409.46C369.09 383.641 348.159 362.71 322.34 362.71C296.521 362.71 275.59 383.641 275.59 409.46C275.59 435.279 296.521 456.21 322.34 456.21Z" fill="#F5F5F5"/>
<path d="M322.38 456.39C331.512 456.403 340.447 453.729 348.07 448.7C346.35 439.29 339.79 438.7 339.79 438.7H303.66C303.66 438.7 297.47 439.21 295.54 447.87C303.392 453.414 312.768 456.391 322.38 456.39V456.39Z" fill="#0F77FF"/>
<path d="M321.89 431.04C334.35 431.04 344.45 420.939 344.45 408.48C344.45 396.02 334.35 385.92 321.89 385.92C309.431 385.92 299.33 396.02 299.33 408.48C299.33 420.939 309.431 431.04 321.89 431.04Z" fill="#333333"/>
<path opacity="0.1" d="M314.61 427.27H329.07V438.84C329.07 440.758 328.308 442.597 326.952 443.952C325.596 445.308 323.757 446.07 321.84 446.07C319.922 446.07 318.083 445.308 316.728 443.952C315.372 442.597 314.61 440.758 314.61 438.84V427.27V427.27Z" fill="black"/>
<path d="M316 426.73H327.7C328.066 426.73 328.417 426.875 328.676 427.134C328.935 427.393 329.08 427.744 329.08 428.11V438.3C329.08 439.249 328.893 440.19 328.53 441.067C328.166 441.944 327.634 442.741 326.962 443.412C326.291 444.084 325.494 444.616 324.617 444.98C323.74 445.343 322.8 445.53 321.85 445.53V445.53C319.933 445.53 318.094 444.768 316.738 443.412C315.382 442.056 314.62 440.217 314.62 438.3V428.11C314.62 427.744 314.766 427.393 315.024 427.134C315.283 426.875 315.634 426.73 316 426.73V426.73Z" fill="#FDB797"/>
<path opacity="0.1" d="M314.64 432.73C319.305 434.459 324.435 434.459 329.1 432.73V430.95H314.64V432.73Z" fill="black"/>
<path d="M321.89 433.69C333.333 433.69 342.61 424.413 342.61 412.97C342.61 401.527 333.333 392.25 321.89 392.25C310.447 392.25 301.17 401.527 301.17 412.97C301.17 424.413 310.447 433.69 321.89 433.69Z" fill="#FDB797"/>
<path opacity="0.1" d="M307.13 394.13C307.13 394.13 315.86 411.86 340.5 401.56L334.76 392.56L324.59 388.91L307.13 394.13Z" fill="black"/>
<path d="M307.13 393.86C307.13 393.86 315.86 411.59 340.5 401.29L334.76 392.29L324.59 388.64L307.13 393.86Z" fill="#333333"/>
<path d="M307.05 392.67C307.649 390.843 308.678 389.187 310.05 387.84C314.13 383.84 320.81 382.96 324.24 378.37C324.426 378.695 324.543 379.055 324.581 379.428C324.62 379.8 324.58 380.177 324.464 380.533C324.348 380.889 324.159 381.217 323.908 381.496C323.658 381.774 323.352 381.997 323.01 382.15C326.29 382.15 330.1 381.84 331.96 379.15C332.425 380.216 332.578 381.391 332.401 382.54C332.224 383.689 331.724 384.764 330.96 385.64C333.87 385.77 336.96 387.75 337.16 390.64C337.159 391.613 336.914 392.57 336.445 393.423C335.977 394.276 335.301 394.997 334.48 395.52C332.824 396.533 330.986 397.212 329.07 397.52C323.5 398.78 303.44 403.89 307.05 392.67Z" fill="#333333"/>
<path d="M301.16 416.56C302.226 416.56 303.09 414.944 303.09 412.95C303.09 410.956 302.226 409.34 301.16 409.34C300.094 409.34 299.23 410.956 299.23 412.95C299.23 414.944 300.094 416.56 301.16 416.56Z" fill="#FDB797"/>
<path d="M342.61 416.56C343.676 416.56 344.54 414.944 344.54 412.95C344.54 410.956 343.676 409.34 342.61 409.34C341.544 409.34 340.68 410.956 340.68 412.95C340.68 414.944 341.544 416.56 342.61 416.56Z" fill="#FDB797"/>
<g opacity="0.5">
<path opacity="0.5" d="M548.75 462.81C575.122 462.81 596.5 441.432 596.5 415.06C596.5 388.688 575.122 367.31 548.75 367.31C522.378 367.31 501 388.688 501 415.06C501 441.432 522.378 462.81 548.75 462.81Z" fill="url(#paint5_linear)"/>
</g>
<path d="M548.75 461.55C574.569 461.55 595.5 440.619 595.5 414.8C595.5 388.98 574.569 368.05 548.75 368.05C522.931 368.05 502 388.98 502 414.8C502 440.619 522.931 461.55 548.75 461.55Z" fill="#F5F5F5"/>
<path d="M548.88 461.69C558.012 461.703 566.947 459.029 574.57 454C572.85 444.59 566.29 444 566.29 444H530.15C530.15 444 523.96 444.51 522.03 453.17C529.885 458.716 539.265 461.692 548.88 461.69Z" fill="#0F77FF"/>
<path opacity="0.1" d="M541.11 432.56H555.57V444.13C555.57 446.048 554.808 447.887 553.452 449.242C552.096 450.598 550.257 451.36 548.34 451.36V451.36C546.422 451.36 544.583 450.598 543.227 449.242C541.872 447.887 541.11 446.048 541.11 444.13V432.56Z" fill="black"/>
<path d="M542.49 432H554.19C554.556 432 554.907 432.145 555.166 432.404C555.425 432.663 555.57 433.014 555.57 433.38V443.6C555.57 445.518 554.808 447.356 553.452 448.712C552.096 450.068 550.257 450.83 548.34 450.83V450.83C546.422 450.83 544.583 450.068 543.227 448.712C541.872 447.356 541.11 445.518 541.11 443.6V433.41C541.11 433.044 541.255 432.693 541.514 432.434C541.773 432.175 542.124 432.03 542.49 432.03V432Z" fill="#FDB797"/>
<path opacity="0.1" d="M541.13 438.02C545.795 439.749 550.925 439.749 555.59 438.02V436.24H541.13V438.02Z" fill="black"/>
<path d="M548.39 438.99C559.833 438.99 569.11 429.713 569.11 418.27C569.11 406.826 559.833 397.55 548.39 397.55C536.947 397.55 527.67 406.826 527.67 418.27C527.67 429.713 536.947 438.99 548.39 438.99Z" fill="#FDB797"/>
<path d="M528.09 421C529.156 421 530.02 419.384 530.02 417.39C530.02 415.396 529.156 413.78 528.09 413.78C527.024 413.78 526.16 415.396 526.16 417.39C526.16 419.384 527.024 421 528.09 421Z" fill="#FDB797"/>
<path d="M568.57 421C569.636 421 570.5 419.384 570.5 417.39C570.5 415.396 569.636 413.78 568.57 413.78C567.504 413.78 566.64 415.396 566.64 417.39C566.64 419.384 567.504 421 568.57 421Z" fill="#FDB797"/>
<path d="M542.4 418.37H537.98C536.754 418.37 535.76 419.362 535.76 420.585C535.76 421.808 536.754 422.8 537.98 422.8H542.4C543.626 422.8 544.62 421.808 544.62 420.585C544.62 419.362 543.626 418.37 542.4 418.37Z" stroke="#333333" stroke-width="2" stroke-miterlimit="10"/>
<path d="M554.38 422.8H558.8C560.026 422.8 561.02 421.808 561.02 420.585C561.02 419.361 560.026 418.37 558.8 418.37H554.38C553.154 418.37 552.16 419.361 552.16 420.585C552.16 421.808 553.154 422.8 554.38 422.8Z" stroke="#333333" stroke-width="2" stroke-miterlimit="10"/>
<path d="M544.27 418.8C544.27 418.8 547.08 417.27 552.27 418.8" stroke="#333333" stroke-width="2" stroke-miterlimit="10"/>
<path d="M562.71 403.25L567.79 415.06C567.79 415.06 574.01 407.23 562.71 403.25Z" fill="#858585"/>
<path d="M561.02 420.59L568.61 413.81" stroke="#333333" stroke-width="2" stroke-linecap="round" stroke-linejoin="round"/>
<path d="M534.06 403.25L528.98 415.06C528.98 415.06 522.76 407.23 534.06 403.25Z" fill="#858585"/>
<path d="M535.76 420.59L528.07 413.81" stroke="#333333" stroke-width="2" stroke-linecap="round" stroke-linejoin="round"/>
<g opacity="0.5">
<path opacity="0.5" d="M322.6 564.87C348.972 564.87 370.35 543.492 370.35 517.12C370.35 490.749 348.972 469.37 322.6 469.37C296.229 469.37 274.85 490.749 274.85 517.12C274.85 543.492 296.229 564.87 322.6 564.87Z" fill="url(#paint6_linear)"/>
</g>
<path d="M322.6 563.61C348.419 563.61 369.35 542.679 369.35 516.86C369.35 491.041 348.419 470.11 322.6 470.11C296.781 470.11 275.85 491.041 275.85 516.86C275.85 542.679 296.781 563.61 322.6 563.61Z" fill="#F5F5F5"/>
<path d="M348.5 521.07C348.5 538.28 337.27 557.45 323.41 557.45C309.55 557.45 298.32 538.28 298.32 521.07C298.32 503.86 309.55 495.07 323.41 495.07C337.27 495.07 348.5 503.85 348.5 521.07Z" fill="#FDD835"/>
<path d="M322.73 563.75C331.862 563.763 340.797 561.089 348.42 556.06C346.7 546.65 340.14 546.06 340.14 546.06H304C304 546.06 297.81 546.57 295.88 555.23C303.735 560.776 313.115 563.753 322.73 563.75V563.75Z" fill="#0F77FF"/>
<path opacity="0.1" d="M315 534.63H329.46V546.2C329.46 548.117 328.698 549.956 327.342 551.312C325.986 552.668 324.148 553.43 322.23 553.43V553.43C320.312 553.43 318.474 552.668 317.118 551.312C315.762 549.956 315 548.117 315 546.2V534.63V534.63Z" fill="black"/>
<path d="M316.33 534.09H328C328.366 534.09 328.717 534.235 328.976 534.494C329.235 534.753 329.38 535.104 329.38 535.47V545.66C329.38 547.577 328.618 549.416 327.262 550.772C325.906 552.128 324.067 552.89 322.15 552.89C320.232 552.89 318.393 552.128 317.038 550.772C315.682 549.416 314.92 547.577 314.92 545.66V535.47C314.92 535.104 315.065 534.753 315.324 534.494C315.583 534.235 315.934 534.09 316.3 534.09H316.33Z" fill="#FDB797"/>
<path opacity="0.1" d="M314.98 540.08C319.645 541.808 324.775 541.808 329.44 540.08V538.3H314.98V540.08Z" fill="black"/>
<path d="M322.24 541.05C333.683 541.05 342.96 531.773 342.96 520.33C342.96 508.887 333.683 499.61 322.24 499.61C310.797 499.61 301.52 508.887 301.52 520.33C301.52 531.773 310.797 541.05 322.24 541.05Z" fill="#FDB797"/>
<path d="M301.94 523.06C303.006 523.06 303.87 521.444 303.87 519.45C303.87 517.456 303.006 515.84 301.94 515.84C300.874 515.84 300.01 517.456 300.01 519.45C300.01 521.444 300.874 523.06 301.94 523.06Z" fill="#FDB797"/>
<path d="M342.42 523.06C343.486 523.06 344.35 521.444 344.35 519.45C344.35 517.456 343.486 515.84 342.42 515.84C341.354 515.84 340.49 517.456 340.49 519.45C340.49 521.444 341.354 523.06 342.42 523.06Z" fill="#FDB797"/>
<path opacity="0.1" d="M303.87 509.09C303.87 509.09 315.6 525.09 342.45 519.65C342.45 519.65 345.45 516 338.15 504.79C330.85 493.58 310.5 495.4 303.87 509.09Z" fill="black"/>
<path d="M303.87 508.83C303.87 508.83 315.6 524.83 342.45 519.39C342.45 519.39 345.45 515.74 338.15 504.53C330.85 493.32 310.5 495.14 303.87 508.83Z" fill="#FDD835"/>
<g opacity="0.5">
<path opacity="0.5" d="M436.04 570.35C462.412 570.35 483.79 548.972 483.79 522.6C483.79 496.228 462.412 474.85 436.04 474.85C409.668 474.85 388.29 496.228 388.29 522.6C388.29 548.972 409.668 570.35 436.04 570.35Z" fill="url(#paint7_linear)"/>
</g>
<path d="M436.14 569.04C461.959 569.04 482.89 548.109 482.89 522.29C482.89 496.471 461.959 475.54 436.14 475.54C410.321 475.54 389.39 496.471 389.39 522.29C389.39 548.109 410.321 569.04 436.14 569.04Z" fill="#F5F5F5"/>
<path d="M461.85 526.9C461.85 542.45 450.68 550.1 436.17 550.1C421.66 550.1 409.32 542.45 409.32 526.9C409.32 511.35 421.08 498.75 435.58 498.75C450.08 498.75 461.85 511.35 461.85 526.9Z" fill="#333333"/>
<path d="M436.17 569.22C445.309 569.226 454.247 566.541 461.87 561.5C460.15 552.09 453.59 551.5 453.59 551.5H417.45C417.45 551.5 411.26 552.01 409.33 560.67C417.178 566.225 426.555 569.212 436.17 569.22V569.22Z" fill="#0F77FF"/>
<path opacity="0.1" d="M428.4 540.1H442.86V551.67C442.86 552.62 442.673 553.56 442.31 554.437C441.946 555.314 441.414 556.111 440.742 556.783C440.071 557.454 439.274 557.986 438.397 558.35C437.52 558.713 436.579 558.9 435.63 558.9C433.712 558.9 431.873 558.138 430.518 556.783C429.162 555.427 428.4 553.588 428.4 551.67V540.1V540.1Z" fill="black"/>
<path d="M429.78 539.57H441.48C441.846 539.57 442.197 539.715 442.456 539.974C442.715 540.233 442.86 540.584 442.86 540.95V551.14C442.86 552.089 442.673 553.029 442.31 553.907C441.946 554.784 441.414 555.581 440.742 556.252C440.071 556.924 439.274 557.456 438.397 557.819C437.52 558.183 436.579 558.37 435.63 558.37C433.712 558.37 431.873 557.608 430.518 556.252C429.162 554.896 428.4 553.057 428.4 551.14V540.94C428.403 540.576 428.549 540.227 428.808 539.97C429.066 539.714 429.416 539.57 429.78 539.57V539.57Z" fill="#FDA57D"/>
<path opacity="0.1" d="M428.43 545.56C433.095 547.289 438.225 547.289 442.89 545.56V543.78H428.43V545.56Z" fill="black"/>
<path d="M435.68 546.53C447.123 546.53 456.4 537.253 456.4 525.81C456.4 514.367 447.123 505.09 435.68 505.09C424.237 505.09 414.96 514.367 414.96 525.81C414.96 537.253 424.237 546.53 435.68 546.53Z" fill="#FDA57D"/>
<path opacity="0.1" d="M411.8 527.16C411.8 527.16 424.7 525.6 434.48 513.08C434.48 513.08 447.38 527.29 456.38 525.72C456.38 525.72 461.59 520.25 456.38 514.77C451.17 509.29 447.13 502.39 440.22 503.3C433.31 504.21 424.84 504.6 421.22 507.86C417.6 511.12 411.8 527.16 411.8 527.16Z" fill="black"/>
<path d="M411.8 526.9C411.8 526.9 424.7 525.34 434.48 512.82C434.48 512.82 447.38 527.03 456.38 525.46C456.38 525.46 461.59 519.99 456.38 514.51C451.17 509.03 447.13 502.13 440.22 503.04C433.31 503.95 424.84 504.34 421.22 507.6C417.6 510.86 411.8 526.9 411.8 526.9Z" fill="#333333"/>
<path d="M414.95 529.4C416.016 529.4 416.88 527.784 416.88 525.79C416.88 523.796 416.016 522.18 414.95 522.18C413.884 522.18 413.02 523.796 413.02 525.79C413.02 527.784 413.884 529.4 414.95 529.4Z" fill="#FDA57D"/>
<path d="M456.4 529.4C457.466 529.4 458.33 527.784 458.33 525.79C458.33 523.796 457.466 522.18 456.4 522.18C455.334 522.18 454.47 523.796 454.47 525.79C454.47 527.784 455.334 529.4 456.4 529.4Z" fill="#FDA57D"/>
<path d="M573 130H297V148H573V130Z" fill="white"/>
<path d="M840 57H808V60H840V57Z" fill="white"/>
<path d="M840 65H808V68H840V65Z" fill="white"/>
<path d="M840 72H808V75H840V72Z" fill="white"/>
<defs>
<linearGradient id="paint0_linear" x1="31083.2" y1="34327" x2="31083.2" y2="25206.8" gradientUnits="userSpaceOnUse">
<stop stop-color="#808080" stop-opacity="0.25"/>
<stop offset="0.54" stop-color="#808080" stop-opacity="0.12"/>
<stop offset="1" stop-color="#808080" stop-opacity="0.1"/>
</linearGradient>
<linearGradient id="paint1_linear" x1="41754.1" y1="44357.2" x2="41754.1" y2="35236" gradientUnits="userSpaceOnUse">
<stop stop-color="#808080" stop-opacity="0.25"/>
<stop offset="0.54" stop-color="#808080" stop-opacity="0.12"/>
<stop offset="1" stop-color="#808080" stop-opacity="0.1"/>
</linearGradient>
<linearGradient id="paint2_linear" x1="41749.3" y1="34101.2" x2="41749.3" y2="24980" gradientUnits="userSpaceOnUse">
<stop stop-color="#808080" stop-opacity="0.25"/>
<stop offset="0.54" stop-color="#808080" stop-opacity="0.12"/>
<stop offset="1" stop-color="#808080" stop-opacity="0.1"/>
</linearGradient>
<linearGradient id="paint3_linear" x1="52734.8" y1="34080" x2="52734.8" y2="24959.7" gradientUnits="userSpaceOnUse">
<stop stop-color="#808080" stop-opacity="0.25"/>
<stop offset="0.54" stop-color="#808080" stop-opacity="0.12"/>
<stop offset="1" stop-color="#808080" stop-opacity="0.1"/>
</linearGradient>
<linearGradient id="paint4_linear" x1="31049.4" y1="44055.2" x2="31049.4" y2="34934" gradientUnits="userSpaceOnUse">
<stop stop-color="#808080" stop-opacity="0.25"/>
<stop offset="0.54" stop-color="#808080" stop-opacity="0.12"/>
<stop offset="1" stop-color="#808080" stop-opacity="0.1"/>
</linearGradient>
<linearGradient id="paint5_linear" x1="52906.6" y1="44565.7" x2="52906.6" y2="35445.4" gradientUnits="userSpaceOnUse">
<stop stop-color="#808080" stop-opacity="0.25"/>
<stop offset="0.54" stop-color="#808080" stop-opacity="0.12"/>
<stop offset="1" stop-color="#808080" stop-opacity="0.1"/>
</linearGradient>
<linearGradient id="paint6_linear" x1="31083.1" y1="54415.4" x2="31083.1" y2="45294.2" gradientUnits="userSpaceOnUse">
<stop stop-color="#808080" stop-opacity="0.25"/>
<stop offset="0.54" stop-color="#808080" stop-opacity="0.12"/>
<stop offset="1" stop-color="#808080" stop-opacity="0.1"/>
</linearGradient>
<linearGradient id="paint7_linear" x1="42030.1" y1="54943.3" x2="42030.1" y2="45823" gradientUnits="userSpaceOnUse">
<stop stop-color="#808080" stop-opacity="0.25"/>
<stop offset="0.54" stop-color="#808080" stop-opacity="0.12"/>
<stop offset="1" stop-color="#808080" stop-opacity="0.1"/>
</linearGradient>
</defs>
</svg>
