<svg width="111" height="112" viewBox="0 0 111 112" fill="none" xmlns="http://www.w3.org/2000/svg">
<path d="M110.69 24.1491C110.68 23.9859 110.648 23.8237 110.595 23.6697C110.574 23.6095 110.559 23.5521 110.533 23.4937C110.442 23.2905 110.316 23.1055 110.16 22.9469L87.7598 0.546875C87.6012 0.390104 87.4152 0.263411 87.2111 0.173177C87.1555 0.147656 87.099 0.132161 87.0415 0.112109C86.8829 0.0574219 86.7189 0.0246094 86.5521 0.0145833C86.5202 0.0209636 86.4865 0 86.4473 0H30.4473C25.2957 0.00638022 21.1203 4.18086 21.1139 9.33333V23.0717C8.28151 28.731 0 41.4331 0 55.4586C0 69.4841 8.28151 82.1862 21.1139 87.8454V102.667C21.1203 107.819 25.2957 111.994 30.4473 112H101.381C106.533 111.994 110.708 107.819 110.714 102.667V24.2667C110.714 24.2257 110.694 24.1901 110.69 24.1491ZM104.341 22.4H90.1806C89.1497 22.4 88.3139 21.5642 88.3139 20.5333V6.37292L104.341 22.4ZM3.77253 55.4586C3.76159 47.0385 7.10117 38.9612 13.0548 33.0076C19.0085 27.0539 27.0867 23.7143 35.5059 23.7253C36.5668 23.7253 37.6195 23.7772 38.6586 23.8784C53.0924 25.3048 64.709 36.3608 66.8473 50.7062C67.0952 52.2785 67.2255 53.8672 67.2374 55.4586C67.251 61.4368 65.5612 67.2948 62.3674 72.3479C59.8345 76.3857 56.4211 79.7982 52.3824 82.3293C42.6034 88.4707 30.2604 88.8152 20.1542 83.228C10.0479 77.6417 3.77435 67.0059 3.77253 55.4586ZM57.1858 83.4996C57.441 83.3018 57.6935 83.1059 57.9432 82.9026C58.8647 82.1607 59.747 81.3723 60.5883 80.541C61.4195 79.6997 62.2079 78.8184 62.9499 77.8978C63.1531 77.648 63.3491 77.3938 63.5469 77.1385C63.7729 76.8432 64.0181 76.5634 64.2341 76.2626L80.1473 92.1949C81.2009 93.2385 81.7943 94.6604 81.7943 96.1434C81.7943 97.6272 81.2009 99.0482 80.1473 100.093C77.9434 102.223 74.4479 102.223 72.244 100.093L56.3099 84.1869C56.6107 83.9681 56.8923 83.7257 57.1858 83.4996ZM101.381 108.267H30.4473C27.3547 108.267 24.8473 105.759 24.8473 102.667V89.3029C24.963 89.3402 25.0842 89.3648 25.2018 89.4004C25.5008 89.4915 25.8034 89.5645 26.106 89.6483C26.8042 89.8352 27.5078 90.022 28.2188 90.1615C28.5678 90.2344 28.9169 90.3018 29.2697 90.3638C29.9806 90.4887 30.6979 90.5871 31.418 90.6701C31.7397 90.7065 32.0569 90.7521 32.3796 90.7794C33.4141 90.8678 34.4549 90.9253 35.5059 90.9253C41.6764 90.9298 47.7395 89.3147 53.0888 86.2404L69.5935 102.729C71.9095 105.263 75.4314 106.323 78.7609 105.484C82.0914 104.646 84.6927 102.048 85.5331 98.7182C86.3744 95.3887 85.3189 91.8659 82.785 89.548L66.2876 73.0406C69.362 67.6913 70.978 61.6283 70.9725 55.4586C70.9725 54.2764 70.916 53.1034 70.8012 51.9404C70.0046 43.7846 66.3943 36.1612 60.5901 30.378C53.952 23.7043 44.9194 19.9646 35.5059 19.9919C34.4549 19.9919 33.4141 20.0503 32.3796 20.1378C32.0569 20.166 31.737 20.2107 31.4161 20.248C30.6979 20.3283 29.9842 20.4303 29.2733 20.5543C28.9188 20.6163 28.5651 20.6837 28.2133 20.7576C27.5115 20.9034 26.8151 21.0747 26.1242 21.2652C25.8143 21.3491 25.5044 21.4238 25.1909 21.5168C25.0751 21.5523 24.9576 21.577 24.8418 21.6143V9.33333C24.8418 6.24076 27.3492 3.73333 30.4418 3.73333H84.5806V20.5333C84.5806 23.6259 87.088 26.1333 90.1806 26.1333H106.981V102.667C106.981 105.759 104.474 108.267 101.381 108.267Z" fill="#00CA4C"/>
<path d="M77.114 13.0666C77.114 12.0358 76.2782 11.2 75.2473 11.2H34.1806C33.1498 11.2 32.314 12.0358 32.314 13.0666C32.314 14.0975 33.1498 14.9333 34.1806 14.9333H75.2473C76.2782 14.9333 77.114 14.0975 77.114 13.0666Z" fill="#00CA4C"/>
<path d="M97.6473 44.8H75.2473C74.2164 44.8 73.3806 45.6358 73.3806 46.6667C73.3806 47.6975 74.2164 48.5333 75.2473 48.5333H97.6473C98.6781 48.5333 99.5139 47.6975 99.5139 46.6667C99.5139 45.6358 98.6781 44.8 97.6473 44.8Z" fill="#00CA4C"/>
<path d="M97.6473 56H75.2473C74.2164 56 73.3806 56.8358 73.3806 57.8667C73.3806 58.8975 74.2164 59.7333 75.2473 59.7333H97.6473C98.6781 59.7333 99.5139 58.8975 99.5139 57.8667C99.5139 56.8358 98.6781 56 97.6473 56Z" fill="#00CA4C"/>
<path d="M99.5139 69.0667C99.5139 68.0358 98.6781 67.2 97.6472 67.2H73.3806C72.3497 67.2 71.5139 68.0358 71.5139 69.0667C71.5139 70.0975 72.3497 70.9333 73.3806 70.9333H97.6472C98.6781 70.9333 99.5139 70.0975 99.5139 69.0667Z" fill="#00CA4C"/>
<path d="M99.514 80.2667C99.514 79.2358 98.6782 78.4 97.6474 78.4H80.8474C79.8165 78.4 78.9807 79.2358 78.9807 80.2667C78.9807 81.2975 79.8165 82.1333 80.8474 82.1333H97.6474C98.6782 82.1333 99.514 81.2975 99.514 80.2667Z" fill="#00CA4C"/>
<path d="M77.1139 24.2667C77.1139 23.2358 76.2781 22.4 75.2473 22.4H60.3139C59.2831 22.4 58.4473 23.2358 58.4473 24.2667C58.4473 25.2975 59.2831 26.1334 60.3139 26.1334H75.2473C76.2781 26.1334 77.1139 25.2975 77.1139 24.2667Z" fill="#00CA4C"/>
<path d="M99.5139 35.4666C99.5139 34.4358 98.678 33.6 97.6472 33.6H69.6472C68.6163 33.6 67.7805 34.4358 67.7805 35.4666C67.7805 36.4975 68.6163 37.3333 69.6472 37.3333H97.6472C98.678 37.3333 99.5139 36.4975 99.5139 35.4666Z" fill="#00CA4C"/>
<path d="M28.5805 46.6667H41.6472C42.6781 46.6667 43.5139 45.8309 43.5139 44.8C43.5139 43.7692 42.6781 42.9333 41.6472 42.9333H28.5805C27.5497 42.9333 26.7139 43.7692 26.7139 44.8C26.7139 45.8309 27.5497 46.6667 28.5805 46.6667Z" fill="#00CA4C"/>
<path d="M50.9806 56C50.9806 54.9691 50.1448 54.1333 49.114 54.1333H21.114C20.0831 54.1333 19.2473 54.9691 19.2473 56C19.2473 57.0308 20.0831 57.8666 21.114 57.8666H49.114C50.1448 57.8666 50.9806 57.0308 50.9806 56Z" fill="#00CA4C"/>
<path d="M41.6472 65.3333H28.5805C27.5497 65.3333 26.7139 66.1691 26.7139 67.2C26.7139 68.2308 27.5497 69.0667 28.5805 69.0667H41.6472C42.6781 69.0667 43.5139 68.2308 43.5139 67.2C43.5139 66.1691 42.6781 65.3333 41.6472 65.3333Z" fill="#00CA4C"/>
<path d="M48.7929 80.0798C53.3456 77.6554 57.1209 73.9931 59.683 69.5169C59.8307 69.259 59.9911 69.0093 60.1296 68.7477C60.2016 68.6128 60.2581 68.4733 60.3274 68.3384C60.6109 67.7934 60.887 67.2483 61.1313 66.6905C61.3765 66.1327 61.5688 65.6022 61.7684 65.0535C61.8258 64.8949 61.8988 64.74 61.9553 64.5796C66.7021 50.7755 60.0485 35.6399 46.6683 29.8056C33.2872 23.9714 17.6693 29.3964 10.786 42.2689C8.61948 46.324 7.49109 50.853 7.50203 55.4513C7.48471 65.3169 12.6664 74.4616 21.1384 79.5165C29.6104 84.5724 40.1186 84.7902 48.7929 80.0908V80.0798ZM23.8727 76.7539C21.8411 75.6465 19.9799 74.252 18.3456 72.6132C17.2118 71.4802 16.1919 70.2397 15.2996 68.9081C14.8584 68.2482 14.4528 67.571 14.08 66.8755C8.4618 56.2671 11.4386 43.1448 21.0846 35.9999C30.7305 28.855 44.1509 29.832 52.6611 38.2986C60.198 45.9065 61.8933 57.5404 56.842 66.9831V66.9986C54.6162 71.163 51.2037 74.5728 47.0383 76.7968C39.8123 80.7224 31.0869 80.7087 23.8727 76.7612V76.7539Z" fill="#00CA4C"/>
<path d="M101.381 89.6C100.35 89.6 99.514 90.4358 99.514 91.4666V98.9333C99.514 99.9642 98.6782 100.8 97.6473 100.8H90.1806C89.1498 100.8 88.314 101.636 88.314 102.667C88.314 103.697 89.1498 104.533 90.1806 104.533H97.6473C100.741 104.533 103.247 102.026 103.247 98.9333V91.4666C103.247 90.4358 102.411 89.6 101.381 89.6Z" fill="#00CA4C"/>
</svg>
