<svg width="71" height="116" viewBox="0 0 71 116" fill="none" xmlns="http://www.w3.org/2000/svg">
<path d="M70.5672 49.686V40.8136C70.571 40.7421 70.571 40.6705 70.5672 40.599C70.5078 39.5053 69.5732 38.6666 68.4795 38.7259H2.09224C2.02072 38.7221 1.94919 38.7221 1.87766 38.7259C0.78399 38.7853 -0.0547462 39.7199 0.00459269 40.8136V49.686C-0.0395619 50.2992 0.236953 50.8916 0.73524 51.2518L25.8913 72.9633V95.1968C25.9225 95.9251 26.3139 96.5902 26.9351 96.9714C27.2469 97.1712 27.6086 97.2797 27.9788 97.2845L28.9182 97.0757L43.5318 89.769C44.2241 89.3944 44.6624 88.6771 44.68 87.8901V72.9635L69.8361 51.252C70.3348 50.8916 70.6113 50.2992 70.5672 49.686ZM66.3919 48.7466L41.2357 70.3538C40.7656 70.7366 40.4965 71.3134 40.5051 71.9196V86.6374L30.0668 91.8564V71.9194C30.0754 71.3132 29.8061 70.7364 29.3362 70.3536L4.1799 48.7466V42.9012H66.3919V48.7466Z" fill="#00CA4C"/>
<path d="M11.5911 36.325C16.5254 36.2687 20.5115 32.2824 20.5681 27.3481C20.5681 22.3902 16.549 18.3711 11.5911 18.3711C6.6332 18.3711 2.61414 22.3902 2.61414 27.3481C2.61434 32.306 6.6334 36.325 11.5911 36.325ZM11.5911 22.5466C14.243 22.5466 16.3928 24.6964 16.3928 27.3483C16.3928 30.0001 14.243 32.1499 11.5911 32.1499C8.93922 32.1499 6.78944 30.0001 6.78944 27.3483C6.78944 24.6964 8.93922 22.5466 11.5911 22.5466Z" fill="#00CA4C"/>
<path d="M42.5928 26.6174C42.5928 32.3822 47.2662 37.0556 53.031 37.0556C58.7959 37.0556 63.4693 32.3822 63.4693 26.6174C63.4693 20.8525 58.7959 16.1793 53.031 16.1793C47.2662 16.1793 42.5928 20.8525 42.5928 26.6174ZM46.7689 26.5123C46.8266 23.1116 49.6301 20.4014 53.031 20.4589C53.0662 20.4583 53.1012 20.4581 53.1363 20.4581C56.5376 20.4585 59.2946 23.2163 59.294 26.6176C59.294 30.0764 56.4899 32.8805 53.031 32.8805C49.5722 32.8805 46.7681 30.0764 46.7681 26.6176C46.7681 26.5824 46.7683 26.5472 46.7689 26.5123Z" fill="#00CA4C"/>
<path d="M32.0501 25.2606C35.8314 25.2047 38.8832 22.1528 38.9394 18.3713C38.9394 14.5664 35.855 11.482 32.0501 11.482C28.2452 11.482 25.1608 14.5664 25.1608 18.3713C25.1608 22.1762 28.2454 25.2606 32.0501 25.2606ZM32.0501 15.6573C33.5489 15.6573 34.7641 16.8724 34.7641 18.3713C34.7641 19.8702 33.5489 21.0853 32.0501 21.0853C30.5512 21.0853 29.3361 19.8702 29.3361 18.3713C29.3361 16.8724 30.5512 15.6573 32.0501 15.6573Z" fill="#00CA4C"/>
<path d="M44.576 13.7784C48.3808 13.7784 51.4653 10.694 51.4653 6.88911C51.4653 3.08442 48.3808 0 44.576 0C40.7711 0 37.6866 3.08442 37.6866 6.88931C37.7428 10.6706 40.7946 13.7225 44.576 13.7784ZM44.576 4.1753C46.0748 4.1753 47.29 5.39045 47.29 6.88931C47.29 8.38817 46.0748 9.60332 44.576 9.60332C43.0771 9.60332 41.8619 8.38817 41.8619 6.88931C41.8619 5.39045 43.0771 4.1753 44.576 4.1753Z" fill="#00CA4C"/>
<path d="M35.576 115.778C39.3808 115.778 42.4653 112.694 42.4653 108.889C42.4653 105.084 39.3808 102 35.576 102C31.7711 102 28.6866 105.084 28.6866 108.889C28.7428 112.671 31.7946 115.722 35.576 115.778ZM35.576 106.175C37.0748 106.175 38.29 107.39 38.29 108.889C38.29 110.388 37.0748 111.603 35.576 111.603C34.0771 111.603 32.8619 110.388 32.8619 108.889C32.8619 107.39 34.0771 106.175 35.576 106.175Z" fill="#00CA4C"/>
</svg>
