<svg width="112" height="112" viewBox="0 0 112 112" fill="none" xmlns="http://www.w3.org/2000/svg">
<path d="M59.613 54.1935H46.9678V10.8387H28.9033V14.4516H43.3549V54.1935H28.9033V57.8064H43.3549V97.5483H28.9033V101.161H46.9678V57.8064H59.613V54.1935Z" fill="#00CA4C"/>
<path d="M110.5 56C110.5 70.1365 99.0397 81.5967 84.9032 81.5967C70.7666 81.5967 59.3064 70.1365 59.3064 56C59.3064 41.8634 70.7666 30.4032 84.9032 30.4032C99.0397 30.4032 110.5 41.8634 110.5 56Z" stroke="#00CA4C" stroke-width="3"/>
<path d="M84.9031 65.0323C80.5374 65.0323 76.8847 61.9182 76.05 57.7948C75.852 56.817 76.6796 56 77.6773 56C78.675 56 79.4545 56.8311 79.7819 57.7735C80.5183 59.8931 82.5363 61.4194 84.9031 61.4194C87.2699 61.4194 89.2879 59.8931 90.0243 57.7735C90.3517 56.8311 91.1312 56 92.1289 56C93.1266 56 93.9542 56.817 93.7562 57.7948C92.9215 61.9182 89.2689 65.0323 84.9031 65.0323Z" fill="#00CA4C"/>
<path d="M93.9354 19.1812V2C93.9354 1.17595 92.9946 0.705572 92.3354 1.2L84.9031 6.77419L77.4709 1.2C76.8116 0.705574 75.8708 1.17595 75.8708 2V19.1812L83.0967 22.7941V51.6391L80.2317 48.7742C79.5264 48.0688 78.3827 48.0688 77.6773 48.7742C76.9719 49.4796 76.9719 50.6232 77.6773 51.3286L84.9031 58.5544L92.1289 51.3286C92.8343 50.6232 92.8343 49.4796 92.1289 48.7742C91.4235 48.0688 90.2799 48.0688 89.5745 48.7742L86.7096 51.6391V22.7941L93.9354 19.1812ZM90.3225 16.9478L86.7096 18.7543V9.93548L90.3225 7.22581V16.9478ZM79.4838 16.9478V7.22581L83.0967 9.93548V18.7543L79.4838 16.9478Z" fill="#00CA4C"/>
<path d="M84.9032 75.871C73.9472 75.871 65.0322 66.956 65.0322 56C65.0322 47.8377 69.9043 40.6625 77.331 37.6214C78.2546 37.2433 79.2708 37.7851 79.5651 38.7387C79.8593 39.6918 79.3195 40.6939 78.4041 41.0903C72.4998 43.6472 68.6451 49.4317 68.6451 56C68.6451 64.9635 75.9397 72.2581 84.9032 72.2581C93.8666 72.2581 101.161 64.9635 101.161 56C101.161 49.4317 97.3066 43.6472 91.4023 41.0903C90.4869 40.6939 89.9471 39.6918 90.2412 38.7387C90.5355 37.7851 91.5518 37.2433 92.4753 37.6214C99.9021 40.6625 104.774 47.8377 104.774 56C104.774 66.956 95.8592 75.871 84.9032 75.871Z" fill="#00CA4C"/>
<path d="M27.4032 67.1452H1.5V44.8549H27.4032V67.1452Z" stroke="#00CA4C" stroke-width="3"/>
<path d="M7.22583 52.3871C7.22583 51.3894 8.03461 50.5806 9.03229 50.5806H19.871C20.8687 50.5806 21.6774 51.3894 21.6774 52.3871C21.6774 53.3848 20.8687 54.1935 19.871 54.1935H9.03229C8.03461 54.1935 7.22583 53.3848 7.22583 52.3871Z" fill="#00CA4C"/>
<path d="M16.2581 59.6129C16.2581 58.6152 17.0668 57.8065 18.0645 57.8065C19.0622 57.8065 19.871 58.6152 19.871 59.6129C19.871 60.6106 19.0622 61.4194 18.0645 61.4194C17.0668 61.4194 16.2581 60.6106 16.2581 59.6129Z" fill="#00CA4C"/>
<path d="M9.03223 59.6129C9.03223 58.6152 9.841 57.8065 10.8387 57.8065C11.8364 57.8065 12.6451 58.6152 12.6451 59.6129C12.6451 60.6106 11.8364 61.4194 10.8387 61.4194C9.841 61.4194 9.03223 60.6106 9.03223 59.6129Z" fill="#00CA4C"/>
<path d="M27.4032 23.7903H1.5V1.5H27.4032V23.7903Z" stroke="#00CA4C" stroke-width="3"/>
<path d="M7.22583 9.03228C7.22583 8.03461 8.03461 7.22583 9.03228 7.22583H19.871C20.8687 7.22583 21.6774 8.03461 21.6774 9.03228C21.6774 10.03 20.8687 10.8387 19.871 10.8387H9.03228C8.03461 10.8387 7.22583 10.03 7.22583 9.03228Z" fill="#00CA4C"/>
<path d="M16.2581 16.2581C16.2581 15.2604 17.0668 14.4516 18.0645 14.4516C19.0622 14.4516 19.871 15.2604 19.871 16.2581C19.871 17.2557 19.0622 18.0645 18.0645 18.0645C17.0668 18.0645 16.2581 17.2557 16.2581 16.2581Z" fill="#00CA4C"/>
<path d="M9.03223 16.2581C9.03223 15.2604 9.841 14.4516 10.8387 14.4516C11.8364 14.4516 12.6451 15.2604 12.6451 16.2581C12.6451 17.2557 11.8364 18.0645 10.8387 18.0645C9.841 18.0645 9.03223 17.2557 9.03223 16.2581Z" fill="#00CA4C"/>
<path d="M27.4032 110.5H1.5V88.2097H27.4032V110.5Z" stroke="#00CA4C" stroke-width="3"/>
<path d="M7.22583 95.7419C7.22583 94.7443 8.03461 93.9355 9.03228 93.9355H19.871C20.8687 93.9355 21.6774 94.7443 21.6774 95.7419C21.6774 96.7396 20.8687 97.5484 19.871 97.5484H9.03229C8.03461 97.5484 7.22583 96.7396 7.22583 95.7419Z" fill="#00CA4C"/>
<path d="M16.2581 102.968C16.2581 101.97 17.0668 101.161 18.0645 101.161C19.0622 101.161 19.871 101.97 19.871 102.968C19.871 103.965 19.0622 104.774 18.0645 104.774C17.0668 104.774 16.2581 103.965 16.2581 102.968Z" fill="#00CA4C"/>
<path d="M9.03223 102.968C9.03223 101.97 9.841 101.161 10.8387 101.161C11.8364 101.161 12.6451 101.97 12.6451 102.968C12.6451 103.965 11.8364 104.774 10.8387 104.774C9.841 104.774 9.03223 103.965 9.03223 102.968Z" fill="#00CA4C"/>
</svg>
