<svg width="597" height="520" viewBox="0 0 597 520" fill="none" xmlns="http://www.w3.org/2000/svg">
<path d="M334.7 6.8C331 10.5 328 14 328 14.6C328 15.2 329.1 16.7 330.5 18L333 20.3L320 33.4C312.8 40.5 307 46.9 307 47.6C307 48.3 305.5 47.6 303.8 45.9C302 44.3 300.1 43 299.5 43C298.9 43 295.4 46.1 291.6 49.9C287 54.5 284.9 57.3 285.3 58.4C287 62.8 305 72.3 322.5 78L332.5 81.2L350 98.6C371.1 119.5 374.5 121.5 388 121.5C404.2 121.5 406.5 119.1 406.5 102.5C406.5 88.3 405.4 86.4 384.2 64.9L366.8 47.2L363 35.7C356.9 17.4 347.2 -1.81049e-06 343.2 -1.81049e-06C342.2 -1.81049e-06 338.4 3 334.7 6.8ZM346.7 9.9C351.1 16.5 360 37.2 360 40.6C360 41.1 353.9 35.4 346.5 28L333 14.5L337.7 9.8C340.3 7.1 342.7 5 343 5C343.3 5 345 7.2 346.7 9.9ZM378.5 93L364.5 107L338.5 81L312.5 55L326.5 41L340.5 27L366.5 53L392.5 79L378.5 93ZM326 74.7C326 75.4 303.9 66.5 300 64.2C298.6 63.3 295.8 61.6 293.7 60.2L289.9 57.7L294.7 52.8L299.4 48L312.7 61.2C320 68.5 326 74.6 326 74.7ZM399.3 88.1C403.5 96.3 404.2 109.7 400.7 114.4C398.9 116.8 389.5 118.2 383 117C376.9 115.8 368.5 111.8 368.5 110.1C368.5 108.6 394.2 82.2 395.5 82.5C396.1 82.6 397.7 85.1 399.3 88.1Z" fill="white"/>
<path d="M333.3 44C319.4 52.5 331.2 74.2 346.1 67.5C351.8 64.9 354.4 60.2 353.7 53.7C353.3 49.5 352.7 48.1 349.6 45.3C346.6 42.5 345.3 42 341.3 42C338.3 42 335.3 42.7 333.3 44Z" fill="white"/>
<path d="M355.9 66.3C348.3 71.3 347.3 80.1 353.5 86.8C356.6 90.3 357.2 90.5 362.9 90.5C368.2 90.5 369.2 90.1 372 87.5C383.8 76.2 369.5 57.2 355.9 66.3Z" fill="white"/>
<path d="M288.4 3.39999C288 4.39999 288 8.59999 288.2 13C289.2 30.8 300.1 41.3 312.6 36.5C325.4 31.6 326.5 14.4 314.3 7.29999C310.8 5.29999 310 5.09999 308.9 6.29999C307.8 7.49999 306.9 7.29999 303 5.39999C296.7 2.19999 289.2 1.19999 288.4 3.39999ZM300.3 8.59999C304.1 10.5 311 16.9 311 18.5C311 19.1 311.5 20.1 312.2 20.8C314 22.6 316 20.4 316 16.6L316.1 13.5L317.5 16C322.5 24.7 313.6 35.7 303.8 32.9C297.3 31.2 293.3 24.5 292.3 13.4L291.7 6.99999H294.4C295.9 6.99999 298.5 7.69999 300.3 8.59999Z" fill="white"/>
<path d="M176.4 54.2C176 54.8 176.5 55.9 177.5 56.7C179.1 57.8 173.7 58 142.3 58C111.1 58 105.1 58.2 104 59.5C103.4 60.3 103.1 61.4 103.5 62C103.9 62.7 116.8 63 142.2 63C179.9 63 180.2 63 177.9 64.9C175.9 66.5 175.7 67.1 176.8 68.2C177.8 69.2 179.2 68.8 184.5 66C188.5 63.8 191 61.9 191 60.8C191 59.8 188.8 57.9 185.6 56.1C179.9 52.8 177.5 52.3 176.4 54.2Z" fill="white"/>
<path d="M490 94.4999C468.9 100.3 452 118.2 447.5 139.5C445.7 148.3 445.6 154.7 447.5 163.3C451.2 181 462.5 195.6 478.5 203.5C489.1 208.8 496.7 210.4 508 209.7C526.6 208.6 542 200.3 552.4 185.7C558.1 177.7 560.5 172 562.6 161.9C568.1 134.6 552.3 106.7 525.2 96.2999C516.7 92.9999 498.8 92.0999 490 94.4999ZM518.5 98.3999C536 103 551.8 117.8 556.9 134.4C563.2 154.7 558.3 174.8 543.5 189.5C535.6 197.5 527.4 202.2 517.9 204.5C505.1 207.5 491.1 205.8 479.6 199.8C471.3 195.4 460.2 184.2 456.2 176.2C440.6 144.8 457.2 107.8 491 98.3999C497.1 96.6999 512.3 96.6999 518.5 98.3999Z" fill="white"/>
<path d="M480.5 117.5C480.2 118.3 479.8 119.7 479.5 120.5C478.8 122.7 476 123.5 473.9 122.2C471.1 120.4 469.6 120.7 466.7 123.8C463.7 126.9 463.4 128.1 465.2 131C466.8 133.5 465.3 136.2 462 137C457.2 138.1 457.3 147.2 462.1 148.9C465.6 150.1 466.8 152.5 465.2 155.1C463.4 157.9 463.7 159.4 466.9 162.4C469.6 165 470 165.1 473.3 163.9C477.4 162.5 479.7 163.6 480.2 167.3C480.4 169.1 481.3 169.6 484.8 169.8C489.6 170.2 491.7 169 492.2 165.7C492.5 163.2 496.5 162.1 498.3 163.9C500.3 165.9 502.7 165.1 506 161.4C508.5 158.5 509.4 158 510.1 159.1C511.4 161.2 511.2 161.8 509 163C504.8 165.2 507.2 173 512 173C514.7 173 515 173.3 515 176.4C515 180.1 516.2 181.5 520.2 182.5C522.3 183 523.1 182.8 523.6 181.6C524.5 179.3 527.7 179.6 529.1 182.1C530 183.8 530.8 184.1 533.2 183.6C537.3 182.8 539.2 181.1 538.5 179C537.8 176.8 540.4 174.7 542.9 175.5C544.2 175.9 545.4 175.3 546.9 173.4C549.4 170.2 549.5 168.7 547.5 167C545.4 165.2 545.6 162.5 548.1 160.8C550.1 159.5 550.2 159.1 549.1 155.8C548.1 152.7 547.4 152.1 544.7 151.8C541.8 151.5 541.5 151.2 541.5 148.3C541.5 142.9 535.7 140.1 531.8 143.7C530.1 145.2 529.8 145.2 527.7 143.2C523.7 139.5 518.5 141 517.8 146C517.6 147.8 516.8 148.6 514.9 148.8C512.3 149.1 512.3 149 512.7 144.3C513.2 139.2 512.3 137.6 508.5 136.8C506.2 136.4 505.2 132.4 506.9 130.7C508.7 128.9 508.2 126.8 505.3 123.8C502.5 120.9 500.1 120.3 498.3 122.1C496.2 124.2 492.7 122.7 491.8 119.2C491 116.1 490.7 116 485.9 116C482.4 116 480.8 116.4 480.5 117.5ZM488.7 122C490.2 126 494.1 127.8 498.3 126.2C500.8 125.3 501.7 125.3 502.7 126.3C503.7 127.3 503.7 128.2 502.8 130.7C501.2 134.9 502.9 138.7 507 140.2C511 141.5 510.9 144.3 506.8 146.1C502.8 147.8 501.1 151.8 502.7 156C504.2 160 502.5 161.4 498.2 159.8C494.1 158.2 490.2 160 488.7 164C487.4 167.3 484.3 168.1 483.3 165.2C481.5 160.1 475.2 157.2 472.2 160.2C471.3 161.1 470.7 161.1 469.5 159.9C468.2 158.7 468.2 157.8 469.1 155.2C470.4 151.4 468.6 147.7 464.4 145.8C461.3 144.4 461.3 141.6 464.4 140.2C465.8 139.6 467.7 137.9 468.6 136.4C470.1 134.2 470.2 133.3 469.2 130.7C467.6 126.4 469.4 124.3 473.3 126.1C476.9 127.7 481.4 125.8 483 121.9C484.6 118.2 487.3 118.2 488.7 122ZM524.5 146.1C526 148.4 530 149 533.1 147.5C536.3 145.8 538.2 146.2 537.4 148.5C536.5 150.8 538.9 154.1 542.7 155.6L546.2 157.1L544.1 159.4C541.6 162.1 541.4 165.7 543.6 168.1C545.4 170.1 544.6 172.4 542.4 171.6C539.9 170.6 535.9 173.2 535.3 176.2C534.5 180.1 533.3 180.6 530.6 178.1C527.9 175.6 525.3 175.4 522.2 177.6C520.5 178.8 519.9 178.8 519.6 177.8C517.8 171.2 517.3 170.5 514.2 169.5C510.7 168.5 510.1 167 512.5 165C514.2 163.6 514.5 157.5 513 156.5C510.9 155.2 512 153 514.7 153C518.1 153 521 150.4 521 147.3C521 144.9 523.3 144.1 524.5 146.1Z" fill="white"/>
<path d="M478.8 135.7C475.2 139.5 474.5 143.1 476.5 147.3C478.8 152.2 483.8 154.5 488.5 153C500 149.2 497.8 133 485.8 133C482.3 133 480.8 133.6 478.8 135.7ZM490.5 138.5C491.9 139.8 493 141.8 493 143C493 145.8 488.7 150 485.9 150C482.7 150 479 146.2 479 142.9C479 139.8 483 136 486.2 136C487.2 136 489.2 137.1 490.5 138.5Z" fill="white"/>
<path d="M522.3 156.2C519.2 159.6 518.7 162.5 520.5 165.9C523.5 171.8 529.4 172.7 534.1 168.1C535.7 166.5 537 164.2 537 163C537 160.1 534.4 155.4 532.5 154.6C528.9 153.3 524.3 154 522.3 156.2Z" fill="white"/>
<path d="M274.4 104C264.4 105.1 256.9 107.4 246.6 112.8C236.3 118.2 228.8 124.7 222.4 133.6C213.1 146.6 208.8 160.2 208.8 176.5C208.8 188.8 210.8 197.9 216 208.5C230.8 238.9 262.3 254 298 247.6C323.5 243 346.2 221.1 353 194.4C355.7 183.9 355.7 169 353 158.4C345.7 129.7 320.2 106.8 292.8 104.5C288.8 104.2 284.6 103.8 283.5 103.6C282.4 103.4 278.3 103.6 274.4 104ZM309.5 112.9C313.1 114.5 316 116.1 316 116.3C316 116.6 314.4 120.9 312.4 126C309.1 134.7 308.9 135.6 309.8 141.4L310.8 147.5L305.4 154.9C300.6 161.4 300.1 162.6 300.6 165.9C301.1 169.1 300.7 169.9 297.1 173.5L293 177.4V185.4V193.4L297.2 197.7C300.6 201.2 302.1 202 304.9 202C308 202 309.5 203 315.7 209.2L323 216.4V224.2C323 231.3 322.8 232 320.3 234C316.3 237.1 306.3 241.6 299 243.6C288.2 246.4 265.7 245.5 259.9 242C258.8 241.3 261.5 238.1 271.3 228.2C283.6 215.8 284 215.2 284 211.1C284 207.5 283.1 205.7 278.3 199.2C275.1 195 269.6 188.5 266.1 184.7C251.1 168.8 241.4 168.3 229.4 182.8L224 189.4V198.3V207.3L228 211.6C231.2 215.1 232 216.7 232 219.7L231.9 223.5L228.4 219.5C220.1 210.1 214.4 195.5 213.4 181.2C213 176.3 213 171 213.4 169.5L214.1 166.8L221 167.5C227.6 168.2 228.1 168.1 236.3 164C241.2 161.6 247.3 157.6 250.8 154.4C260.7 145.5 266 132 261.3 127.8C259 125.7 252.6 124 247.3 124C244.9 124 243 123.7 243 123.3C243 122.9 244.7 120.9 246.7 118.8L250.4 115L253.7 118.2L257 121.4L260.8 117.7L264.6 114H277.1C289.3 114 289.7 113.9 292.1 111.4C294.2 109.2 295.1 108.9 298.7 109.4C301 109.7 305.9 111.3 309.5 112.9ZM329.8 126.4C337.2 133.2 345.4 146.8 348.5 157.3C351.6 168.1 350.9 168.2 338.3 159.1C329.6 152.8 326.5 151 323.8 151C319.7 151 319.3 151.3 314.7 157.4C309.5 164.3 309.7 165 317.3 165C323.3 165 323.8 165.2 327.5 169C331.3 172.9 331.6 173 338.2 173H345V182.3V191.6L341 195.5L337 199.4V209V218.5L332.4 223.8C329.9 226.6 327.4 229 326.9 229C326.4 229 326 225.7 326 221.7V214.5L317.6 206.1C310.1 198.6 308.9 197.8 306.1 198.2C303.6 198.6 302.4 198 299.9 195.4C297 192.4 296.8 191.6 296.8 185.5C296.8 178.8 296.8 178.8 301.6 173.9C305.4 170.1 306.1 168.7 305.2 167.8C303.1 165.7 303.9 163.1 309.1 156L314.2 148.9L313.5 142.1C312.9 135.8 313.1 134.4 316.1 126.6L319.3 118L322.9 120.7C324.9 122.1 328 124.7 329.8 126.4ZM245.3 127.3C256.7 128.1 259.6 129.5 259.2 134C258.5 142.8 248.3 154.1 235.3 160.6C228.3 164 227.4 164.2 221.3 163.7C217.7 163.3 214.5 162.8 214.3 162.6C213.2 161.5 219.4 145.7 223 140.1C227.8 132.7 235.1 124.6 235.9 125.8C236.2 126.3 240.4 127 245.3 127.3ZM335.2 161.2L345.2 168.5L339 168.8C333 169.1 332.5 169 329.1 165.6C326.1 162.6 324.7 162 321.2 162C318.9 162 317 161.7 317 161.2C317 158.9 321.7 154.6 324.9 154.1C325 154 329.7 157.3 335.2 161.2ZM254.1 178.8C259.2 182.1 269.2 192.7 275.6 201.6C282.7 211.5 282.5 212.1 267.1 227.4L254.3 240.2L250.9 238.5C249 237.5 244.7 234.8 241.3 232.3L235 227.9V220.7C235 213.5 234.9 213.3 231 209.5C227.1 205.7 227 205.4 227 198.7C227 192.2 227.3 191.4 230.8 186.8C239 175.9 245.8 173.6 254.1 178.8Z" fill="white"/>
<path d="M75.6999 136.6C75.2999 137 74.9999 138.3 74.9999 139.6C74.9999 141.5 74.0999 142 67.9999 143.4C64.0999 144.2 58.4999 146.1 55.5999 147.5C49.6999 150.3 41.1999 158.7 37.9999 164.9C29.6999 181.3 32.1999 201.5 44.0999 214.5C53.5999 224.7 62.5999 228.5 77.4999 228.4C90.9999 228.4 98.7999 225.3 107.6 216.5C114.4 209.8 117.3 204.9 119.5 196.3C123.4 181.4 119.2 166.4 108.1 155.1C101.8 148.7 95.9999 145.6 85.9999 143.4C79.7999 142 79.0999 141.5 78.7999 139.2C78.4999 136.6 76.9999 135.4 75.6999 136.6ZM93.4999 149.8C109.3 157.3 119 174.9 116.1 191.2C113.8 204.6 105.7 215.6 94.0999 221.3C87.8999 224.3 86.7999 224.5 76.9999 224.5C67.6999 224.5 65.7999 224.2 60.7999 221.8C48.9999 216.3 40.1999 204.8 37.9999 191.9C34.4999 172.1 47.7999 152 67.5999 147C74.7999 145.2 86.2999 146.5 93.4999 149.8Z" fill="white"/>
<path d="M81.2 158C76.1 160.3 73.1 165.9 73 173.2V177.9L68.8 178.2L64.5 178.5V185V191.5L68.7 191.8L72.9 192.1L73.2 205.3L73.5 218.5H80.5H87.5L87.8 205.2L88.1 192H92C94.1 192 96.1 191.6 96.4 191.1C96.8 190.6 97.3 187.4 97.6 184.1L98.3 178H93.1H87.9L88.2 174.2C88.5 170.5 88.5 170.5 93.5 170L98.5 169.5L98.8 163.7C99.1 158.3 98.9 157.9 96.5 157C92.4 155.4 85.9 155.9 81.2 158ZM95 163C95 165.5 94.6 166 92.5 166C88.8 166 85.2 168 84.6 170.4C84.3 171.5 84 174.4 84 176.7V181H89.1H94.1L93.8 184.7C93.5 188.5 93.5 188.5 88.8 188.8L84 189.1V202.1V215H80.5H77V202V189H72.5H68V185V181H72.5H77V174.2C77.1 163.6 80.2 160.1 89.8 160C94.9 160 95 160 95 163Z" fill="white"/>
<path d="M390.3 141.1C388 141.8 387 142.7 387 144.1C387 145.9 387.4 146.1 392.8 145.4C400.3 144.6 406.2 146.2 411 150.6C417.5 156.5 419.3 162.8 417.6 173.2C416.8 177.6 416.9 178 418.8 178C421.4 178 423 173.5 423 166.1C422.9 152.6 412.7 141.8 398.8 140.5C395.9 140.3 392 140.5 390.3 141.1Z" fill="white"/>
<path d="M15.9001 148.5C13.1001 153.8 12.7001 155.1 13.8001 156.2C14.9001 157.3 15.5001 157.1 17.1001 155.2C19.0001 152.8 19.0001 153.2 19.2001 191.2C19.5001 224.5 19.7001 229.5 21.0001 229.5C22.3001 229.5 22.5001 224.5 22.8001 191.2C23.0001 153.8 23.1001 152.9 24.9001 155.1C26.7001 157.3 29.0001 157.1 29.0001 154.5C29.0001 152 22.6001 142 21.0001 142C20.1001 142 18.0001 144.7 15.9001 148.5Z" fill="white"/>
<path d="M390.1 149.9C389.3 150.4 389 151.5 389.4 152.5C389.9 153.9 390.8 154.1 394 153.6C398.8 152.9 403.4 154.6 407 158.5C409.1 160.8 409.5 162.1 409.5 167.8C409.6 173.3 409.9 174.5 411.3 174.8C415 175.5 416.1 166.1 413.1 159.4C410.2 153 405 149.6 397.6 149.2C394.3 149.1 390.9 149.3 390.1 149.9Z" fill="white"/>
<path d="M391.2 161.3C388 164.7 388.2 170.2 391.6 172.9C399.6 179.2 409.7 168.6 402.5 161.5C399.3 158.2 394.2 158.1 391.2 161.3Z" fill="white"/>
<path d="M394 202.9C394 203.9 394.7 205.1 395.6 205.4C398.1 206.3 433.3 206.1 434.9 205.1C435.7 204.6 436 203.5 435.7 202.6C435.1 201.2 432.4 201 414.5 201C395.1 201 394 201.1 394 202.9Z" fill="white"/>
<path d="M406.1 213.4C403.5 216.6 405.9 217 426.6 217H447.1L446.8 214.7C446.5 212.5 446.4 212.5 426.9 212.2C410.6 212 407.1 212.2 406.1 213.4Z" fill="white"/>
<path d="M136.1 221.6L133 224.2V279.1V334.1L135.6 336.5C137.1 337.9 139.7 339.2 141.4 339.5C143.1 339.9 155.5 340 168.8 339.8L193.2 339.5L196.1 336.2L199 333V278.9V224.8L196.1 221.9L193.2 219H166.2H139.2L136.1 221.6ZM195 277.5V321H166H137V277.5V234H166H195V277.5Z" fill="white"/>
<path d="M557.4 228.2C557 228.8 557.7 230.1 558.9 231.1C561.1 232.9 560.2 233 522.8 233.2C489.5 233.5 484.5 233.7 484.5 235C484.5 236.3 489.5 236.5 522.8 236.8C560.8 237 561.2 237 558.8 238.9C556.9 240.5 556.7 241.1 557.8 242.2C558.9 243.2 560.2 242.9 565.5 240.1C573.8 235.9 573.9 234.3 566.1 230.1C559.7 226.7 558.5 226.4 557.4 228.2Z" fill="white"/>
<path d="M391.2 253.7C390.5 254 389.3 255.5 388.5 257C387.2 259.5 387 267.9 387 311.2C387 339.4 387.4 363.1 387.9 363.9C388.4 364.7 388.2 366.3 387.4 367.9C386.7 369.3 384.1 375.4 381.6 381.4C376.6 393.2 375.7 399.3 378.8 400.9C381.1 402.1 592.9 402.1 595.2 400.9C598.5 399.1 597.5 392.4 592 379.1L586.9 366.9L587 312V257.2L584.4 255.1C581.7 253 581.6 253 487.1 253.1C435.1 253.1 391.9 253.4 391.2 253.7ZM581.8 258.2C583.5 259.9 583.5 362.1 581.8 363.8C580.9 364.7 558.5 365 487.4 365C404 365 394 364.8 392.6 363.4C391.2 362 391 355.9 391 311.4C391 278.5 391.4 260.2 392 258.9C393 257 395.2 257 486.8 257C558.4 257 580.9 257.3 581.8 258.2ZM393 369.3C393 369.4 391.2 374.2 389 380C386.8 385.8 385 390.8 385 391.2C385 391.7 431.1 392 487.5 392C544.4 392 590 391.6 590 391.1C590 390.7 588.2 385.6 586.1 379.9C583.9 374.2 582.4 369.3 582.6 369.1C582.8 368.9 583.1 368.9 583.3 369.1C583.6 369.4 591.1 387.6 592.7 391.7C593.1 392.8 575.3 393 487.6 393C414.1 393 382 392.7 382 391.9C382 391.4 383.6 387 385.6 382.2C387.6 377.4 389.6 372.5 390.1 371.2C390.6 370 391.4 369 392 369C392.5 369 393 369.1 393 369.3ZM507 389C507 391 506.3 391 467.5 391C428.7 391 428 391 428 389C428 387 428.7 387 467.5 387C506.3 387 507 387 507 389ZM593 397.2C593 397.7 545.3 398 487 398C428.7 398 381 397.7 381 397.2C381 396.8 428.7 396.5 487 396.5C545.3 396.5 593 396.8 593 397.2Z" fill="white"/>
<path d="M396.5 265.2C396.2 265.9 396.1 286.3 396.2 310.5L396.5 354.5H485.5H574.5V309.5V264.5L485.7 264.2C415.2 264 396.8 264.2 396.5 265.2ZM571 309.5V351H485.5H400V309.5V268H485.5H571V309.5Z" fill="white"/>
<path d="M477.7 277.6C470.8 279.8 464.6 286.3 462.5 293.5C460.2 301.2 461.2 307.3 466.5 317.9C470.7 326.3 482.8 342.2 485.4 342.8C487.3 343.2 497.5 331.7 502.2 323.8C509.8 311.1 511.8 299.5 507.9 291C502.5 279.1 490.1 273.6 477.7 277.6ZM493.8 281.5C506.5 286.9 509.7 301.1 501.7 317C497.6 325.3 488.2 337.5 486 337.5C483.7 337.5 474.3 325.1 469.8 316.3C464.9 306.4 463.9 300.1 466.5 293.5C468.4 288.4 473 283.4 477.5 281.4C481.6 279.6 489.3 279.7 493.8 281.5Z" fill="white"/>
<path d="M482.3 288.2C480.6 288.7 478 290.4 476.6 292.1C471.1 298.6 474.4 308.6 483 311.1C486.3 312.1 487.4 312 490.7 310.3C498.4 306.4 500 297.1 494 291.2C490.8 287.9 487 287 482.3 288.2ZM491.5 293.5C496.9 298.8 493.1 308 485.6 308C483 308 481.6 307.3 479.6 304.9C476.2 300.9 476.3 297.5 479.9 293.9C483.7 290.2 488.1 290 491.5 293.5Z" fill="white"/>
<path d="M33.6001 258.8C30.5001 263.4 30.4001 264.9 33.1001 268.4L35.1001 271L33.1001 273.6C30.5001 276.9 30.5001 278.1 33.1001 281.4L35.1001 284L33.1001 286.6C30.5001 289.9 30.4001 292.2 33.0001 294.5C34.1001 295.5 35.0001 296.8 35.0001 297.5C35.0001 298.2 34.1001 299.5 33.0001 300.5C30.5001 302.8 30.5001 305.1 33.1001 308.3L35.1001 310.9L32.9001 313.9C31.7001 315.5 31.0001 317.6 31.3001 318.4C32.1001 320.3 36.0001 320.5 36.0001 318.7C36.0001 317.9 36.9001 316.5 38.0001 315.5C40.6001 313.2 40.6001 308.8 38.0001 306.5L36.0001 304.7L38.0001 302.5C39.1001 301.3 40.0001 299 40.0001 297.3C40.0001 295.6 39.2001 293.6 38.0001 292.5L36.0001 290.7L38.0001 288.5C39.1001 287.3 40.0001 285.2 40.0001 283.8C40.0001 282.4 39.1001 280.5 38.0001 279.5L36.0001 277.7L38.0001 275.5C40.4001 272.9 40.6001 269.3 38.4001 266.2C37.0001 264.1 37.0001 263.7 38.4001 261.5C42.6001 255 38.0001 252.4 33.6001 258.8Z" fill="white"/>
<path d="M273.5 294.6C264.5 297 258.3 299.4 254.7 301.9C234.2 316 227.5 343.2 239.1 365C242.8 372 250.2 379.8 256.5 383.5C266.9 389.7 284.7 391.8 296.1 388.3C299.1 387.4 302.1 386.5 302.8 386.4C303.5 386.3 306.3 384.7 309 383C319.2 376.5 327.6 364.2 330.1 352.2C331.7 344.5 330.7 331.9 328 324.8C323.2 312 311.6 300.9 299.1 296.9C292.7 294.9 277.6 293.5 273.5 294.6ZM290.1 298C311.4 302.1 327 320.6 327 341.8C327 354.4 323.1 363.9 314.2 373.2C289 399.7 244.3 385.6 238 349.2C234.1 326.7 249.9 303.4 272.3 298.5C280 296.8 283.3 296.7 290.1 298Z" fill="white"/>
<path d="M267.1 323C256.5 325.5 251.3 337.1 256.4 347.2C259.7 354.1 277.6 370 282 370C286.1 370 303.9 354 307.5 347C310.8 340.7 309.3 331.2 304.4 326.9C298.9 322.2 290.5 321.3 284.6 324.9C282.3 326.4 280.9 326.7 280.5 326C279 323.6 271.7 322 267.1 323ZM277.4 328.5C281.9 331.6 282.7 331.6 285.8 328.7C287.6 327.1 289.4 326.5 293 326.5C299.1 326.5 303 329.2 304.9 334.7C307.3 341.4 305.3 346 296.1 355C291.9 359.1 286.8 363.4 284.8 364.4L281.2 366.4L277.3 363.5C270.4 358.2 261.8 349.6 259.9 345.8C256.4 338.9 258.2 331.7 264.3 328C268.6 325.3 273 325.5 277.4 328.5Z" fill="white"/>
<path d="M75.5 332.2C75.3 332.9 75 334.8 74.8 336.4C74.5 339.6 71.7 341.6 58.4 348.4C55.1 350.1 40.6 358.2 26.2 366.5L0.1 381.5V426.5L0 471.5L37 492.8C57.3 504.6 74.8 514.4 75.9 514.7C77.3 515.1 89.7 508.5 116 493.4L154 471.5L153.7 426.5L153.5 381.6L129.5 367.7C116.3 360 101.3 351.5 96.1 348.8C80.3 340.4 79.2 339.6 78.8 335.4C78.5 331.7 76.4 329.6 75.5 332.2ZM114.4 364L150 384.5V426.6V468.6L138.4 475.3C132.1 479 126.5 482 126.1 482C125.6 482 123.3 481.1 120.9 480.1C118.5 479 113.6 477.7 110.1 477.1C101.5 475.7 99.5 474.2 98 468C96.8 463.1 96.9 462.7 99.3 460.2C102.1 457.2 109.7 445.7 110.5 443.1C110.7 442.2 112 441 113.2 440.5C118.6 438.1 122.9 426.2 121 419.1C120.5 417 119.1 414.5 118 413.5C116.4 412 116 410.4 116 404.6C116 387.9 112.4 377.4 104 369.6C91.5 357.9 69.7 354.5 61.3 362.9C59.7 364.4 57 366 55.1 366.3C44.5 368.5 39.5 378.4 38.3 400C37.8 410.1 37.4 411.7 35.5 413.6C30.6 418.2 31.6 431.2 37.2 437.6C38.9 439.5 40.7 441 41.4 441C42 441 43.8 443.4 45.2 446.4C46.7 449.3 49.9 454.3 52.4 457.3C56.4 462.2 56.9 463.4 56.3 466.2C55.2 472.2 53.2 474.9 49.2 475.9C47.2 476.4 42.8 477.5 39.5 478.3C36.2 479.1 32.1 480.3 30.5 481C27.6 482.2 26.9 481.9 15.7 475.5L4 468.7V426.6V384.4L25.2 372.2C36.9 365.5 53 356.2 61 351.5C69 346.9 76.2 343.2 77.1 343.3C78 343.4 94.8 352.7 114.4 364ZM88.4 365C99 369 106.6 376.7 109.4 386.1C110.2 388.7 111.1 397.3 111.4 405.2C111.6 413.1 111.5 417.5 111.2 415L110.5 410.5L104.9 410.8C97.8 411.2 87.8 409.4 82.7 406.8C77.6 404.2 69.8 397 67.5 392.6C65.3 388.6 62.8 387.7 57.7 389.1C50.9 390.9 44.4 401.4 43 412.7C42.3 418.2 42.2 417 42.5 406C42.8 391.5 44.1 383.7 47.2 377.7C49.5 373.2 54.4 369.9 58.5 370.2C60.7 370.4 61.7 369.9 62.7 368C63.4 366.6 65.2 365 66.7 364.3C71.2 362.4 82.2 362.7 88.4 365ZM63 393.8C63 395.6 74.4 407.2 78.6 409.6C84.5 413.1 92.1 415 100.1 415H106.7L106.6 419.2L106.5 423.5H111C115.4 423.5 115.5 423.4 116.1 420L116.6 416.5L117.4 419.3C119.2 425.6 115.1 437 111.1 437C109.6 437 108 439.2 104.8 445.3C102 450.7 98.3 455.8 93.9 460.2C84.7 469.6 78.4 471.9 70.7 468.6C63.3 465.5 51.6 452.1 47 441.6C45.7 438.4 44.5 437.1 42.8 436.8C39.7 436.4 36 429 36 423.3C36 418.5 37.7 416.5 38.2 420.7C38.5 423.3 38.8 423.5 43 423.5H47.5L47.6 416C47.6 407.6 49.9 401.5 55 396C57.6 393.2 63 391.7 63 393.8ZM71.9 473C77.8 474.5 83.1 473.5 89 469.5C93.8 466.3 94 466.2 94 468.3C94 469.5 94.9 472 96 473.8L98.1 477.2L95.4 481.8C92 487.5 79 501 76.8 501C74.7 501 60.6 486.1 58.1 481.2C56.1 477.3 56.1 477.2 58 473.4C59.1 471.3 60 468.8 60 467.7C60 466.2 60.5 466.3 63.8 468.9C65.8 470.5 69.5 472.4 71.9 473ZM108.9 481C112.7 481 121.3 484.1 120.3 485.1C119.1 486.2 77.7 510 76.8 510C76 510 34.9 486.2 33.7 485.1C32.6 484 40.8 481.4 47.5 480.6L52.6 480L56.8 486.4C61.6 493.8 74.3 506 77.1 506C79.8 506 95.9 489.6 98.9 483.8C101.2 479.7 101.6 479.3 103.8 480.1C105.1 480.6 107.4 481 108.9 481Z" fill="white"/>
<path d="M177.7 372.6C177.3 373 177 377.1 177 381.7V390H184.3C191.5 390 191.7 390.1 195.4 393.9C197.6 396.1 199.9 397.6 200.6 397.3C202.8 396.5 202.3 394.9 198.8 391.2C195.8 388.2 195.5 387.2 195 380.2L194.5 372.5L186.5 372.2C182 372.1 178.1 372.2 177.7 372.6Z" fill="white"/>
<path d="M257.4 458.5C257 459.3 257.3 460.6 257.8 461.3C258.4 462 259 465.7 259.2 469.5L259.5 476.5L266 476.8C276.8 477.3 277 477.2 277 468.7C277 464.4 276.5 460.9 275.8 460.2C275.1 459.5 271.9 459 268.4 459C264.9 459 261.8 458.5 261.5 458C260.6 456.5 258 456.8 257.4 458.5Z" fill="white"/>
<path d="M155.3 505.5C155 506.4 155.2 507.6 155.7 508.1C156.2 508.6 164.9 508.9 176.6 508.8C195.7 508.5 196.5 508.4 196.5 506.5C196.5 504.6 195.7 504.5 176.2 504.2C158.5 504 155.9 504.2 155.3 505.5Z" fill="white"/>
<path d="M167 518C167 520 167.4 520 187.8 519.8C205.4 519.5 208.5 519.3 208.5 518C208.5 516.7 205.4 516.5 187.8 516.2C167.4 516 167 516 167 518Z" fill="white"/>
</svg>
