<svg width="110" height="111" viewBox="0 0 110 111" fill="none" xmlns="http://www.w3.org/2000/svg">
<path d="M74.7447 76.5517H11.5892C10.5325 76.5517 9.67505 75.6953 9.67505 74.6375V11.483C9.67505 10.4263 10.5325 9.56885 11.5892 9.56885H74.7447C75.8015 9.56885 76.6579 10.4263 76.6579 11.483V74.6375C76.6579 75.6953 75.8015 76.5517 74.7447 76.5517ZM13.5035 72.7244H72.8305V13.3962H13.5035V72.7244Z" fill="#00CA4C"/>
<path d="M21.1581 11.483C21.1581 16.7679 16.8742 21.0518 11.5893 21.0518C6.30447 21.0518 2.02051 16.7679 2.02051 11.483C2.02051 6.19814 6.30447 1.91418 11.5893 1.91418C16.8742 1.91418 21.1581 6.19814 21.1581 11.483Z" fill="white"/>
<path d="M11.5892 22.966C5.25746 22.966 0.106201 17.8148 0.106201 11.483C0.106201 5.15126 5.25746 0 11.5892 0C17.921 0 23.0722 5.15126 23.0722 11.483C23.0722 17.8148 17.921 22.966 11.5892 22.966ZM11.5892 3.82731C7.36878 3.82731 3.93351 7.26148 3.93351 11.483C3.93351 15.7035 7.36878 19.1376 11.5892 19.1376C15.8097 19.1376 19.2438 15.7035 19.2438 11.483C19.2438 7.26148 15.8097 3.82731 11.5892 3.82731Z" fill="#00CA4C"/>
<path d="M84.3135 11.483C84.3135 16.7679 80.0296 21.0518 74.7447 21.0518C69.4599 21.0518 65.1748 16.7679 65.1748 11.483C65.1748 6.19814 69.4599 1.91418 74.7447 1.91418C80.0296 1.91418 84.3135 6.19814 84.3135 11.483Z" fill="white"/>
<path d="M74.7447 22.966C68.413 22.966 63.2617 17.8148 63.2617 11.483C63.2617 5.15126 68.413 0 74.7447 0C81.0765 0 86.2267 5.15126 86.2267 11.483C86.2267 17.8148 81.0765 22.966 74.7447 22.966ZM74.7447 3.82731C70.5232 3.82731 67.089 7.26148 67.089 11.483C67.089 15.7035 70.5232 19.1376 74.7447 19.1376C78.9652 19.1376 82.3994 15.7035 82.3994 11.483C82.3994 7.26148 78.9652 3.82731 74.7447 3.82731Z" fill="#00CA4C"/>
<path d="M21.1581 74.6374C21.1581 79.9223 16.8742 84.2074 11.5893 84.2074C6.30447 84.2074 2.02051 79.9223 2.02051 74.6374C2.02051 69.3537 6.30447 65.0686 11.5893 65.0686C16.8742 65.0686 21.1581 69.3537 21.1581 74.6374Z" fill="white"/>
<path d="M11.5892 86.1205C5.25746 86.1205 0.106201 80.9692 0.106201 74.6374C0.106201 68.3057 5.25746 63.1555 11.5892 63.1555C17.921 63.1555 23.0722 68.3057 23.0722 74.6374C23.0722 80.9692 17.921 86.1205 11.5892 86.1205ZM11.5892 66.9828C7.36878 66.9828 3.93351 70.417 3.93351 74.6374C3.93351 78.859 7.36878 82.2932 11.5892 82.2932C15.8097 82.2932 19.2438 78.859 19.2438 74.6374C19.2438 70.417 15.8097 66.9828 11.5892 66.9828Z" fill="#00CA4C"/>
<path d="M84.3135 74.6374C84.3135 79.9223 80.0296 84.2074 74.7447 84.2074C69.4599 84.2074 65.1748 79.9223 65.1748 74.6374C65.1748 69.3537 69.4599 65.0686 74.7447 65.0686C80.0296 65.0686 84.3135 69.3537 84.3135 74.6374Z" fill="white"/>
<path d="M74.7447 86.1205C68.413 86.1205 63.2617 80.9692 63.2617 74.6374C63.2617 68.3057 68.413 63.1555 74.7447 63.1555C81.0765 63.1555 86.2267 68.3057 86.2267 74.6374C86.2267 80.9692 81.0765 86.1205 74.7447 86.1205ZM74.7447 66.9828C70.5232 66.9828 67.089 70.417 67.089 74.6374C67.089 78.859 70.5232 82.2932 74.7447 82.2932C78.9652 82.2932 82.3994 78.859 82.3994 74.6374C82.3994 70.417 78.9652 66.9828 74.7447 66.9828Z" fill="#00CA4C"/>
<path d="M97.7097 101.431H34.5542C33.4975 101.431 32.6411 100.574 32.6411 99.5177V36.3621C32.6411 35.3054 33.4975 34.4479 34.5542 34.4479H97.7097C98.7665 34.4479 99.624 35.3054 99.624 36.3621V99.5177C99.624 100.574 98.7665 101.431 97.7097 101.431ZM36.4684 97.6035H95.7966V38.2763H36.4684V97.6035Z" fill="#00CA4C"/>
<path d="M44.1241 36.3622C44.1241 41.647 39.839 45.931 34.5542 45.931C29.2704 45.931 24.9854 41.647 24.9854 36.3622C24.9854 31.0773 29.2704 26.7933 34.5542 26.7933C39.839 26.7933 44.1241 31.0773 44.1241 36.3622Z" fill="white"/>
<path d="M34.5542 47.8452C28.2224 47.8452 23.0723 42.6939 23.0723 36.3622C23.0723 30.0304 28.2224 24.8792 34.5542 24.8792C40.886 24.8792 46.0372 30.0304 46.0372 36.3622C46.0372 42.6939 40.886 47.8452 34.5542 47.8452ZM34.5542 28.7065C30.3337 28.7065 26.8996 32.1417 26.8996 36.3622C26.8996 40.5826 30.3337 44.0168 34.5542 44.0168C38.7757 44.0168 42.2099 40.5826 42.2099 36.3622C42.2099 32.1417 38.7757 28.7065 34.5542 28.7065Z" fill="#00CA4C"/>
<path d="M107.278 36.3622C107.278 41.647 102.995 45.931 97.7097 45.931C92.4248 45.931 88.1409 41.647 88.1409 36.3622C88.1409 31.0773 92.4248 26.7933 97.7097 26.7933C102.995 26.7933 107.278 31.0773 107.278 36.3622Z" fill="white"/>
<path d="M97.7096 47.8452C91.3778 47.8452 86.2266 42.6939 86.2266 36.3622C86.2266 30.0304 91.3778 24.8792 97.7096 24.8792C104.041 24.8792 109.193 30.0304 109.193 36.3622C109.193 42.6939 104.041 47.8452 97.7096 47.8452ZM97.7096 28.7065C93.4891 28.7065 90.055 32.1417 90.055 36.3622C90.055 40.5826 93.4891 44.0168 97.7096 44.0168C101.931 44.0168 105.365 40.5826 105.365 36.3622C105.365 32.1417 101.931 28.7065 97.7096 28.7065Z" fill="#00CA4C"/>
<path d="M44.1241 99.5177C44.1241 104.803 39.839 109.087 34.5542 109.087C29.2704 109.087 24.9854 104.803 24.9854 99.5177C24.9854 94.2328 29.2704 89.9478 34.5542 89.9478C39.839 89.9478 44.1241 94.2328 44.1241 99.5177Z" fill="white"/>
<path d="M34.5542 111C28.2224 111 23.0723 105.85 23.0723 99.5177C23.0723 93.186 28.2224 88.0347 34.5542 88.0347C40.886 88.0347 46.0372 93.186 46.0372 99.5177C46.0372 105.85 40.886 111 34.5542 111ZM34.5542 91.862C30.3337 91.862 26.8996 95.2962 26.8996 99.5177C26.8996 103.738 30.3337 107.172 34.5542 107.172C38.7757 107.172 42.2099 103.738 42.2099 99.5177C42.2099 95.2962 38.7757 91.862 34.5542 91.862Z" fill="#00CA4C"/>
<path d="M107.278 99.5177C107.278 104.803 102.995 109.087 97.7097 109.087C92.4248 109.087 88.1409 104.803 88.1409 99.5177C88.1409 94.2328 92.4248 89.9478 97.7097 89.9478C102.995 89.9478 107.278 94.2328 107.278 99.5177Z" fill="white"/>
<path d="M97.7096 111C91.3778 111 86.2266 105.85 86.2266 99.5177C86.2266 93.186 91.3778 88.0347 97.7096 88.0347C104.041 88.0347 109.193 93.186 109.193 99.5177C109.193 105.85 104.041 111 97.7096 111ZM97.7096 91.862C93.4891 91.862 90.055 95.2962 90.055 99.5177C90.055 103.738 93.4891 107.172 97.7096 107.172C101.931 107.172 105.365 103.738 105.365 99.5177C105.365 95.2962 101.931 91.862 97.7096 91.862Z" fill="#00CA4C"/>
<path d="M90.0553 93.7762C89.5658 93.7762 89.0752 93.5889 88.7018 93.2155L79.133 83.6467C78.385 82.8987 78.385 81.6876 79.133 80.9396C79.8798 80.1928 81.0921 80.1928 81.8389 80.9396L91.4077 90.5096C92.1557 91.2564 92.1557 92.4676 91.4077 93.2155C91.0343 93.5889 90.5448 93.7762 90.0553 93.7762Z" fill="#00CA4C"/>
<path d="M26.8997 93.7762C26.4102 93.7762 25.9207 93.5889 25.5462 93.2155L15.9774 83.6467C15.2305 82.8987 15.2305 81.6876 15.9774 80.9396C16.7253 80.1928 17.9365 80.1928 18.6833 80.9396L28.2532 90.5096C29.0001 91.2564 29.0001 92.4676 28.2532 93.2155C27.8787 93.5889 27.3892 93.7762 26.8997 93.7762Z" fill="#00CA4C"/>
<path d="M90.0553 30.6206C89.5658 30.6206 89.0752 30.4334 88.7018 30.06L79.133 20.4911C78.385 19.7432 78.385 18.532 79.133 17.7852C79.8798 17.0373 81.0921 17.0373 81.8389 17.7852L91.4077 27.354C92.1557 28.1009 92.1557 29.3131 91.4077 30.06C91.0343 30.4334 90.5448 30.6206 90.0553 30.6206Z" fill="#00CA4C"/>
<path d="M26.8997 30.6206C26.4102 30.6206 25.9207 30.4334 25.5462 30.06L15.9774 20.4911C15.2305 19.7432 15.2305 18.532 15.9774 17.7852C16.7253 17.0373 17.9365 17.0373 18.6833 17.7852L28.2532 27.354C29.0001 28.1009 29.0001 29.3131 28.2532 30.06C27.8787 30.4334 27.3892 30.6206 26.8997 30.6206Z" fill="#00CA4C"/>
</svg>
