<svg width="86" height="106" viewBox="0 0 86 106" fill="none" xmlns="http://www.w3.org/2000/svg">
<path d="M67.0127 13.3446C54.8811 -6.53682 24.953 -3.68125 16.9912 18.4339C7.96672 18.4897 0.643799 25.8474 0.643799 34.884V34.9681C0.66806 39.7929 4.6526 43.7176 9.52592 43.7176H25.8951V48.2488H15.9172C12.0774 48.2488 8.95416 51.3721 8.95416 55.2118V89.7481C8.95416 92.7646 11.4086 95.219 14.4259 95.219H36.3349L35.3539 101.859H33.1153C31.9726 101.859 31.045 102.786 31.045 103.929C31.045 105.072 31.9726 106 33.1153 106H53.3365C54.48 106 55.4068 105.072 55.4068 103.929C55.4068 102.786 54.48 101.859 53.3365 101.859H51.0979L50.117 95.219H72.0267C75.0432 95.219 77.4977 92.7646 77.4977 89.7481V55.2118C77.4977 51.3729 74.3744 48.2488 70.5354 48.2488H60.5567V43.7184H76.8531C81.3746 43.7184 85.1683 40.3436 85.6778 35.869C86.9855 24.3974 78.4778 14.1687 67.0127 13.3446ZM56.4161 59.4714C56.4161 60.9667 57.6316 62.183 59.1269 62.183H60.7079L55.0413 70.0704C54.8585 70.3251 54.6045 70.3639 54.4703 70.3639C54.3352 70.3639 54.0813 70.3251 53.8985 70.0704L48.2319 62.183H49.8129C51.3074 62.183 52.5237 60.9667 52.5237 59.4714V34.74H56.4161V59.4714ZM48.3823 48.2488H38.0695V43.7184H48.3823V48.2488ZM33.9281 36.8297V61.5611H30.0358V36.8297C30.0358 35.3344 28.8195 34.1181 27.3249 34.1181H25.7439L31.4106 26.2307C31.6912 25.8393 32.2719 25.8385 32.5533 26.2307L38.22 34.1181H36.6389C35.1444 34.1181 33.9281 35.3344 33.9281 36.8297ZM46.912 101.859H39.5398L40.5208 95.219H45.9311L46.912 101.859ZM70.5346 52.3902C72.0906 52.3902 73.3562 53.6559 73.3562 55.2118V80.0968H69.5294C68.3859 80.0968 67.4583 81.0244 67.4583 82.168C67.4583 83.3115 68.3859 84.2383 69.5294 84.2383H73.3562V89.7481C73.3562 90.4816 72.7594 91.0776 72.0267 91.0776H14.4251C13.6924 91.0776 13.0956 90.4816 13.0956 89.7481V84.2383H69.5585C70.7021 84.2383 71.6297 83.3115 71.6297 82.168C71.6297 81.0244 70.7021 80.0968 69.5585 80.0968H13.0956V55.2118C13.0956 53.6559 14.3612 52.3902 15.9172 52.3902H25.8951V62.1636C25.8951 64.115 27.4826 65.7025 29.4341 65.7025H34.5306C36.482 65.7025 38.0695 64.115 38.0695 62.1636V52.3902H48.3823V58.0415H45.8971C43.5017 58.0415 42.1083 60.7564 43.5065 62.7022L50.5343 72.4868C52.4655 75.1742 56.4735 75.175 58.4047 72.4868L65.4332 62.7022C66.0802 61.8013 66.1676 60.6286 65.6613 59.6412C65.155 58.6546 64.1514 58.0415 63.0427 58.0415H60.5575V52.3902H70.5346ZM81.5631 35.4007C81.2922 37.7816 79.2671 39.577 76.8531 39.577H60.5567V34.1375C60.5567 32.1861 58.9692 30.5986 57.0177 30.5986H51.9212C49.9698 30.5986 48.3823 32.1861 48.3823 34.1375V39.577H38.0695V38.2596H40.5547C42.9501 38.2596 44.3436 35.5455 42.9453 33.5989L35.9175 23.8143C33.9863 21.1269 29.9783 21.1261 28.0471 23.8143L21.0186 33.5989C19.6211 35.5455 21.0137 38.2596 23.41 38.2596H25.8951V39.577H9.52592C6.92428 39.577 4.79817 37.5002 4.78523 34.9406V34.884C4.78523 28.4838 9.69575 23.2102 15.9479 22.6303C15.7166 24.4426 15.6738 26.885 16.552 29.0459C16.9847 30.1109 18.1954 30.614 19.2499 30.1853C20.3093 29.7543 20.8196 28.5469 20.3886 27.4875C19.5346 25.384 20.1476 22.2074 20.4557 21.1609L20.4565 21.1576L20.4573 21.1536C25.9639 2.37926 50.6823 -2.01125 62.3213 13.7838C59.1083 14.527 54.5099 16.3895 52.5593 21.0501C52.1177 22.1055 52.6151 23.3185 53.6697 23.7601C53.9309 23.8693 54.2018 23.921 54.4687 23.921C55.2782 23.921 56.0473 23.4431 56.3797 22.6489C58.3392 17.9681 65.1639 17.4723 65.8085 17.4359C75.3044 17.5961 82.6451 25.8902 81.5631 35.4007Z" fill="#00CA4C"/>
<path d="M44.6192 85.5872H41.8324C40.6888 85.5872 39.7612 86.5148 39.7612 87.6583C39.7612 88.8019 40.6888 89.7287 41.8324 89.7287H44.6192C45.7627 89.7287 46.6903 88.8019 46.6903 87.6583C46.6903 86.5148 45.7627 85.5872 44.6192 85.5872Z" fill="#00CA4C"/>
</svg>
