<svg width="1130" height="815" viewBox="0 0 1130 815" fill="none" xmlns="http://www.w3.org/2000/svg">
<g clip-path="url(#clip0)">
<path opacity="0.1" d="M656.54 126.55C584.1 124.04 515.1 100.65 449.22 75.06C383.34 49.47 318.07 21.13 247.37 7.56999C201.89 -1.15001 149.88 -2.38001 113.24 22C78 45.42 66.58 85.97 60.46 123.55C55.85 151.82 53.14 181.55 65.76 208.05C74.53 226.43 90.1 241.88 100.87 259.48C138.32 320.73 111.87 396.27 71.25 456.07C52.25 484.13 30.12 510.89 15.43 540.75C0.739979 570.61 -6.06002 604.84 6.78998 635.3C19.54 665.5 49.9 688.18 82.79 704.13C149.6 736.53 228.33 745.81 305.1 751.06C475.04 762.68 645.89 757.65 816.28 752.61C879.34 750.74 942.67 748.85 1004.71 739.1C1039.15 733.69 1074.71 725.1 1099.71 704.35C1131.46 678.01 1139.33 633.41 1118.05 600.35C1082.37 544.96 983.7 531.2 958.76 471.75C945.03 439.03 959.13 402.57 979.08 372.23C1021.88 307.12 1093.62 250 1097.4 175.59C1100 124.48 1065.51 73.29 1012.19 49.11C956.29 23.76 878.79 26.95 837.55 68.91C795.12 112.15 720.5 128.77 656.54 126.55Z" fill="#0F77FF"/>
<g opacity="0.9">
<path opacity="0.9" d="M731.89 238.91H726.56C725.295 238.91 724.27 239.935 724.27 241.2V318.35C724.27 319.615 725.295 320.64 726.56 320.64H731.89C733.155 320.64 734.18 319.615 734.18 318.35V241.2C734.18 239.935 733.155 238.91 731.89 238.91Z" fill="#3A3768"/>
<path opacity="0.9" d="M397.97 174.88H396.99C395.725 174.88 394.7 175.905 394.7 177.17V199.5C394.7 200.765 395.725 201.79 396.99 201.79H397.97C399.235 201.79 400.26 200.765 400.26 199.5V177.17C400.26 175.905 399.235 174.88 397.97 174.88Z" fill="#3A3768"/>
<path opacity="0.9" d="M398.48 224.141H396.79C395.525 224.141 394.5 225.166 394.5 226.431V268.691C394.5 269.955 395.525 270.981 396.79 270.981H398.48C399.745 270.981 400.77 269.955 400.77 268.691V226.431C400.77 225.166 399.745 224.141 398.48 224.141Z" fill="#3A3768"/>
<path opacity="0.9" d="M398.28 287.36H396.89C395.625 287.36 394.6 288.386 394.6 289.65V332.31C394.6 333.575 395.625 334.6 396.89 334.6H398.28C399.545 334.6 400.57 333.575 400.57 332.31V289.65C400.57 288.386 399.545 287.36 398.28 287.36Z" fill="#3A3768"/>
<path opacity="0.9" d="M690.63 85.9502H436.84C415.307 85.9502 397.85 103.407 397.85 124.94V721.23C397.85 742.764 415.307 760.22 436.84 760.22H690.63C712.164 760.22 729.62 742.764 729.62 721.23V124.94C729.62 103.407 712.164 85.9502 690.63 85.9502Z" fill="#3A3768"/>
<path opacity="0.9" d="M574.19 106.09H535.6C533.463 106.09 531.73 107.823 531.73 109.96V111.63C531.73 113.767 533.463 115.5 535.6 115.5H574.19C576.327 115.5 578.06 113.767 578.06 111.63V109.96C578.06 107.823 576.327 106.09 574.19 106.09Z" fill="#E6E8EC"/>
<path opacity="0.9" d="M590.4 116.13C593.349 116.13 595.74 113.739 595.74 110.79C595.74 107.841 593.349 105.45 590.4 105.45C587.451 105.45 585.06 107.841 585.06 110.79C585.06 113.739 587.451 116.13 590.4 116.13Z" fill="#E6E8EC"/>
</g>
<path d="M682.78 103.52H644.78V108.1C644.78 110.949 644.219 113.77 643.128 116.402C642.037 119.034 640.439 121.426 638.424 123.44C636.409 125.454 634.016 127.052 631.384 128.141C628.751 129.231 625.929 129.791 623.08 129.79H502C496.247 129.79 490.729 127.505 486.659 123.437C482.59 119.37 480.303 113.853 480.3 108.1V103.52H444.69C437.702 103.52 430.999 106.296 426.058 111.237C421.116 116.179 418.34 122.881 418.34 129.87V716.31C418.34 723.298 421.116 730 426.058 734.942C430.999 739.883 437.702 742.66 444.69 742.66H682.78C689.769 742.66 696.471 739.883 701.412 734.942C706.354 730 709.13 723.298 709.13 716.31V129.87C709.13 122.881 706.354 116.179 701.412 111.237C696.471 106.296 689.769 103.52 682.78 103.52V103.52Z" fill="white"/>
<path d="M709.6 148.47H418.58V175.33H709.6V148.47Z" fill="#E6E8EC"/>
<path d="M452.17 154.06H427.54V156.3H452.17V154.06Z" fill="#3A3768"/>
<path d="M452.17 160.78H427.54V163.02H452.17V160.78Z" fill="#3A3768"/>
<path d="M452.17 167.5H427.54V169.74H452.17V167.5Z" fill="#3A3768"/>
<path d="M690 164.49H689.09L688.74 164.21C689.888 162.835 690.518 161.101 690.52 159.31C690.51 157.839 690.064 156.404 689.239 155.186C688.414 153.968 687.246 153.022 685.883 152.468C684.521 151.914 683.024 151.776 681.583 152.072C680.142 152.368 678.821 153.084 677.788 154.131C676.754 155.177 676.053 156.507 675.775 157.951C675.496 159.396 675.652 160.89 676.223 162.246C676.794 163.602 677.753 164.758 678.981 165.569C680.209 166.379 681.649 166.808 683.12 166.8C684.905 166.789 686.631 166.156 688 165.01L688.34 165.3V166.22L694.08 171.98L695.8 170.25L690 164.49ZM683.12 164.49C682.095 164.494 681.091 164.193 680.237 163.627C679.382 163.06 678.715 162.252 678.32 161.306C677.925 160.36 677.819 159.318 678.017 158.312C678.215 157.305 678.706 156.381 679.43 155.654C680.154 154.928 681.077 154.432 682.082 154.231C683.087 154.029 684.13 154.131 685.078 154.522C686.025 154.914 686.835 155.578 687.406 156.43C687.976 157.282 688.28 158.284 688.28 159.31C688.284 159.989 688.153 160.663 687.896 161.292C687.638 161.921 687.258 162.493 686.779 162.974C686.299 163.456 685.729 163.838 685.101 164.098C684.473 164.358 683.8 164.491 683.12 164.49V164.49Z" fill="#3A3768"/>
<path d="M439.85 236.89C446.649 236.89 452.16 231.378 452.16 224.58C452.16 217.781 446.649 212.27 439.85 212.27C433.051 212.27 427.54 217.781 427.54 224.58C427.54 231.378 433.051 236.89 439.85 236.89Z" fill="#C8DDFA"/>
<path d="M649.73 236.89H478.47V243.61H649.73V236.89Z" fill="#C8DDFA"/>
<path d="M650.29 251.44H479.03V258.16H650.29V251.44Z" fill="#C8DDFA"/>
<path d="M650.85 266H479.59V272.72H650.85V266Z" fill="#C8DDFA"/>
<path d="M439.85 320.84C446.649 320.84 452.16 315.328 452.16 308.53C452.16 301.731 446.649 296.22 439.85 296.22C433.051 296.22 427.54 301.731 427.54 308.53C427.54 315.328 433.051 320.84 439.85 320.84Z" fill="#C8DDFA"/>
<path d="M649.73 320.84H478.47V327.56H649.73V320.84Z" fill="#C8DDFA"/>
<path d="M650.29 335.39H479.03V342.11H650.29V335.39Z" fill="#C8DDFA"/>
<path d="M650.85 349.94H479.59V356.66H650.85V349.94Z" fill="#C8DDFA"/>
<path d="M439.85 404.79C446.649 404.79 452.16 399.279 452.16 392.48C452.16 385.681 446.649 380.17 439.85 380.17C433.051 380.17 427.54 385.681 427.54 392.48C427.54 399.279 433.051 404.79 439.85 404.79Z" fill="#C8DDFA"/>
<path d="M649.73 404.79H478.47V411.51H649.73V404.79Z" fill="#C8DDFA"/>
<path d="M650.29 419.34H479.03V426.06H650.29V419.34Z" fill="#C8DDFA"/>
<path d="M650.85 433.89H479.59V440.61H650.85V433.89Z" fill="#C8DDFA"/>
<path d="M439.85 488.74C446.649 488.74 452.16 483.229 452.16 476.43C452.16 469.631 446.649 464.12 439.85 464.12C433.051 464.12 427.54 469.631 427.54 476.43C427.54 483.229 433.051 488.74 439.85 488.74Z" fill="#C8DDFA"/>
<path d="M649.73 488.74H478.47V495.46H649.73V488.74Z" fill="#C8DDFA"/>
<path d="M650.29 503.29H479.03V510.01H650.29V503.29Z" fill="#C8DDFA"/>
<path d="M650.85 517.84H479.59V524.56H650.85V517.84Z" fill="#C8DDFA"/>
<path d="M439.85 572.69C446.649 572.69 452.16 567.179 452.16 560.38C452.16 553.582 446.649 548.07 439.85 548.07C433.051 548.07 427.54 553.582 427.54 560.38C427.54 567.179 433.051 572.69 439.85 572.69Z" fill="#C8DDFA"/>
<path d="M649.73 572.69H478.47V579.41H649.73V572.69Z" fill="#C8DDFA"/>
<path d="M650.29 587.24H479.03V593.96H650.29V587.24Z" fill="#C8DDFA"/>
<path d="M650.85 601.79H479.59V608.51H650.85V601.79Z" fill="#C8DDFA"/>
<path d="M439.85 656.64C446.649 656.64 452.16 651.128 452.16 644.33C452.16 637.531 446.649 632.02 439.85 632.02C433.051 632.02 427.54 637.531 427.54 644.33C427.54 651.128 433.051 656.64 439.85 656.64Z" fill="#C8DDFA"/>
<path d="M649.73 656.64H478.47V663.36H649.73V656.64Z" fill="#C8DDFA"/>
<path d="M650.29 671.19H479.03V677.91H650.29V671.19Z" fill="#C8DDFA"/>
<path d="M650.85 685.74H479.59V692.46H650.85V685.74Z" fill="#C8DDFA"/>
<path opacity="0.1" d="M650.28 723.8C667.589 723.8 681.62 709.769 681.62 692.46C681.62 675.152 667.589 661.12 650.28 661.12C632.971 661.12 618.94 675.152 618.94 692.46C618.94 709.769 632.971 723.8 650.28 723.8Z" fill="black"/>
<path d="M650.28 720.44C665.733 720.44 678.26 707.913 678.26 692.461C678.26 677.008 665.733 664.48 650.28 664.48C634.827 664.48 622.3 677.008 622.3 692.461C622.3 707.913 634.827 720.44 650.28 720.44Z" fill="#0F77FF"/>
<path d="M314.09 115.85L259.36 145.42C259.184 145.525 259.04 145.676 258.943 145.856C258.845 146.036 258.798 146.239 258.806 146.444C258.815 146.648 258.878 146.847 258.989 147.019C259.101 147.191 259.256 147.329 259.44 147.42L268.78 150.93C269.322 151.141 269.763 151.553 270.01 152.08L277.26 167.02C277.4 167.68 278.62 167.85 278.63 167.18L277.52 154.84C277.586 153.923 277.936 153.05 278.52 152.34L306.9 124.54C306.981 124.462 307.08 124.406 307.188 124.374C307.296 124.343 307.41 124.338 307.52 124.36C307.62 124.389 307.711 124.441 307.786 124.512C307.862 124.584 307.919 124.672 307.953 124.77C307.987 124.868 307.998 124.972 307.983 125.075C307.969 125.178 307.93 125.275 307.87 125.36L283.41 155.42C282.879 156.145 282.535 156.99 282.41 157.88L281 168.54C281.12 169.47 281.85 169.82 282.43 168.99L287.7 162.8C287.784 162.68 287.891 162.578 288.014 162.5C288.138 162.421 288.276 162.369 288.42 162.344C288.565 162.32 288.712 162.325 288.855 162.359C288.997 162.392 289.132 162.454 289.25 162.54L302.83 172.44C302.979 172.55 303.153 172.62 303.336 172.644C303.52 172.668 303.706 172.646 303.879 172.579C304.051 172.513 304.204 172.404 304.323 172.262C304.442 172.121 304.524 171.951 304.56 171.77L315.7 117.08C315.748 116.873 315.735 116.656 315.663 116.456C315.591 116.256 315.463 116.081 315.295 115.952C315.126 115.822 314.924 115.744 314.712 115.726C314.5 115.708 314.288 115.751 314.1 115.85H314.09Z" fill="#0F77FF"/>
<path d="M892 127.47L837.27 157.08C837.095 157.186 836.951 157.337 836.855 157.518C836.758 157.699 836.712 157.902 836.721 158.107C836.73 158.311 836.794 158.51 836.907 158.681C837.019 158.852 837.176 158.99 837.36 159.08L846.69 162.6C846.961 162.7 847.21 162.853 847.421 163.051C847.632 163.248 847.802 163.486 847.92 163.75L855.18 178.68C855.32 179.34 856.53 179.52 856.55 178.85L855.44 166.5C855.505 165.586 855.854 164.715 856.44 164.01L884.81 136.21C884.89 136.131 884.989 136.073 885.097 136.042C885.206 136.01 885.32 136.006 885.43 136.03C885.53 136.058 885.623 136.109 885.699 136.18C885.776 136.251 885.834 136.339 885.869 136.437C885.905 136.535 885.916 136.64 885.902 136.743C885.888 136.846 885.85 136.945 885.79 137.03L861.32 166.95C860.788 167.678 860.445 168.527 860.32 169.42L858.85 180.08C858.97 181.01 859.7 181.37 860.29 180.53L865.56 174.35C865.644 174.23 865.751 174.128 865.874 174.05C865.998 173.971 866.136 173.919 866.28 173.894C866.425 173.87 866.572 173.875 866.715 173.909C866.857 173.942 866.992 174.004 867.11 174.09L880.69 183.98C880.838 184.09 881.012 184.16 881.194 184.185C881.377 184.21 881.563 184.187 881.735 184.12C881.907 184.053 882.059 183.944 882.177 183.802C882.295 183.661 882.375 183.491 882.41 183.31L893.55 128.62C893.598 128.413 893.585 128.196 893.513 127.996C893.441 127.796 893.313 127.621 893.145 127.492C892.976 127.362 892.774 127.284 892.562 127.266C892.35 127.248 892.138 127.291 891.95 127.39L892 127.47Z" fill="#0F77FF"/>
<path d="M554.26 19.1302L516.89 39.3402C516.761 39.409 516.655 39.5126 516.582 39.6391C516.509 39.7656 516.473 39.91 516.479 40.0558C516.484 40.2016 516.53 40.3431 516.611 40.4641C516.693 40.585 516.807 40.6807 516.94 40.7402L523.32 43.1402C523.691 43.2815 523.992 43.5612 524.16 43.9202L529.16 54.1202C529.26 54.5702 530.09 54.6902 530.1 54.2402L529.34 45.8002C529.388 45.1774 529.625 44.5842 530.02 44.1002L549.4 25.1002C549.455 25.047 549.522 25.0081 549.595 24.9872C549.668 24.9662 549.746 24.9638 549.82 24.9802C549.893 24.997 549.961 25.0323 550.017 25.0827C550.072 25.1331 550.114 25.197 550.138 25.2681C550.162 25.3393 550.168 25.4155 550.154 25.4894C550.141 25.5633 550.108 25.6324 550.06 25.6902L533.36 46.1202C533.01 46.6189 532.787 47.1956 532.71 47.8002L531.71 55.0802C531.79 55.7202 532.28 55.9602 532.71 55.3902L536.31 51.1702C536.424 51.0202 536.59 50.9184 536.775 50.8851C536.96 50.8517 537.151 50.8892 537.31 50.9902L546.58 57.7502C546.682 57.825 546.801 57.8729 546.926 57.8894C547.051 57.9058 547.179 57.8904 547.297 57.8446C547.414 57.7987 547.518 57.7238 547.599 57.6269C547.68 57.53 547.736 57.4142 547.76 57.2902L555.37 19.9502C555.406 19.8084 555.399 19.6593 555.352 19.5211C555.304 19.383 555.217 19.2618 555.101 19.1725C554.985 19.0833 554.846 19.0298 554.7 19.0188C554.554 19.0077 554.408 19.0395 554.28 19.1102L554.26 19.1302Z" fill="#0F77FF"/>
<path d="M766.93 0.100437L729.56 20.3204C729.434 20.3902 729.33 20.4935 729.259 20.6189C729.188 20.7443 729.153 20.8869 729.158 21.0308C729.164 21.1747 729.209 21.3144 729.288 21.4344C729.368 21.5543 729.479 21.6499 729.61 21.7104L735.99 24.1104C736.363 24.2523 736.666 24.5364 736.83 24.9004L741.78 35.0904C741.88 35.5404 742.71 35.6604 742.72 35.2104L742 26.7804C742.046 26.1543 742.284 25.5575 742.68 25.0704L762.06 6.07044C762.115 6.01719 762.182 5.97835 762.255 5.9574C762.328 5.93646 762.406 5.93406 762.48 5.95044C762.553 5.96725 762.621 6.00254 762.677 6.05295C762.732 6.10335 762.774 6.16719 762.798 6.23838C762.822 6.30957 762.828 6.38573 762.814 6.45961C762.8 6.5335 762.768 6.60264 762.72 6.66044L746 27.1104C745.65 27.6091 745.427 28.1858 745.35 28.7904L744.35 36.0804C744.43 36.7104 744.93 36.9504 745.35 36.3804L748.95 32.1604C749.007 32.0793 749.079 32.0103 749.163 31.9573C749.247 31.9043 749.34 31.8684 749.438 31.8516C749.535 31.8349 749.635 31.8377 749.732 31.8598C749.828 31.8819 749.919 31.9229 750 31.9804L759.28 38.7404C759.381 38.8156 759.499 38.8638 759.624 38.8805C759.749 38.8972 759.876 38.8818 759.993 38.8357C760.11 38.7897 760.213 38.7145 760.293 38.6173C760.373 38.5202 760.427 38.4042 760.45 38.2804L768 0.940437C768.036 0.798666 768.029 0.649522 767.982 0.511356C767.934 0.37319 767.846 0.252031 767.731 0.162777C767.615 0.0735222 767.475 0.0200664 767.33 0.00899089C767.184 -0.00208462 767.038 0.0297016 766.91 0.100437H766.93Z" fill="#0F77FF"/>
<path d="M909.05 259.82L798.73 250.71C798.35 250.67 797.966 250.74 797.625 250.911C797.283 251.082 796.997 251.347 796.802 251.675C796.606 252.003 796.508 252.381 796.521 252.763C796.533 253.145 796.654 253.515 796.87 253.83L807.36 268.15C807.666 268.564 807.886 269.034 808.01 269.534C808.134 270.033 808.157 270.552 808.08 271.06L804.36 300.36C803.93 301.47 805.57 302.92 806.24 301.94L816.6 282.42C817.585 281.121 818.953 280.163 820.51 279.68L889.81 265.86C890.005 265.823 890.206 265.834 890.396 265.892C890.585 265.949 890.758 266.052 890.9 266.19C891.035 266.332 891.131 266.506 891.18 266.695C891.23 266.884 891.231 267.083 891.183 267.272C891.135 267.462 891.04 267.636 890.907 267.779C890.773 267.922 890.606 268.029 890.42 268.09L824.89 288.92C823.409 289.508 822.095 290.449 821.06 291.66L808.51 306.12C807.79 307.63 808.51 308.86 810.21 308.19L824.08 304.1C824.569 303.916 825.11 303.93 825.588 304.139C826.066 304.348 826.444 304.736 826.64 305.22L837.24 333.16C837.365 333.461 837.56 333.726 837.81 333.934C838.061 334.141 838.358 334.285 838.676 334.352C838.994 334.419 839.324 334.407 839.636 334.318C839.949 334.229 840.235 334.065 840.47 333.84L910.24 263.21C910.503 262.944 910.685 262.609 910.767 262.243C910.849 261.878 910.827 261.497 910.703 261.144C910.579 260.791 910.358 260.48 910.066 260.246C909.774 260.012 909.422 259.864 909.05 259.82V259.82Z" fill="#0F77FF"/>
<path d="M611.66 371.08C612.715 372.529 613.983 373.81 615.42 374.88C616.35 375.65 617.31 376.44 618.31 377.14C618.59 377.34 618.88 377.53 619.17 377.72C619.17 377.77 619.11 377.82 619.09 377.88C618.858 378.304 618.767 378.791 618.83 379.27C619.032 379.848 619.405 380.351 619.9 380.71C622.241 382.871 623.823 385.729 624.41 388.86C624.75 390.67 623.53 392.61 623.61 394.45C623.789 396.257 624.269 398.022 625.03 399.67C626.56 403.55 628.18 407.58 631.23 410.41C631.956 416.644 634.358 422.563 638.18 427.54C641.4 431.65 645.68 434.77 649.91 437.82C651.247 438.887 652.699 439.799 654.24 440.54C655.632 441.053 657.068 441.438 658.53 441.69C670.948 444.187 683.558 445.612 696.22 445.95C696.573 453.484 696.727 461.014 696.68 468.54C696.752 469.78 696.575 471.02 696.16 472.19C695.554 473.291 694.823 474.318 693.98 475.25C691.09 479.09 690.98 484.31 691.18 489.12C691.476 494.752 692.144 500.357 693.18 505.9C694.49 513 693.29 520.84 695.81 527.6C696.81 530.27 697.81 532.93 698.81 535.6C699.143 536.35 699.343 537.152 699.4 537.97C699.4 539.72 698.24 541.21 697.4 542.73C696.158 544.946 695.553 547.462 695.65 550C695.642 550.285 695.715 550.566 695.86 550.81C696.19 551.25 696.86 551.21 697.4 551.13C699.615 550.808 701.844 550.602 704.08 550.51C703.679 551.011 703.318 551.543 703 552.1C702.46 553.04 701.985 554.015 701.58 555.02C700.773 556.692 700.136 558.441 699.68 560.24C699.6 560.503 699.536 560.77 699.49 561.04C699.37 561.58 699.26 562.13 699.17 562.67C698.688 565.846 698.491 569.059 698.58 572.27C698.27 578.27 697.97 584.51 697.39 586.33C696.57 588.92 697.59 593.06 698.6 597.01C698.649 599.738 699.138 602.439 700.05 605.01C700.134 607.848 700.469 610.672 701.05 613.45C704.51 632.944 708.177 652.39 712.05 671.79C712.4 673.48 712.73 675.16 713.18 676.79C714.639 682.187 717.188 687.227 720.67 691.6C723.728 695.474 726.35 699.673 728.49 704.12C728.26 705.18 728.02 706.24 727.77 707.29C725.57 716.58 722.66 725.74 721.65 735.23C721.25 739.01 721.13 742.91 719.65 746.4C718.89 748.18 717.77 749.88 717.65 751.81C717.56 753.038 717.85 754.263 718.48 755.32C718.22 755.51 717.97 755.71 717.73 755.91L717.32 756.25C714.48 758.51 710.67 758.97 707.17 759.88C703.67 760.79 699.9 762.64 698.82 766.12C698.749 766.34 698.693 766.564 698.65 766.79C698.01 769.99 699.95 773.39 702.65 775.27C705.56 777.27 709.18 777.89 712.65 778.34C716.12 778.79 719.77 779.14 722.94 780.7C725.68 782.06 727.99 784.29 730.94 785.27L731.45 785.42C730.8 785.81 730.14 786.19 729.45 786.54C726.444 788.07 723.202 789.085 719.86 789.54C716.48 790.01 712.44 790.23 710.7 793.18C709.28 795.62 710.31 798.91 712.36 800.83C714.41 802.75 717.25 803.61 720 804.21C726.272 805.433 732.62 806.221 739 806.57L745.21 807.04C751.21 807.5 757.33 807.97 763.41 808.04C770.913 808.061 778.403 807.409 785.79 806.09C786.13 806.079 786.465 805.997 786.771 805.849C787.078 805.701 787.35 805.49 787.57 805.23C787.796 804.793 787.89 804.3 787.84 803.81C787.68 796.212 786.728 788.651 785 781.25C784.49 779.03 781.46 782.06 779.76 783.98C779.54 782.87 779.28 781.77 778.99 780.7L780.32 780.07C781.336 779.698 782.196 778.993 782.76 778.07C783.038 777.32 783.127 776.513 783.02 775.72C782.78 770.84 782.48 765.78 780.16 761.49C778.625 758.926 776.718 756.604 774.5 754.6C773.81 739.27 772.31 723.92 768.96 708.96C767.24 701.31 765.11 693.58 760.69 687.11C760.14 686.3 759.54 685.49 758.94 684.68C758.462 677.326 757.571 670.005 756.27 662.75C756.015 661.794 756.015 660.787 756.27 659.83C756.69 659.012 757.233 658.264 757.88 657.61C760.54 654.18 759.45 649.3 759.14 644.96C758.7 638.72 760.14 632.54 761.63 626.46C763.443 618.967 765.247 611.47 767.04 603.97C767.486 601.841 768.122 599.756 768.94 597.74C770.2 594.92 772.15 592.48 773.82 589.88C778.86 581.923 781.235 572.568 780.6 563.17C781.6 563.53 782.6 563.9 783.66 564.3C784.41 558.02 781.76 550.89 783.66 544.99C786.916 542.617 789.545 539.487 791.32 535.87C792.8 532.55 793.22 528.81 794.77 525.52C795.65 523.67 796.88 521.96 797.39 519.97C798.16 516.97 797.2 513.85 797.24 510.78C797.34 504.09 802.24 497.88 801.14 491.27C800.64 488.13 798.82 485.27 798.92 482.04C799.067 480.313 799.503 478.623 800.21 477.04C803.89 467.29 807.52 456.91 805.63 446.65C805.15 444.03 804.3 441.42 804.44 438.75C804.6 435.7 806.05 432.75 805.62 429.7C805.444 428.545 804.976 427.454 804.26 426.53C805.579 424.502 806.7 422.352 807.61 420.11C808.219 418.831 808.524 417.427 808.5 416.01C808.37 415.045 808.048 414.115 807.551 413.276C807.055 412.438 806.395 411.708 805.61 411.13C804.044 409.998 802.369 409.023 800.61 408.22C800.048 407.985 799.545 407.626 799.14 407.17C798.82 406.668 798.543 406.139 798.31 405.59C797.31 403.88 795.18 403.34 793.49 402.31C787.39 398.59 787.98 389 782.77 384.09C781.003 382.517 778.754 381.591 776.391 381.465C774.028 381.34 771.693 382.022 769.77 383.4C769.274 383.898 768.627 384.218 767.93 384.31C767.251 384.16 766.632 383.812 766.15 383.31C764.856 382.435 763.311 382.007 761.75 382.09C760.768 378.281 760.324 374.353 760.43 370.42H760.9C761.514 370.441 762.127 370.371 762.72 370.21C765.4 369.44 766.93 366.67 768.02 364.09C768.974 361.914 769.76 359.667 770.37 357.37C770.43 357.15 770.48 356.93 770.53 356.72C775.66 360.32 781.62 364.09 783.04 363.3C785.67 361.85 771.29 351.62 771.29 351.62C772.98 350.12 773.92 347.41 774.29 345.02C775.13 340.25 775.53 335.29 774.41 330.57C773.29 325.85 770.46 321.36 766.16 319.16C764.26 318.16 761.95 317.5 760.57 315.99C760.359 315.768 760.178 315.519 760.03 315.25V315.25C759.941 315.13 759.868 314.999 759.81 314.86C759.659 314.444 759.457 314.048 759.21 313.68C758.42 312.77 756.99 313.05 755.8 313.19H755.42H755.09H754.77C750.51 313.28 746.38 310.9 742.07 310.9C737.34 310.9 733.32 313.64 729.16 315.52C728.32 315.9 727.52 316.25 726.77 316.6C724.17 317.82 722.12 319.12 720.77 322.05C719.948 323.023 719.357 324.168 719.04 325.4C718.904 325.964 718.83 326.541 718.82 327.12C715.235 330.671 712.652 335.106 711.334 339.977C710.016 344.847 710.01 349.98 711.316 354.854C712.621 359.728 715.193 364.169 718.769 367.729C722.346 371.288 726.8 373.838 731.68 375.12C731.78 375.4 731.88 375.68 731.97 375.96C732.835 378.537 733.258 381.242 733.22 383.96C733.22 384.15 733.22 384.34 733.22 384.53C731.047 385.045 728.965 385.891 727.05 387.04C724.613 388.485 722.77 390.75 721.85 393.43C721.786 393.631 721.733 393.834 721.69 394.04C720.171 393.544 718.588 393.271 716.99 393.23C715.54 393.23 713.91 393.34 712.99 394.44C712.618 394.89 712.357 395.421 712.23 395.99C711.68 396.5 711.57 397.38 711.23 398.05C710.02 400.16 706.9 399.47 704.55 400.05C702 400.68 699.99 403.05 697.36 403.05C696.368 402.891 695.361 402.854 694.36 402.94C693.36 403.18 692.6 404.53 693.36 405.21C692.775 405.152 692.185 405.257 691.656 405.513C691.126 405.768 690.678 406.166 690.36 406.66C689.64 407.6 689.16 408.72 688.36 409.6C688.014 409.118 687.534 408.746 686.98 408.531C686.426 408.316 685.821 408.267 685.24 408.39C684.083 408.653 682.974 409.091 681.95 409.69C681.498 409.938 681.008 410.111 680.5 410.2C679.905 410.232 679.309 410.178 678.73 410.04C675.916 409.584 673.03 409.988 670.45 411.2C668.17 412.28 665.98 410.3 663.45 410.14C662.53 410.187 661.624 409.907 660.89 409.35C660.41 408.768 660.068 408.084 659.89 407.35C659.327 405.734 658.358 404.289 657.076 403.155C655.794 402.02 654.243 401.234 652.57 400.87C653.225 398.811 653.073 396.58 652.144 394.629C651.216 392.677 649.581 391.152 647.57 390.36C647.736 388.886 647.538 387.393 646.994 386.013C646.451 384.632 645.577 383.406 644.45 382.44C643.896 382.064 643.368 381.649 642.87 381.2C642.21 380.414 641.717 379.503 641.42 378.52L639.2 372.64C638.2 372.44 637.45 372.03 636.52 371.87C636.52 371.68 636.52 371.48 636.52 371.27C636.496 369.264 636.158 367.273 635.52 365.37C634.38 362.273 632.782 359.364 630.78 356.74C628.66 353.74 626.31 350.87 623.16 349.08C622.111 348.51 621.025 348.009 619.91 347.58L614.19 345.22C613.877 345.065 613.538 344.97 613.19 344.94C611.65 344.94 611.37 347.32 612.19 348.59C613.93 351.16 617.85 351.88 618.96 354.79C618.03 354.821 617.134 355.145 616.399 355.716C615.664 356.288 615.129 357.077 614.87 357.97C614.83 358.448 614.637 358.901 614.32 359.26C613.82 359.67 613.03 359.43 612.45 359.74C611.45 360.29 611.88 361.81 611.77 362.96C611.534 363.958 611.199 364.929 610.77 365.86C610.525 366.742 610.477 367.668 610.631 368.57C610.785 369.472 611.136 370.33 611.66 371.08V371.08ZM748.78 772.08C748.78 771.49 748.7 770.9 748.65 770.32C748.77 770.63 748.88 770.95 749 771.26C750 773.9 751.13 776.5 752.31 779.07L752.11 778.96C751.242 778.57 750.323 778.308 749.38 778.18C749.13 778.18 748.87 778.18 748.62 778.11C748.957 776.125 749.011 774.101 748.78 772.1V772.08Z" fill="url(#paint0_linear)"/>
<path d="M733.28 386.26C733.17 390.44 731.76 394.48 731.54 398.65C743.83 399.26 755.96 393.3 768.14 395.12C764.74 392.92 762.92 388.95 761.84 385.04C760.483 379.999 760.076 374.749 760.64 369.56C760.674 369.27 760.727 368.982 760.8 368.7C761.25 366.7 762.42 363.77 762.1 362.16C761.69 360.04 759.69 360.46 757.88 360.58C752.377 361.001 746.9 361.709 741.47 362.7C740.06 362.94 726.27 366.38 726.07 366.02C728.498 369.893 730.509 374.013 732.07 378.31C732.92 380.872 733.329 383.56 733.28 386.26Z" fill="#EE8E9E"/>
<path d="M611.66 373.36C612.719 374.8 613.986 376.074 615.42 377.14C616.35 377.91 617.31 378.69 618.31 379.39C620.093 380.769 622.22 381.634 624.46 381.89C627.39 382.09 633.6 380.37 635.46 377.89C636.231 376.63 636.598 375.164 636.51 373.69C636.486 371.693 636.149 369.712 635.51 367.82C634.369 364.738 632.771 361.846 630.77 359.24C628.65 356.3 626.3 353.4 623.15 351.62C622.099 351.054 621.013 350.553 619.9 350.12L614.18 347.78C613.867 347.625 613.528 347.53 613.18 347.5C611.64 347.5 611.36 349.86 612.18 351.13C613.92 353.69 617.84 354.4 618.95 357.3C618.022 357.326 617.126 357.647 616.391 358.214C615.656 358.782 615.12 359.568 614.86 360.46C614.82 360.935 614.627 361.384 614.31 361.74C613.81 362.15 613.02 361.92 612.44 362.22C611.44 362.77 611.87 364.28 611.76 365.43C611.522 366.42 611.187 367.385 610.76 368.31C610.537 369.167 610.502 370.062 610.657 370.934C610.813 371.805 611.155 372.633 611.66 373.36V373.36Z" fill="#EE8E9E"/>
<path d="M781.18 792.03C780.24 791.03 778.69 791.24 777.37 791.45C770.275 792.574 763.104 793.155 755.92 793.19C755.02 788.8 757.63 784.53 758.47 780.12C758.589 778.984 758.875 777.872 759.32 776.82C760.32 774.88 762.61 773.99 764.75 773.54C768.62 772.73 774.66 771.29 776.82 775.19C779.41 779.88 780.24 786.81 781.18 792.03Z" fill="#65617D"/>
<path d="M702.59 775.42C705.5 777.42 709.12 778.03 712.59 778.48C716.06 778.93 719.71 779.27 722.88 780.83C725.62 782.18 727.93 784.4 730.88 785.37C733.575 786.108 736.413 786.153 739.13 785.5C742.39 784.89 745.86 783.7 747.62 780.89C749.18 778.39 749.02 775.21 748.8 772.27C748.55 768.94 748.31 765.61 748.06 762.27C748.072 761.426 747.858 760.594 747.44 759.86C745.09 756.42 739.36 761.29 736.29 761.29C731.43 761.29 726.22 758.65 722.72 755.43C722.41 755.111 722.052 754.841 721.66 754.63C720.28 754.01 718.89 755.16 717.66 756.16L717.25 756.5C714.41 758.75 710.6 759.21 707.1 760.12C703.6 761.03 699.83 762.86 698.75 766.32C698.679 766.536 698.623 766.757 698.58 766.98C697.92 770.19 699.86 773.57 702.59 775.42Z" fill="#3F3D56"/>
<path opacity="0.05" d="M702.59 775.42C705.5 777.42 709.12 778.03 712.59 778.48C716.06 778.93 719.71 779.27 722.88 780.83C725.62 782.18 727.93 784.4 730.88 785.37C733.575 786.108 736.413 786.153 739.13 785.5C742.39 784.89 745.86 783.7 747.62 780.89C749.18 778.39 749.02 775.21 748.8 772.27C748.55 768.94 748.31 765.61 748.06 762.27C748.072 761.426 747.858 760.594 747.44 759.86C745.09 756.42 739.36 761.29 736.29 761.29C731.43 761.29 726.22 758.65 722.72 755.43C722.41 755.111 722.052 754.841 721.66 754.63C720.28 754.01 718.89 755.16 717.66 756.16L717.25 756.5C714.41 758.75 710.6 759.21 707.1 760.12C703.6 761.03 699.83 762.86 698.75 766.32C698.679 766.536 698.623 766.757 698.58 766.98C697.92 770.19 699.86 773.57 702.59 775.42Z" fill="black"/>
<path d="M702.59 776.56C705.5 778.56 709.12 779.17 712.59 779.62C716.06 780.07 719.71 780.41 722.88 781.97C725.62 783.32 727.93 785.54 730.88 786.51C733.575 787.248 736.413 787.293 739.13 786.64C742.597 785.906 745.643 783.851 747.62 780.91C749.18 778.41 749.02 775.23 748.8 772.29C748.55 768.96 748.31 765.63 748.06 762.29C748.072 761.445 747.858 760.613 747.44 759.88C745.09 756.44 739.36 761.31 736.29 761.31C731.43 761.31 726.22 758.67 722.72 755.45C722.41 755.13 722.052 754.86 721.66 754.65C720.28 754.03 718.89 755.18 717.66 756.18C718.472 758.657 719.62 761.013 721.07 763.18C722.244 765.021 723.814 766.577 725.665 767.736C727.515 768.895 729.601 769.627 731.77 769.88C733.94 770.04 736.17 769.61 738.27 770.17C740.37 770.73 742.27 772.87 741.58 774.92C740.89 776.97 738.29 777.34 736.17 777.45C733.17 777.62 730.17 777.76 727.34 776.84C725.62 776.26 724.05 775.31 722.34 774.62C715.22 771.62 706.23 773.32 700.34 768.33C699.781 767.819 699.178 767.357 698.54 766.95C697 770.23 699.86 774.69 702.59 776.56Z" fill="#E8EAF2"/>
<path opacity="0.05" d="M702.59 776.56C705.5 778.56 709.12 779.17 712.59 779.62C716.06 780.07 719.71 780.41 722.88 781.97C725.62 783.32 727.93 785.54 730.88 786.51C733.575 787.248 736.413 787.293 739.13 786.64C742.597 785.906 745.643 783.851 747.62 780.91C749.18 778.41 749.02 775.23 748.8 772.29C748.55 768.96 748.31 765.63 748.06 762.29C748.072 761.445 747.858 760.613 747.44 759.88C745.09 756.44 739.36 761.31 736.29 761.31C731.43 761.31 726.22 758.67 722.72 755.45C722.41 755.13 722.052 754.86 721.66 754.65C720.28 754.03 718.89 755.18 717.66 756.18C718.472 758.657 719.62 761.013 721.07 763.18C722.244 765.021 723.814 766.577 725.665 767.736C727.515 768.895 729.601 769.627 731.77 769.88C733.94 770.04 736.17 769.61 738.27 770.17C740.37 770.73 742.27 772.87 741.58 774.92C740.89 776.97 738.29 777.34 736.17 777.45C733.17 777.62 730.17 777.76 727.34 776.84C725.62 776.26 724.05 775.31 722.34 774.62C715.22 771.62 706.23 773.32 700.34 768.33C699.781 767.819 699.178 767.357 698.54 766.95C697 770.23 699.86 774.69 702.59 776.56Z" fill="black"/>
<path d="M779.85 558.68C782.12 569.817 779.968 581.4 773.85 590.979C772.18 593.569 770.23 595.979 768.97 598.799C768.152 600.805 767.516 602.88 767.07 605L761.66 627.419C760.2 633.419 758.73 639.62 759.17 645.82C759.48 650.14 760.57 654.989 757.91 658.409C757.265 659.057 756.722 659.799 756.3 660.609C756.045 661.563 756.045 662.566 756.3 663.519C759.04 679.759 761.06 696.749 756.12 712.459C751.65 726.699 751.39 742.459 747.58 756.919C747.11 758.709 746.58 760.589 745.22 761.849C744.2 762.706 742.978 763.288 741.67 763.539C736.06 764.869 730.14 763.31 724.91 760.88C721.23 759.18 717.27 756.189 717.59 752.149C717.74 750.229 718.86 748.539 719.59 746.769C721.09 743.299 721.21 739.419 721.59 735.659C722.59 726.219 725.51 717.11 727.71 707.87C729.91 698.63 731.41 688.979 729.55 679.669C725.741 660.411 719.648 641.675 711.4 623.859C711.047 622.912 710.479 622.06 709.74 621.37C708.915 620.897 708.129 620.358 707.39 619.76C706.82 618.875 706.454 617.874 706.32 616.829C705.5 613.889 703.07 611.71 701.44 609.13C697.32 602.59 698.63 594.21 698.78 586.49C698.93 578.98 697.85 571.41 699.08 564C700.31 556.59 704.55 549 711.69 546.7C715.23 545.55 719.06 545.81 722.76 546.18C742.39 548.07 761.45 551.63 779.85 558.68Z" fill="#303D5C"/>
<path opacity="0.05" d="M779.85 558.68C782.12 569.817 779.968 581.4 773.85 590.979C772.18 593.569 770.23 595.979 768.97 598.799C768.152 600.805 767.516 602.88 767.07 605L761.66 627.419C760.2 633.419 758.73 639.62 759.17 645.82C759.48 650.14 760.57 654.989 757.91 658.409C757.265 659.057 756.722 659.799 756.3 660.609C756.045 661.563 756.045 662.566 756.3 663.519C759.04 679.759 761.06 696.749 756.12 712.459C751.65 726.699 751.39 742.459 747.58 756.919C747.11 758.709 746.58 760.589 745.22 761.849C744.2 762.706 742.978 763.288 741.67 763.539C736.06 764.869 730.14 763.31 724.91 760.88C721.23 759.18 717.27 756.189 717.59 752.149C717.74 750.229 718.86 748.539 719.59 746.769C721.09 743.299 721.21 739.419 721.59 735.659C722.59 726.219 725.51 717.11 727.71 707.87C729.91 698.63 731.41 688.979 729.55 679.669C725.741 660.411 719.648 641.675 711.4 623.859C711.047 622.912 710.479 622.06 709.74 621.37C708.915 620.897 708.129 620.358 707.39 619.76C706.82 618.875 706.454 617.874 706.32 616.829C705.5 613.889 703.07 611.71 701.44 609.13C697.32 602.59 698.63 594.21 698.78 586.49C698.93 578.98 697.85 571.41 699.08 564C700.31 556.59 704.55 549 711.69 546.7C715.23 545.55 719.06 545.81 722.76 546.18C742.39 548.07 761.45 551.63 779.85 558.68Z" fill="black"/>
<path d="M700 605.76C700.063 608.678 700.398 611.584 701 614.44C704.46 633.833 708.127 653.167 712 672.44C712.35 674.12 712.68 675.79 713.13 677.44C714.592 682.811 717.141 687.825 720.62 692.17C736.92 712.48 738.33 741.98 747.17 766.47C747.76 768.13 748.36 769.79 748.99 771.47C750.59 775.622 752.413 779.684 754.45 783.64C754.685 784.216 755.072 784.717 755.57 785.09C756.12 785.368 756.736 785.489 757.35 785.44C765.317 785.487 773.187 783.697 780.35 780.21C781.367 779.84 782.228 779.135 782.79 778.21C783.067 777.463 783.156 776.659 783.05 775.87C782.81 771.02 782.51 765.98 780.19 761.72C778.655 759.165 776.747 756.853 774.53 754.86C773.84 739.61 772.34 724.34 768.99 709.46C767.27 701.85 765.14 694.16 760.72 687.72C757.46 682.97 752.79 678.29 753.36 672.56C753.62 670.04 754.67 666.91 752.62 665.43C751.73 664.78 750.4 664.7 749.8 663.77C749.553 663.336 749.416 662.849 749.4 662.35C748.982 658.417 749.228 654.441 750.13 650.59C750.871 648.075 751.456 645.517 751.88 642.93C752.14 640.31 751.7 637.48 749.95 635.53C749.84 630.3 749.95 624.87 749.88 619.64C749.678 616.663 749.928 613.672 750.62 610.77C751.01 609.4 751.62 608.09 751.92 606.69C753.02 601.69 750.29 595.69 753.54 591.69C754.89 590.03 756.98 589.21 758.75 588.01C762.3 585.65 764.62 581.78 765.91 577.72C767.047 573.608 767.718 569.382 767.91 565.12C768.005 564.212 768.005 563.297 767.91 562.39C767.85 561.922 767.726 561.464 767.54 561.03C766.54 558.76 763.82 557.88 761.4 557.3C746.04 553.615 730.296 551.775 714.5 551.82C708.66 547.82 705.37 549.26 702.9 553.48C701.525 556.05 700.415 558.754 699.59 561.55C698.46 564.96 698.39 584.1 697.29 587.55C695.89 591.96 700 601.08 700 605.76Z" fill="#303D5C"/>
<path d="M805.62 431.63C806.05 434.63 804.62 437.63 804.44 440.63C804.3 443.29 805.15 445.88 805.63 448.49C807.52 458.69 803.89 469.02 800.21 478.72C799.499 480.301 799.063 481.992 798.92 483.72C798.82 486.88 800.64 489.78 801.14 492.91C802.19 499.48 797.34 505.66 797.24 512.31C797.24 515.37 798.16 518.49 797.39 521.45C796.88 523.45 795.65 525.13 794.77 526.98C793.22 530.25 792.77 533.98 791.32 537.27C788.64 543.27 782.88 547.14 777.41 550.72C774.29 549.72 770.92 548.45 769.21 545.65C768.458 544.266 767.973 542.753 767.78 541.19C766.59 534.39 766.63 527.44 766.68 520.54C766.582 514.595 766.896 508.651 767.62 502.75C768.73 495.25 771.16 488.02 772.91 480.64C775.11 471.33 776.24 461.71 779.67 452.78C782.67 444.94 787.38 437.89 792.33 431.15C794.21 428.57 795.7 424.9 799.33 425.49C800.88 425.748 802.314 426.475 803.439 427.573C804.563 428.67 805.325 430.086 805.62 431.63V431.63Z" fill="#3F3D56"/>
<path opacity="0.05" d="M805.62 431.63C806.05 434.63 804.62 437.63 804.44 440.63C804.3 443.29 805.15 445.88 805.63 448.49C807.52 458.69 803.89 469.02 800.21 478.72C799.499 480.301 799.063 481.992 798.92 483.72C798.82 486.88 800.64 489.78 801.14 492.91C802.19 499.48 797.34 505.66 797.24 512.31C797.24 515.37 798.16 518.49 797.39 521.45C796.88 523.45 795.65 525.13 794.77 526.98C793.22 530.25 792.77 533.98 791.32 537.27C788.64 543.27 782.88 547.14 777.41 550.72C774.29 549.72 770.92 548.45 769.21 545.65C768.458 544.266 767.973 542.753 767.78 541.19C766.59 534.39 766.63 527.44 766.68 520.54C766.582 514.595 766.896 508.651 767.62 502.75C768.73 495.25 771.16 488.02 772.91 480.64C775.11 471.33 776.24 461.71 779.67 452.78C782.67 444.94 787.38 437.89 792.33 431.15C794.21 428.57 795.7 424.9 799.33 425.49C800.88 425.748 802.314 426.475 803.439 427.573C804.563 428.67 805.325 430.086 805.62 431.63V431.63Z" fill="black"/>
<path opacity="0.1" d="M726.07 366.02C728.498 369.893 730.509 374.013 732.07 378.31C734.288 378.857 736.565 379.132 738.85 379.13C747.71 379.13 753.99 374.13 759.2 367.72C759.65 365.72 762.46 363.77 762.14 362.16C761.73 360.04 759.73 360.46 757.92 360.58C752.417 361.001 746.94 361.709 741.51 362.7C740.06 362.94 726.27 366.42 726.07 366.02Z" fill="black"/>
<path d="M738.81 378.36C754.495 378.36 767.21 365.644 767.21 349.96C767.21 334.275 754.495 321.56 738.81 321.56C723.125 321.56 710.41 334.275 710.41 349.96C710.41 365.644 723.125 378.36 738.81 378.36Z" fill="#EE8E9E"/>
<path opacity="0.1" d="M702.93 553.42C707.84 553.13 712.79 553.32 717.72 553.52C720.805 553.557 723.881 553.871 726.91 554.46C730.64 555.31 734.13 557.01 737.81 558.07C743.7 559.79 749.91 559.86 756.02 560.47C760.026 560.86 764.006 561.481 767.94 562.33C767.88 561.861 767.756 561.404 767.57 560.97C766.57 558.7 763.85 557.82 761.43 557.24C746.07 553.554 730.326 551.715 714.53 551.76C708.69 547.8 705.4 549.22 702.93 553.42Z" fill="black"/>
<path d="M722.28 396.42C723.52 397.85 725.18 399.42 727.02 398.96C727.683 398.728 728.304 398.39 728.86 397.96C732.13 395.85 736.15 395.35 740 394.77C747.781 393.605 755.467 391.881 763 389.61C765.183 388.817 767.471 388.352 769.79 388.23C774.6 388.23 778.87 391.46 781.88 395.23C784.89 399 787 403.42 790 407.21C792.11 409.91 794.62 412.29 796.59 415.1C801.59 422.19 802.59 431.44 801.34 440C800.09 448.56 796.64 456.64 793.25 464.6C791.442 469.229 789.23 473.689 786.64 477.93C787.78 484.43 787.18 491.87 784.09 497.71C783.09 499.61 781.85 501.46 781.51 503.59C781.36 505.028 781.421 506.48 781.69 507.9L783.14 518.18C783.58 521.31 784.02 524.45 784.59 527.56C785.59 533.25 787.05 539.42 784.41 544.56C781.25 550.72 784.57 558.63 783.74 565.56C774.835 562.111 765.503 559.887 756 558.951C749.9 558.361 743.69 558.28 737.8 556.57C734.12 555.5 730.63 553.801 726.9 552.951C723.872 552.357 720.796 552.043 717.71 552.01C710.9 551.74 704.05 551.47 697.32 552.47C696.77 552.55 696.11 552.59 695.78 552.15C695.635 551.909 695.562 551.632 695.57 551.35C695.471 548.825 696.077 546.321 697.32 544.12C698.17 542.6 699.32 541.12 699.32 539.38C699.263 538.565 699.063 537.767 698.73 537.02L695.73 529.02C693.21 522.3 694.41 514.5 693.1 507.44C692.064 501.928 691.396 496.352 691.1 490.75C690.86 485.96 691.01 480.75 693.9 476.94C694.742 476.03 695.474 475.023 696.08 473.94C696.494 472.777 696.671 471.543 696.6 470.31C696.66 460.73 696.397 451.154 695.81 441.58C698.33 437.05 700.96 432.42 703.48 427.9C706.41 422.63 709.38 417.26 710.57 411.35C711.35 407.43 711.32 403.4 711.88 399.45C711.938 398.45 712.286 397.488 712.88 396.68C713.88 395.59 715.47 395.43 716.88 395.48C718.718 395.511 720.54 395.828 722.28 396.42V396.42Z" fill="#3F3D56"/>
<path opacity="0.1" d="M618.31 379.42C620.093 380.799 622.22 381.664 624.46 381.92C627.39 382.12 633.6 380.4 635.46 377.92C636.231 376.661 636.598 375.195 636.51 373.72C636.114 373.595 635.704 373.518 635.29 373.49C632.112 373.14 628.9 373.268 625.76 373.87C622.66 374.63 619.67 376.51 618.36 379.42C618.32 379.42 618.32 379.42 618.31 379.42Z" fill="black"/>
<path d="M712.79 440.81C711.07 442.97 709.26 445.18 706.79 446.46C703.97 447.92 700.65 447.95 697.47 447.89C684.37 447.609 671.32 446.177 658.47 443.61C657.008 443.358 655.572 442.973 654.18 442.46C652.64 441.723 651.187 440.814 649.85 439.75C645.62 436.75 641.34 433.62 638.12 429.53C634.301 424.582 631.899 418.689 631.17 412.48C628.12 409.67 626.5 405.67 624.97 401.8C624.21 400.165 623.73 398.414 623.55 396.62C623.47 394.78 624.69 392.85 624.35 391.04C623.761 387.924 622.178 385.083 619.84 382.94C619.347 382.583 618.973 382.085 618.77 381.51C618.707 381.034 618.798 380.551 619.03 380.13C620.33 377.21 623.32 375.33 626.42 374.57C629.563 373.969 632.779 373.84 635.96 374.19C637.019 374.391 638.062 374.668 639.08 375.02L641.3 380.87C641.597 381.85 642.091 382.758 642.75 383.54C643.248 383.986 643.776 384.397 644.33 384.77C645.457 385.727 646.332 386.946 646.876 388.32C647.42 389.695 647.617 391.182 647.45 392.65C649.457 393.432 651.091 394.948 652.02 396.891C652.949 398.834 653.103 401.058 652.45 403.11C654.118 403.47 655.667 404.251 656.948 405.378C658.229 406.505 659.201 407.942 659.77 409.55C659.944 410.286 660.287 410.97 660.77 411.55C661.504 412.107 662.41 412.387 663.33 412.34C665.84 412.49 668.03 414.47 670.33 413.4C672.91 412.188 675.796 411.784 678.61 412.24C679.19 412.375 679.786 412.425 680.38 412.39C680.889 412.309 681.379 412.14 681.83 411.89C682.856 411.295 683.965 410.857 685.12 410.59C685.701 410.47 686.305 410.52 686.859 410.735C687.412 410.949 687.892 411.32 688.24 411.8C689.04 410.93 689.52 409.8 690.24 408.88C690.56 408.387 691.008 407.991 691.537 407.736C692.066 407.48 692.655 407.374 693.24 407.43C692.48 406.76 693.24 405.43 694.24 405.17C695.241 405.094 696.247 405.131 697.24 405.28C699.87 405.28 701.88 402.88 704.43 402.28C706.78 401.7 709.9 402.39 711.11 400.28C711.53 399.54 711.62 398.54 712.34 398.08C712.834 397.84 713.395 397.777 713.93 397.9C715.595 398.122 717.212 398.611 718.72 399.35C721.18 408.97 719.89 418.96 718.01 428.71C717.349 433.128 715.55 437.298 712.79 440.81Z" fill="#3F3D56"/>
<path opacity="0.1" d="M712.87 475.28L725.1 499.94C723.78 497.66 720.99 496.77 718.79 495.31C716.007 493.289 713.913 490.461 712.79 487.21C711.679 483.965 710.905 480.614 710.48 477.21C710.23 475.64 709.72 473.45 710.48 472.03C711.84 472.33 712.29 474.12 712.87 475.28Z" fill="black"/>
<path opacity="0.1" d="M748.06 496.22C750.82 498.95 754.19 500.96 757.23 503.38C764.32 509.03 769.38 516.77 774.32 524.38C775.707 526.369 776.877 528.501 777.81 530.74C777.23 531.24 776.36 530.74 775.81 530.22L766.21 521.78C765.031 520.817 763.958 519.731 763.01 518.54C761.34 516.29 760.6 513.54 759.09 511.14C757.442 508.869 755.475 506.848 753.25 505.14C751.05 503.25 740.91 494.68 743.38 491.35C745.14 492.3 746.6 494.77 748.06 496.22Z" fill="black"/>
<path d="M727.07 389.33C730.07 387.43 733.71 386.63 737.24 385.98C739.357 385.499 741.536 385.343 743.7 385.52C745.7 385.77 747.62 386.52 749.63 386.65C752.46 386.81 755.17 385.65 757.89 384.92C760.61 384.19 763.77 383.92 766.07 385.53C766.556 386.017 767.176 386.347 767.85 386.48C768.546 386.392 769.193 386.076 769.69 385.58C771.616 384.209 773.95 383.531 776.311 383.656C778.671 383.782 780.92 384.703 782.69 386.27C787.9 391.15 787.31 400.69 793.41 404.39C795.1 405.39 797.25 405.95 798.23 407.66C798.467 408.204 798.744 408.728 799.06 409.23C799.473 409.665 799.974 410.006 800.53 410.23C802.288 411.026 803.963 411.994 805.53 413.12C806.314 413.694 806.974 414.42 807.471 415.255C807.967 416.091 808.29 417.017 808.42 417.98C808.443 419.391 808.139 420.787 807.53 422.06C804.544 429.383 799.363 435.601 792.701 439.861C786.038 444.12 778.22 446.213 770.32 445.85C768.917 445.926 767.534 445.496 766.42 444.64C765.832 443.978 765.368 443.216 765.05 442.39C762.18 436.39 756.8 431.93 753.37 426.21C751.37 422.8 750.03 418.99 747.9 415.64C744.69 410.55 739.79 406.79 735 403.14C732.3 401.08 729.29 398.92 725.9 399.07C722.9 399.2 720.68 399.36 721.79 395.65C722.739 392.98 724.612 390.739 727.07 389.33Z" fill="#3F3D56"/>
<path opacity="0.05" d="M727.07 389.33C730.07 387.43 733.71 386.63 737.24 385.98C739.357 385.499 741.536 385.343 743.7 385.52C745.7 385.77 747.62 386.52 749.63 386.65C752.46 386.81 755.17 385.65 757.89 384.92C760.61 384.19 763.77 383.92 766.07 385.53C766.556 386.017 767.176 386.347 767.85 386.48C768.546 386.392 769.193 386.076 769.69 385.58C771.616 384.209 773.95 383.531 776.311 383.656C778.671 383.782 780.92 384.703 782.69 386.27C787.9 391.15 787.31 400.69 793.41 404.39C795.1 405.39 797.25 405.95 798.23 407.66C798.467 408.204 798.744 408.728 799.06 409.23C799.473 409.665 799.974 410.006 800.53 410.23C802.288 411.026 803.963 411.994 805.53 413.12C806.314 413.694 806.974 414.42 807.471 415.255C807.967 416.091 808.29 417.017 808.42 417.98C808.443 419.391 808.139 420.787 807.53 422.06C804.544 429.383 799.363 435.601 792.701 439.861C786.038 444.12 778.22 446.213 770.32 445.85C768.917 445.926 767.534 445.496 766.42 444.64C765.832 443.978 765.368 443.216 765.05 442.39C762.18 436.39 756.8 431.93 753.37 426.21C751.37 422.8 750.03 418.99 747.9 415.64C744.69 410.55 739.79 406.79 735 403.14C732.3 401.08 729.29 398.92 725.9 399.07C722.9 399.2 720.68 399.36 721.79 395.65C722.739 392.98 724.612 390.739 727.07 389.33Z" fill="black"/>
<path d="M712.29 800.94C714.35 802.86 717.18 803.7 719.93 804.3C726.202 805.516 732.55 806.298 738.93 806.64L745.14 807.12C751.14 807.58 757.26 808.04 763.34 808.07C770.843 808.095 778.333 807.445 785.72 806.13C786.06 806.119 786.394 806.037 786.701 805.889C787.007 805.741 787.28 805.53 787.5 805.27C787.726 804.837 787.82 804.347 787.77 803.86C787.632 796.304 786.703 788.783 785 781.42C784.3 778.42 778.87 785.18 778.62 785.42C777.12 787.13 775.98 787.92 773.69 788.04C767.44 788.38 760.45 784.58 755.48 781.2C754.419 780.408 753.291 779.709 752.11 779.11C751.24 778.725 750.322 778.462 749.38 778.33C746.165 778.039 742.935 778.696 740.09 780.22C736.35 782.07 733.09 784.73 729.39 786.63C726.384 788.161 723.142 789.175 719.8 789.63C716.42 790.09 712.38 790.32 710.64 793.25C709.21 795.75 710.24 799.03 712.29 800.94Z" fill="#3F3D56"/>
<path d="M712.29 802.06C714.35 803.98 717.18 804.82 719.93 805.41C726.201 806.634 732.55 807.419 738.93 807.76L745.14 808.24C751.14 808.7 757.26 809.16 763.34 809.19C770.843 809.214 778.333 808.565 785.72 807.25C786.06 807.239 786.395 807.156 786.701 807.008C787.008 806.86 787.28 806.649 787.5 806.39C788.083 805.618 788.552 804.766 788.89 803.86C788.76 796.3 786.71 788.76 785.01 781.39C784.31 778.39 778.88 785.15 778.63 785.39C777.13 787.1 775.99 787.89 773.7 788.01C767.45 788.35 760.46 784.55 755.49 781.17C754.429 780.377 753.301 779.678 752.12 779.08C751.251 778.694 750.332 778.432 749.39 778.3C750.19 782.8 756.64 788.23 759.97 789.88C766.7 793.22 774.7 791.56 782.21 791.95C782.758 791.931 783.301 792.062 783.78 792.33C784.68 792.93 784.78 794.2 784.71 795.28C784.65 797.07 784.42 799.18 782.86 800.09C782.084 800.46 781.23 800.638 780.37 800.61C761.863 801.404 743.322 800.735 724.92 798.61C721.835 798.408 718.8 797.733 715.92 796.61C714.033 795.721 712.271 794.588 710.68 793.24C708.27 795.19 710.24 800.15 712.29 802.06Z" fill="#E8EAF2"/>
<path d="M727.76 349.66C727.87 352.59 725.86 358.29 731.35 356.66C734.63 355.71 735.55 351.84 739.7 352.66C743.85 353.48 744.81 358.66 746.22 361.99C747.368 364.652 749.145 366.995 751.399 368.817C753.653 370.639 756.317 371.886 759.16 372.45C760.331 372.725 761.549 372.725 762.72 372.45C765.4 371.68 766.93 368.92 768.02 366.36C768.972 364.196 769.758 361.963 770.37 359.68C770.797 358.071 771.081 356.428 771.22 354.77V354.77C771.305 353.642 771.305 352.508 771.22 351.38C770.72 344.7 766.92 338.61 762.05 334.01C757.18 329.41 751.28 326.08 745.44 322.8C743.537 321.61 741.477 320.691 739.32 320.07C737.192 319.635 735.007 319.544 732.85 319.8C730.01 319.922 727.218 320.577 724.62 321.73C723.556 322.244 722.578 322.918 721.72 323.73C720.501 324.859 719.63 326.313 719.21 327.92C718.16 332.23 720.91 336.12 723.14 339.53C725.15 342.67 727.61 345.88 727.76 349.66Z" fill="#3F3D56"/>
<path opacity="0.1" d="M635.35 412.69C636.52 409.69 641.45 401.55 640.03 398.69C638.55 400.792 637.29 403.041 636.27 405.4C635.34 407.73 636.1 410.8 635.35 412.69Z" fill="black"/>
<path opacity="0.1" d="M723 339.64C720.76 336.23 718 332.34 719.06 328.03C719.575 326.13 720.699 324.45 722.26 323.25C721.897 323.875 721.624 324.548 721.45 325.25C720.39 329.57 723.15 333.45 725.38 336.86C727.38 339.86 729.83 343.11 729.98 346.86C730.09 349.8 728.08 355.5 733.58 353.86C736.85 352.91 737.77 349.03 741.93 349.86C746.09 350.69 747.03 355.86 748.44 359.19C749.588 361.85 751.366 364.192 753.62 366.012C755.874 367.833 758.538 369.078 761.38 369.64C762.551 369.915 763.769 369.915 764.94 369.64C765.544 369.469 766.113 369.191 766.62 368.82C765.78 370.495 764.325 371.781 762.56 372.41C761.389 372.685 760.171 372.685 759 372.41C756.156 371.846 753.491 370.599 751.235 368.777C748.979 366.955 747.2 364.612 746.05 361.95C744.65 358.6 743.73 353.5 739.54 352.62C735.35 351.74 734.46 355.62 731.19 356.62C725.69 358.21 727.7 352.51 727.59 349.62C727.49 345.88 725 342.67 723 339.64Z" fill="black"/>
<path opacity="0.1" d="M721.82 333.8C722.336 334.635 722.901 335.44 723.51 336.21C724.672 337.665 725.971 339.005 727.39 340.21C728.23 340.94 729.1 341.62 730.01 342.27C731.697 343.452 733.468 344.508 735.31 345.43C740.68 348.14 746.5 349.84 752.31 351.51L763.65 354.81C765.04 355.81 767.59 357.76 770.4 359.73C770.827 358.121 771.111 356.478 771.25 354.82V354.82C771.335 353.691 771.335 352.558 771.25 351.43C770.75 344.75 766.95 338.66 762.08 334.06C757.21 329.46 751.31 326.13 745.47 322.85C743.567 321.66 741.507 320.741 739.35 320.12C737.222 319.685 735.037 319.594 732.88 319.85C730.04 319.972 727.248 320.626 724.65 321.78C723.587 322.294 722.608 322.968 721.75 323.78C721.112 324.723 720.623 325.758 720.3 326.85C719.57 329.24 720.55 331.74 721.82 333.8Z" fill="black"/>
<path d="M721.82 333.04C722.336 333.872 722.901 334.673 723.51 335.44C724.666 336.9 725.966 338.24 727.39 339.44C728.221 340.18 729.093 340.875 730 341.52C731.689 342.702 733.46 343.761 735.3 344.69C740.67 347.39 746.49 349.09 752.3 350.77L763.64 354.06C767.64 357.06 780.84 366.87 783.06 365.64C785.69 364.2 771.31 354.02 771.31 354.02L770.65 354.52C772.76 353.2 773.86 350.13 774.33 347.52C775.17 342.77 775.57 337.84 774.45 333.14C773.33 328.44 770.5 323.99 766.2 321.79C764.3 320.79 761.99 320.15 760.61 318.64C760.402 318.419 760.22 318.174 760.07 317.91C759.985 317.786 759.912 317.656 759.85 317.52C759.701 317.106 759.499 316.713 759.25 316.35C758.46 315.44 757.03 315.71 755.84 315.86C755.71 315.86 755.59 315.86 755.46 315.86C755.244 315.875 755.026 315.875 754.81 315.86C750.55 315.96 746.42 313.59 742.11 313.59C737.38 313.59 733.36 316.32 729.2 318.18C728.36 318.56 727.56 318.91 726.81 319.26C723.81 320.66 721.55 322.15 720.31 326.13C719.57 328.47 720.55 330.97 721.82 333.04Z" fill="#0F77FF"/>
<path opacity="0.1" d="M754.79 315.88C754.62 316.186 754.531 316.53 754.53 316.88C754.53 317.171 754.593 317.459 754.716 317.723C754.838 317.987 755.017 318.222 755.24 318.41C755.767 318.78 756.387 318.998 757.03 319.04C757.494 319.101 757.962 319.138 758.43 319.15C759.06 319.203 759.693 319.096 760.27 318.84C760.383 318.779 760.49 318.709 760.59 318.63C760.382 318.409 760.2 318.164 760.05 317.9C759.94 317.98 759.83 317.96 759.41 317.9C758.631 317.855 757.86 317.724 757.11 317.51C756.8 317.423 756.509 317.281 756.25 317.09C755.862 316.767 755.58 316.335 755.44 315.85L754.79 315.88Z" fill="black"/>
<path opacity="0.1" d="M771 353.91C770.388 354.284 769.709 354.532 769 354.64C768.502 354.769 767.993 354.85 767.48 354.88C766.179 354.838 764.906 354.496 763.76 353.88" fill="black"/>
<path opacity="0.1" d="M253.01 340.99H201.28V366.37H253.01V340.99Z" fill="#3F3D56"/>
<path opacity="0.1" d="M253.01 412.24H201.28V437.62H253.01V412.24Z" fill="#3F3D56"/>
<path opacity="0.1" d="M253.01 483.49H201.28V508.87H253.01V483.49Z" fill="#3F3D56"/>
<path opacity="0.1" d="M253.01 554.74H201.28V580.12H253.01V554.74Z" fill="#3F3D56"/>
<path d="M358.42 404.64C359.86 403.72 359.29 401.26 357.8 400.42C356.31 399.58 354.47 399.84 352.8 400.18C352.878 399.754 352.816 399.314 352.624 398.926C352.431 398.538 352.117 398.224 351.73 398.03V397.66C352.73 396.72 352.33 394.72 351.15 393.87C349.97 393.02 348.15 392.97 346.49 393.05C346.598 392.076 346.473 391.09 346.126 390.173C345.778 389.257 345.217 388.437 344.49 387.78C344.208 387.477 343.822 387.291 343.41 387.26C342.48 387.26 342.17 388.51 342.1 389.44C341.905 391.873 341.504 394.285 340.9 396.65L310.59 447.42C307.21 452.3 317.71 437.7 314.33 442.58C312.607 445.265 310.595 447.753 308.33 450C306.299 451.807 304.027 453.325 301.58 454.51C299.946 454.561 298.336 454.107 296.97 453.21C295.257 452.005 293.76 450.521 292.54 448.82C289.897 445.458 287.508 441.905 285.39 438.19C284.649 437.016 284.096 435.734 283.75 434.39C283.29 432.29 283.75 430 282.91 428.03C282.564 427.288 282.127 426.593 281.61 425.96L279.52 423.17C279.515 423.13 279.515 423.09 279.52 423.05C279.28 418.92 275.94 415.75 272.82 413.05C270.16 410.73 267.28 408.31 263.82 407.86C261.94 407.62 260.02 407.98 258.14 407.74C256.61 407.55 255.14 406.97 253.64 406.74C252.175 406.545 250.692 406.514 249.22 406.65L248.59 406.08C251.829 404.708 254.581 402.394 256.49 399.44C257.94 397.1 258.72 394.44 260.06 392.01C261.69 389.08 264.06 386.66 265.95 383.85C270.31 377.18 271.11 368.6 269.35 360.85C267.59 353.1 263.44 346.03 258.57 339.73C249.2 327.61 233.48 323.11 218.68 325.49C217.68 325.64 216.68 325.83 215.73 326.04C213.241 326.564 210.811 327.342 208.48 328.36C205.322 329.644 202.584 331.78 200.57 334.53C200.018 335.33 199.556 336.189 199.19 337.09C198.914 337.772 198.69 338.474 198.52 339.19C198.064 341.358 197.942 343.584 198.16 345.79C198.22 346.54 198.3 347.3 198.39 348.05C198.39 348.43 198.48 348.8 198.53 349.18C198.63 349.93 198.74 350.69 198.84 351.44C199 352.57 199.15 353.7 199.26 354.81C199.345 355.6 199.385 356.395 199.38 357.19C199.38 357.39 199.38 357.58 199.38 357.78C199.349 358.37 199.262 358.956 199.12 359.53C199.04 359.841 198.943 360.148 198.83 360.45C198.478 361.351 198.014 362.204 197.45 362.99C196.684 364.036 195.86 365.038 194.98 365.99L194.13 366.99L193.29 367.99C192.173 369.29 191.154 370.67 190.24 372.12C189.788 372.846 189.384 373.601 189.03 374.38C188.768 374.972 188.541 375.58 188.35 376.2C188.09 377.023 187.913 377.871 187.82 378.73C187.82 378.95 187.77 379.16 187.76 379.38C187.735 379.806 187.735 380.233 187.76 380.66C187.776 381.082 187.823 381.504 187.9 381.92C188.039 382.759 188.287 383.576 188.64 384.35C188.64 384.46 188.75 384.57 188.8 384.67C188.85 384.77 188.91 384.88 188.96 384.99C189.01 385.1 189.17 385.42 189.27 385.63C189.414 385.95 189.521 386.285 189.59 386.63C189.59 386.74 189.59 386.86 189.59 386.98C189.6 387.103 189.6 387.227 189.59 387.35C189.435 388.33 188.922 389.217 188.15 389.84C187.96 390.02 187.75 390.19 187.55 390.36L187.24 390.61L186.61 391.11L186 391.6C185.468 392.046 184.976 392.538 184.53 393.07C179.034 392.77 173.524 393.31 168.19 394.67C166.29 395.284 164.315 395.641 162.32 395.73C161.841 395.774 161.359 395.7 160.916 395.513C160.473 395.327 160.082 395.033 159.78 394.66C159.452 393.929 159.362 393.114 159.52 392.33C159.788 389.06 159.253 385.775 157.96 382.76C157.644 381.876 157.103 381.09 156.39 380.48C156.027 380.188 155.582 380.017 155.117 379.992C154.653 379.967 154.192 380.089 153.8 380.34C155.449 385.683 155.212 391.43 153.13 396.62C152.054 399.063 150.797 401.423 149.37 403.68C147.14 407.47 145.89 411.81 143.91 415.74C146.13 423.25 145.64 431.27 146.8 439.01C147.88 446.23 150.4 453.13 152.93 460.01C154.84 465.18 156.93 470.56 161.05 474.2C162.381 475.532 164.168 476.311 166.05 476.38C167.46 476.21 168.808 475.702 169.98 474.9C171.188 474.239 172.301 473.418 173.29 472.46C173.67 472.064 174.005 471.628 174.29 471.16C174.406 471.816 174.654 472.442 175.02 473C177.4 467.87 180.02 462.85 182.82 457.94C183.656 457.494 184.441 456.957 185.16 456.34C185.21 456.51 185.25 456.69 185.29 456.87C185.17 457.34 185.05 457.82 184.92 458.29C184.79 458.76 184.65 459.19 184.51 459.63C184.37 460.07 184.31 460.29 184.2 460.63C184.09 460.97 183.94 461.41 183.8 461.8L183.32 463.07C183.2 463.37 183.09 463.67 182.96 463.97C182.66 464.7 182.35 465.43 182.01 466.15C182.279 466.282 182.556 466.395 182.84 466.49L183.03 466.55C183.283 466.627 183.54 466.691 183.8 466.74H184.08L184.66 466.8H184.88C184.98 466.8 185.08 466.8 185.18 466.8H185.57C186.268 466.759 186.959 466.638 187.63 466.44C187.76 466.96 187.88 467.49 188.01 468.01C188.983 471.51 189.613 475.097 189.89 478.72C190.07 482.82 189.36 486.98 190.14 491.02C190.55 493.11 191.36 495.12 191.65 497.24C191.846 499.237 191.809 501.251 191.54 503.24C191.087 508.033 190.633 512.826 190.18 517.62C190.137 519.378 189.718 521.107 188.95 522.69C188.27 523.86 187.18 525.2 187.86 526.36C188.986 526.056 190.132 525.836 191.29 525.7C190.87 527.23 190.49 528.76 190.13 530.3C189.777 531.448 189.685 532.661 189.86 533.85C190.1 534.96 190.79 535.96 190.86 537.1C191.03 538.85 189.86 540.4 189.14 542.03C187.42 546.19 189.25 550.88 191.07 555.03L196.45 567.24C197.917 570.573 199.39 573.906 200.87 577.24C202.18 580.24 203.5 583.24 204.76 586.24C210.522 599.93 215.229 614.042 218.84 628.45C218.955 629.102 219.2 629.724 219.56 630.28C220.31 631.28 221.66 631.57 222.76 632.18C226.08 634 226.46 639.45 223.42 641.71C224.05 649.05 218.55 656.14 215.72 662.94C209.2 678.57 210.38 696.18 208.14 712.94L210.67 711.46C210.968 711.598 211.245 711.78 211.49 712C211.43 712.31 211.37 712.62 211.29 712.94C210.949 714.366 210.4 715.734 209.66 717C208.19 719.54 205.94 721.79 205.6 724.7C205.39 726.45 205.93 728.21 205.92 729.98C205.92 730.14 205.92 730.3 205.92 730.47C205.7 730.25 205.36 730.27 204.84 730.67C204.05 731.509 203.501 732.545 203.25 733.67C202.81 734.92 202.46 736.2 202.11 737.48L200.88 742C200.213 744.712 199.33 747.368 198.24 749.94C197.302 751.667 196.519 753.474 195.9 755.34C195.548 756.856 195.41 758.415 195.49 759.97C195.471 761.454 195.687 762.933 196.13 764.35C196.714 765.75 197.584 767.013 198.685 768.059C199.785 769.104 201.091 769.908 202.52 770.42C205.379 771.421 208.373 771.985 211.4 772.09C212.175 772.19 212.961 772.17 213.73 772.03C214.558 771.793 215.33 771.392 216 770.85C220.11 767.85 222.24 762.25 222.61 757.15C222.506 756.1 222.319 755.06 222.05 754.04C222.3 748.49 221.49 742.91 221.92 737.38C222 738.01 222.1 738.63 222.19 739.26C222.523 741.326 222.857 743.396 223.19 745.47C223.129 745.25 223.012 745.05 222.85 744.89C222.131 747.195 222.007 749.644 222.49 752.01C222.957 754.363 223.626 756.672 224.49 758.91L225.82 762.62C226.141 763.737 226.677 764.78 227.4 765.69C228.57 766.97 230.35 767.44 232.03 767.86C235.679 768.917 239.436 769.558 243.23 769.77C243.739 769.829 244.255 769.735 244.71 769.5C244.939 769.324 245.16 769.137 245.37 768.94C245.707 768.693 246.069 768.482 246.45 768.31C248.078 767.455 249.309 765.998 249.88 764.25C250.155 763.378 250.24 762.459 250.132 761.552C250.023 760.645 249.723 759.771 249.25 758.99C248.805 758.328 248.296 757.711 247.73 757.15L241.06 750.08C240.043 748.86 238.951 747.704 237.79 746.62C237.654 746.478 237.485 746.371 237.299 746.308C237.113 746.246 236.914 746.229 236.72 746.26C234.91 741.74 235.14 736.44 235.46 731.48C235.55 730 236.36 726.92 236.69 724.4C237.975 723.98 239.174 723.333 240.23 722.49C241.219 721.747 241.925 720.689 242.23 719.49C245.59 702.29 251.04 685.62 256.13 668.86C256.63 667.21 257.13 665.55 257.62 663.86L258.24 661.74C258.4 661.16 258.58 660.58 258.74 660C259.02 659 259.29 658.05 259.55 657.07C259.63 656.81 259.7 656.54 259.77 656.28C259.774 656.226 259.774 656.173 259.77 656.12C260.1 654.92 260.41 653.72 260.72 652.52L261.08 651.14C261.47 649.61 261.84 648.07 262.21 646.54C262.26 646.33 262.31 646.11 262.35 645.89C262.475 645.347 262.437 644.78 262.24 644.26V644.26C262.134 644.057 262.003 643.869 261.85 643.7C261.75 643.58 261.63 643.45 261.51 643.33L261.14 642.92C260.831 642.542 260.6 642.107 260.46 641.64C260.46 641.17 260.46 640.7 260.46 640.24C260.46 639.78 260.4 639.24 260.37 638.75C260.474 638.094 260.621 637.446 260.81 636.81C260.92 636.43 261.05 636.05 261.17 635.67C261.29 635.29 261.46 634.67 261.62 634.25C262.207 633.586 262.525 632.726 262.51 631.84C263.11 630.33 263.77 628.84 264.51 627.4C265.407 625.928 266.015 624.299 266.3 622.6C266.29 621.062 266.095 619.531 265.72 618.04C264.72 611.7 267.66 605.51 269.84 599.48C271.437 595.052 272.651 590.495 273.47 585.86C274.11 582.29 274.55 578.56 276.47 575.47C277.096 574.607 277.632 573.682 278.07 572.71C278.364 571.686 278.509 570.625 278.5 569.56C278.735 565.248 279.776 561.018 281.57 557.09C281.976 556.336 282.246 555.517 282.37 554.67C282.375 554.613 282.375 554.556 282.37 554.5V554.26L282.87 554.19C283.72 548.81 284.57 542.81 283.99 537.4C283.224 531.124 280.168 525.352 275.41 521.19H275.51C277.19 520.34 277.94 518.31 277.96 516.43C277.967 515.038 277.661 513.663 277.064 512.406C276.466 511.149 275.594 510.043 274.51 509.17C274.029 508.869 273.628 508.458 273.34 507.97C273.178 507.46 273.13 506.92 273.2 506.39C273.201 504.79 272.726 503.227 271.835 501.899C270.945 500.57 269.679 499.537 268.2 498.93C267.894 498.846 267.615 498.684 267.39 498.46C267.15 498.027 267.079 497.521 267.19 497.04C267.285 495.449 266.943 493.863 266.201 492.452C265.459 491.042 264.345 489.862 262.98 489.04C263.533 486.973 263.595 484.805 263.16 482.71C262.56 480.71 260.64 478.84 258.53 479.11C260.25 474.42 257.81 469.2 258.46 464.25C258.74 462.13 259.59 460.09 259.7 457.95C259.8 456.01 259.31 453.95 260.26 452.21C261.21 450.47 263.45 449.21 262.87 447.37C262.62 446.57 261.87 446.03 261.55 445.25C261.23 444.47 262.55 443.25 263.28 443.73C263.61 443.48 263.94 443.21 264.28 442.94C264.387 443.932 264.584 444.913 264.87 445.87C265.34 447.47 266.08 448.98 266.57 450.57C267.33 453 267.57 455.63 268.79 457.86C270.79 461.42 274.86 463.18 277.66 466.14C279.3 467.87 280.47 470 282.16 471.69C283.445 472.885 284.853 473.941 286.36 474.84L295.36 480.68C296.293 481.36 297.334 481.878 298.44 482.21C299.142 482.344 299.864 482.334 300.562 482.179C301.26 482.025 301.919 481.731 302.499 481.313C303.079 480.896 303.568 480.365 303.937 479.752C304.305 479.139 304.544 478.458 304.64 477.75C303.807 477.464 303.048 476.996 302.42 476.38C302.55 476.38 302.68 476.38 302.8 476.32C304.947 475.759 306.933 474.704 308.6 473.24C315.02 468.13 319.6 461.15 324.14 454.29C328.86 447.1 351.6 428.07 351.6 428.07V420.35C354.489 418.674 357.053 416.493 359.17 413.91C360.32 412.515 360.987 410.785 361.07 408.98C361.141 408.069 360.923 407.16 360.447 406.381C359.971 405.602 359.262 404.992 358.42 404.64V404.64ZM169.36 423.13C168.92 425.93 168.383 428.716 167.75 431.49C167.044 434.688 166.146 437.84 165.06 440.93C164.94 441.25 164.82 441.58 164.71 441.93C164.38 441.33 164.06 440.73 163.77 440.12C163.03 438.59 162.44 436.99 161.85 435.4L158.09 425.25C157.6 423.94 157.09 422.41 157.84 421.2C158.378 420.458 159.127 419.897 159.99 419.59C162.638 418.379 165.402 417.441 168.24 416.79C169.139 416.607 170.027 416.373 170.9 416.09C170.174 418.385 169.659 420.741 169.36 423.13V423.13ZM173.52 410.47C173.396 410.244 173.332 409.992 173.332 409.735C173.332 409.478 173.396 409.225 173.52 409C173.808 408.712 174.147 408.482 174.52 408.32C174.619 408.261 174.712 408.194 174.8 408.12L173.52 410.47ZM181.32 399.47C180.209 400.382 179.203 401.415 178.32 402.55C177.361 403.816 176.498 405.153 175.74 406.55C175.863 406.007 175.828 405.441 175.638 404.917C175.449 404.394 175.112 403.937 174.67 403.6C174.316 403.413 173.981 403.192 173.67 402.94C173.344 402.505 173.204 401.958 173.281 401.42C173.357 400.882 173.645 400.396 174.08 400.07C174.972 399.474 176.008 399.129 177.08 399.07L181.57 398.41C181.51 398.7 181.42 399.07 181.32 399.42V399.47ZM223.46 726.06C223.537 724.721 223.45 723.377 223.2 722.06C223.76 722.06 224.31 722.06 224.86 722.01L223.46 726.06Z" fill="url(#paint1_linear)"/>
<path d="M218.88 328.35C211.07 329.6 202.38 332.61 199.39 339.93C197.14 345.46 198.88 351.69 199.46 357.64C199.679 359.208 199.622 360.802 199.29 362.35C198.65 364.86 196.87 366.89 195.16 368.83C192.773 371.295 190.768 374.102 189.21 377.16C187.8 380.29 187.36 384.02 188.81 387.16C189.309 387.961 189.648 388.851 189.81 389.78C189.9 391.78 187.81 393.1 186.21 394.4C180.35 399.25 180.6 408.09 180.55 415.71C180.442 431.27 176.966 446.622 170.36 460.71C172.83 461.966 175.621 462.447 178.369 462.09C181.117 461.733 183.693 460.555 185.76 458.71C184.946 462.182 183.773 465.56 182.26 468.79C187.26 471.19 193.2 467.25 195.69 462.33C198.18 457.41 198.47 451.69 200.24 446.47C202.01 441.25 205.15 436.71 206.49 431.47C206.94 429.73 207.21 427.88 208.27 426.47C209.164 425.425 210.217 424.527 211.39 423.81C216.532 420.08 220.378 414.835 222.39 408.81C228.47 410.15 234.66 411.5 240.85 410.94C247.04 410.38 253.36 407.57 256.63 402.28C258.08 399.94 258.86 397.28 260.2 394.86C261.83 391.93 264.2 389.51 266.09 386.71C270.44 380.05 271.25 371.48 269.48 363.71C267.71 355.94 263.58 348.91 258.71 342.61C249.38 330.47 233.67 325.97 218.88 328.35Z" fill="#303D5C"/>
<path d="M169.59 425.96C169.15 428.76 168.617 431.54 167.99 434.3C167.286 437.495 166.387 440.644 165.3 443.73C164.66 445.083 164.368 446.575 164.45 448.07C164.642 448.986 164.998 449.86 165.5 450.65C169.06 456.98 173.87 463.1 174.28 470.36C174.39 472.17 174.28 474.13 175.28 475.62C178.04 469.7 181.08 463.923 184.4 458.29C187.87 452.39 191.74 446.44 192.74 439.67C193.132 436.489 193.088 433.269 192.61 430.1C192.15 426.54 191.35 422.89 189.18 420.04C186.82 416.95 180.35 412.3 176.18 413.26C171.23 414.42 170.21 421.99 169.59 425.96Z" fill="#0F77FF"/>
<path d="M295.39 460.11C300.06 458.2 304.82 456.18 308.52 452.76C310.79 450.525 312.803 448.043 314.52 445.36L325.52 429.49C328.12 425.73 330.8 421.77 331.36 417.23C337.802 410.447 341.689 401.639 342.36 392.31C342.44 391.38 342.75 390.16 343.68 390.14C344.091 390.17 344.476 390.352 344.76 390.65C345.487 391.307 346.048 392.127 346.396 393.043C346.744 393.96 346.868 394.946 346.76 395.92C348.36 395.84 350.11 395.8 351.41 396.73C352.71 397.66 353.06 399.99 351.66 400.73C352.132 400.87 352.535 401.178 352.794 401.597C353.052 402.016 353.147 402.515 353.06 403C354.74 402.66 356.58 402.39 358.06 403.23C359.54 404.07 360.12 406.53 358.68 407.45C359.517 407.773 360.233 408.348 360.731 409.094C361.228 409.841 361.483 410.723 361.46 411.62C361.376 413.422 360.709 415.149 359.56 416.54C355.35 422.19 347.9 424.48 343.02 429.54C341.41 431.324 339.967 433.252 338.71 435.3L324.55 456.84C320.05 463.69 315.43 470.67 309.01 475.77C307.345 477.232 305.363 478.287 303.22 478.85C302.147 479.115 301.023 479.099 299.958 478.803C298.893 478.507 297.922 477.941 297.14 477.16C295.72 475.55 295.52 473.24 295.37 471.1C295 467.51 295.63 463.76 295.39 460.11Z" fill="#EE8E9E"/>
<path d="M248 759.42C248.563 759.982 249.068 760.598 249.51 761.26C249.984 762.039 250.286 762.91 250.397 763.816C250.507 764.721 250.423 765.639 250.15 766.51C249.573 768.255 248.344 769.709 246.72 770.57C246.34 770.739 245.978 770.946 245.64 771.19C245.43 771.387 245.209 771.574 244.98 771.75C244.524 771.984 244.01 772.081 243.5 772.03C239.708 771.808 235.951 771.168 232.3 770.12C230.62 769.7 228.85 769.22 227.68 767.95C226.958 767.04 226.421 765.997 226.1 764.88L224.77 761.18C223.912 758.943 223.243 756.638 222.77 754.29C222.287 751.927 222.411 749.481 223.13 747.18C223.467 747.586 223.641 748.102 223.62 748.63C224.017 751.121 224.993 753.485 226.47 755.53C226.921 756.326 227.563 756.997 228.338 757.484C229.113 757.971 229.997 758.258 230.91 758.32C233.246 758.827 235.622 759.132 238.01 759.23C238.348 759.271 238.691 759.229 239.01 759.11C239.399 758.893 239.689 758.535 239.82 758.11C240.16 757.166 240.16 756.133 239.82 755.19C239.19 753.39 237.42 752.19 236.57 750.49C235.95 749.22 236.82 747.83 238.1 748.9C239.258 749.983 240.35 751.135 241.37 752.35L248 759.42Z" fill="#303D5C"/>
<path d="M235.7 733.78C235.32 739.78 235.05 746.17 238.32 751.18C239.49 752.98 241.06 754.49 242.4 756.18C243.163 757.02 243.67 758.061 243.86 759.18C244.06 761.37 242 763.24 239.86 763.64C237.72 764.04 235.5 763.38 233.41 762.71C231.436 762.213 229.578 761.337 227.94 760.13C225.1 757.73 224.35 753.73 223.78 750.06L222.45 741.53C222.052 739.485 221.89 737.401 221.97 735.32C222.242 733.022 222.803 730.767 223.64 728.61L225.83 722.2C225.984 721.576 226.335 721.019 226.83 720.61C227.338 720.337 227.918 720.228 228.49 720.3C230.59 720.41 235.86 721.17 236.88 723.39C237.72 725.33 235.85 731.48 235.7 733.78Z" fill="#EE8E9E"/>
<path opacity="0.05" d="M235.7 733.78C235.32 739.78 235.05 746.17 238.32 751.18C239.49 752.98 241.06 754.49 242.4 756.18C243.163 757.02 243.67 758.061 243.86 759.18C244.06 761.37 242 763.24 239.86 763.64C237.72 764.04 235.5 763.38 233.41 762.71C231.436 762.213 229.578 761.337 227.94 760.13C225.1 757.73 224.35 753.73 223.78 750.06L222.45 741.53C222.052 739.485 221.89 737.401 221.97 735.32C222.242 733.022 222.803 730.767 223.64 728.61L225.83 722.2C225.984 721.576 226.335 721.019 226.83 720.61C227.338 720.337 227.918 720.228 228.49 720.3C230.59 720.41 235.86 721.17 236.88 723.39C237.72 725.33 235.85 731.48 235.7 733.78Z" fill="black"/>
<path d="M282.61 557C282.615 557.057 282.615 557.113 282.61 557.17C282.483 558.016 282.213 558.835 281.81 559.59C280.021 563.513 278.979 567.735 278.74 572.04C278.749 573.102 278.604 574.16 278.31 575.18C277.872 576.152 277.336 577.077 276.71 577.94C274.81 581.03 274.37 584.76 273.71 588.32C272.897 592.95 271.682 597.501 270.08 601.92C267.91 607.92 264.98 614.13 265.97 620.46C266.346 621.948 266.541 623.476 266.55 625.01C266.265 626.71 265.657 628.339 264.76 629.81C264.02 631.25 263.36 632.73 262.76 634.24C262.16 635.75 261.55 637.53 261.06 639.24C260.47 641.24 260.06 643.7 261.43 645.34C261.846 645.748 262.215 646.201 262.53 646.69C262.784 647.436 262.784 648.244 262.53 648.99C261.763 652.243 260.937 655.483 260.05 658.71C259.37 661.25 258.65 663.77 257.9 666.29C252.42 684.71 246.21 702.94 242.52 721.81C241.99 724.52 238.52 726.47 235.81 727.06C234.453 727.347 233.048 727.31 231.709 726.952C230.369 726.594 229.133 725.925 228.1 725L227.57 724.47C224.74 721.47 224.33 716.75 224.57 712.53C225.57 693.12 235.3 675.35 239.95 656.48C241.628 649.658 242.633 642.688 242.95 635.67C244.04 612.23 244.47 587.47 237.85 564.96C236.47 560.28 234.85 554.96 237.31 550.79C238.88 548.13 241.78 546.57 244.64 545.43C250.49 543.142 256.739 542.045 263.019 542.205C269.299 542.364 275.483 543.777 281.21 546.36C281.218 546.831 281.202 547.301 281.16 547.77C280.905 549.951 281.155 552.161 281.89 554.23C282.293 555.103 282.537 556.041 282.61 557Z" fill="#303D5C"/>
<path d="M202.36 739.769L201.13 744.279C200.464 746.993 199.582 749.648 198.49 752.219C197.555 753.945 196.772 755.748 196.15 757.609C195.802 759.123 195.667 760.678 195.75 762.229C195.726 763.714 195.942 765.193 196.39 766.609C196.972 768.009 197.841 769.27 198.939 770.314C200.038 771.358 201.343 772.16 202.77 772.669C205.629 773.671 208.623 774.234 211.65 774.339C212.425 774.44 213.211 774.419 213.98 774.279C214.804 774.041 215.573 773.639 216.24 773.099C220.35 770.099 222.48 764.509 222.85 759.419C222.739 758.235 222.505 757.065 222.15 755.93C221.83 755.5 218.72 757.259 220.05 758.719C222.05 760.899 216.25 759.769 213.32 759.589C212.04 759.47 210.77 759.259 209.52 758.959L204.77 757.959C203.22 757.619 201.43 757.089 200.88 755.599C200.33 754.109 201.53 752.339 202.47 750.899C204.95 747.069 205.58 742.369 206.16 737.839C206.27 736.949 207.38 731.189 205.09 732.979C204.3 733.819 203.751 734.855 203.5 735.979C203.06 737.219 202.71 738.499 202.36 739.769Z" fill="#303D5C"/>
<path opacity="0.05" d="M261.44 645.31C260.09 643.67 260.49 641.25 261.07 639.21C261.29 638.45 261.53 637.69 261.78 636.94L243.15 630.64C243.08 632.31 243.01 633.98 242.93 635.64C242.613 642.661 241.608 649.634 239.93 656.46C235.28 675.32 225.5 693.09 224.55 712.46C224.33 716.93 224.81 721.92 228.11 724.93C229.142 725.856 230.379 726.525 231.718 726.883C233.058 727.241 234.463 727.277 235.82 726.99C238.52 726.4 242 724.45 242.53 721.73C246.22 702.87 252.42 684.64 257.91 666.21C259.623 660.49 261.167 654.723 262.54 648.91C262.795 648.168 262.795 647.362 262.54 646.62C262.228 646.14 261.859 645.7 261.44 645.31V645.31Z" fill="black"/>
<path d="M209.94 719.32C208.47 721.85 206.22 724.1 205.88 727.01C205.67 728.76 206.21 730.52 206.2 732.28C206.133 733.74 205.874 735.186 205.43 736.58C203.617 743.133 201.527 749.596 199.16 755.97C198.774 756.79 198.605 757.695 198.67 758.6C198.91 760.1 200.35 761.08 201.75 761.67C206.18 763.57 211.18 763.44 216 763.24C217.394 763.309 218.78 762.987 220 762.31C221.72 761.13 222.15 758.79 222.26 756.7C222.59 750.7 221.57 744.58 222.26 738.56C222.5 736.37 222.96 734.21 223.31 732.03C223.78 729.03 224.02 725.83 223.03 722.93C222.202 720.852 221.051 718.918 219.62 717.2C218.351 715.342 216.743 713.741 214.88 712.48C214.32 712.14 212.7 711.11 212.13 711.76C211.84 712.09 211.97 712.97 211.92 713.38C211.85 714.013 211.739 714.64 211.59 715.26C211.237 716.685 210.681 718.052 209.94 719.32V719.32Z" fill="#EE8E9E"/>
<path opacity="0.05" d="M245.76 564.56C244.89 565.74 245.07 567.38 245.42 568.8C246.04 571.38 247.07 573.8 247.91 576.36C249.285 580.862 250.354 585.453 251.11 590.1C251.9 594.3 253.55 598.98 252.87 603.2C257.954 612.876 261.305 623.368 262.77 634.2C263.15 636.98 256.97 640.58 257.09 643.39C257.32 648.96 261.77 649.39 258.48 653.87C258.32 654.09 259.71 659.07 259.48 659.29C258.14 660.9 256.48 662.18 255.01 663.69C253.161 665.79 251.578 668.111 250.3 670.6C241.8 685.93 229.53 703.33 233.3 720.45C233.384 721.068 233.273 721.697 232.982 722.249C232.692 722.801 232.237 723.248 231.68 723.53C230.563 724.078 229.335 724.362 228.09 724.36H227.5C224.67 721.36 224.26 716.64 224.5 712.42C225.5 693.01 235.23 675.24 239.88 656.37C241.558 649.548 242.563 642.578 242.88 635.56C243.97 612.12 244.4 587.36 237.78 564.85C236.4 560.17 234.78 554.85 237.24 550.68C238.81 548.02 241.71 546.46 244.57 545.32C250.42 543.031 256.669 541.935 262.949 542.094C269.229 542.254 275.414 543.667 281.14 546.25C281.149 546.72 281.132 547.191 281.09 547.66C280.835 549.84 281.085 552.051 281.82 554.12C282.231 555.004 282.479 555.957 282.55 556.93C282.55 556.99 282.89 553.16 282.88 553.21C275.27 554.31 267.33 559.29 259.72 560.38C255.763 560.796 251.866 561.655 248.1 562.94C247.185 563.252 246.375 563.813 245.76 564.56Z" fill="black"/>
<path d="M193.07 523C192.037 526.253 191.137 529.54 190.37 532.86C190.019 534.005 189.923 535.213 190.09 536.4C190.34 537.51 191.03 538.51 191.09 539.65C191.27 541.4 190.09 542.95 189.38 544.58C187.66 548.73 189.49 553.41 191.3 557.52L196.68 569.73L201.1 579.73C202.41 582.73 203.73 585.68 204.99 588.68C210.748 602.35 215.452 616.441 219.06 630.83C219.177 631.484 219.422 632.109 219.78 632.67C220.53 633.67 221.88 633.95 222.98 634.56C226.3 636.38 226.67 641.82 223.64 644.08C224.27 651.41 218.77 658.49 215.94 665.28C209.43 680.89 210.61 698.48 208.37 715.28L210.9 713.81C213.33 714.92 213.24 718.36 214.55 720.69C216.55 724.19 221.3 724.69 225.31 724.42C226.554 724.419 227.782 724.135 228.9 723.59C229.457 723.308 229.912 722.861 230.202 722.309C230.492 721.756 230.604 721.128 230.52 720.51C226.74 703.39 239.01 686 247.52 670.65C248.794 668.161 250.376 665.843 252.23 663.75C253.67 662.23 255.36 660.95 256.7 659.35C260.45 654.85 260.93 648.5 260.7 642.65C260.102 628.88 256.469 615.412 250.06 603.21C250.73 598.99 249.06 594.32 248.3 590.12C247.548 585.486 246.482 580.909 245.11 576.42C244.27 573.89 243.24 571.42 242.62 568.85C242.28 567.43 242.1 565.79 242.96 564.61C243.599 563.879 244.431 563.342 245.36 563.06C249.129 561.748 253.034 560.863 257 560.42L283.16 556.66C284.01 551.29 284.86 545.29 284.28 539.89C283.653 534.884 281.572 530.171 278.294 526.336C275.017 522.5 270.687 519.71 265.84 518.31C264.69 518 263.36 517.8 262.42 518.53C239.306 513.997 215.411 515.537 193.07 523V523Z" fill="#303D5C"/>
<path d="M216.85 381.57C217.226 384.126 216.826 386.735 215.7 389.06C214.918 390.338 213.9 391.454 212.7 392.35C210.171 394.388 207.23 395.852 204.08 396.64C202.22 397.1 200.14 397.42 198.92 398.89C197.08 401.11 198.31 404.46 199.92 406.89C202.63 411.09 206.4 414.89 211.23 416.24C215.09 417.29 219.23 416.64 223.15 417.33C226.01 417.82 228.7 419 231.52 419.68C235.534 420.598 239.713 420.498 243.679 419.391C247.645 418.284 251.272 416.204 254.23 413.34C250.04 410.12 245.69 406.7 243.52 401.88C241.973 398.421 241.683 394.531 242.7 390.88C243.7 387.3 245.97 383.82 245.27 380.18C244.57 376.54 240.97 374.02 237.41 372.79C234.201 371.799 230.902 371.129 227.56 370.79C225.71 370.54 214 367.95 213.27 369.23C212.86 369.95 215.27 374.23 215.59 375.17C216.32 377.231 216.745 379.387 216.85 381.57Z" fill="#EE8E9E"/>
<path d="M231.58 390.11C244.702 390.11 255.34 379.472 255.34 366.35C255.34 353.228 244.702 342.59 231.58 342.59C218.458 342.59 207.82 353.228 207.82 366.35C207.82 379.472 218.458 390.11 231.58 390.11Z" fill="#EE8E9E"/>
<path d="M219 405.62L235.11 408.34C239.06 409.139 243.08 409.544 247.11 409.55C249.315 409.33 251.535 409.33 253.74 409.55C255.26 409.8 256.74 410.38 258.25 410.55C260.13 410.79 262.04 410.43 263.92 410.67C267.42 411.12 270.3 413.54 272.92 415.85C276.03 418.57 279.38 421.74 279.61 425.85C279.664 426.319 279.599 426.793 279.42 427.23C279.118 427.727 278.712 428.154 278.23 428.48C275.23 430.91 273.61 434.54 271.5 437.74C269.326 441.037 266.623 443.953 263.5 446.37C262.8 445.92 261.5 447.11 261.77 447.88C262.04 448.65 262.84 449.2 263.09 450C263.66 451.82 261.41 453.16 260.48 454.83C259.55 456.5 260.02 458.62 259.92 460.57C259.81 462.7 258.92 464.74 258.68 466.86C258.03 471.81 260.47 477.02 258.75 481.7C260.87 481.43 262.75 483.26 263.38 485.3C263.816 487.392 263.751 489.558 263.19 491.62C264.55 492.436 265.66 493.607 266.402 495.009C267.144 496.41 267.489 497.987 267.4 499.57C267.283 500.053 267.358 500.562 267.61 500.99C267.839 501.209 268.117 501.37 268.42 501.46C269.903 502.06 271.171 503.09 272.063 504.418C272.954 505.746 273.427 507.311 273.42 508.91C273.353 509.438 273.404 509.974 273.57 510.48C273.854 510.971 274.252 511.386 274.73 511.69C275.813 512.56 276.686 513.662 277.285 514.916C277.884 516.169 278.193 517.541 278.19 518.93C278.19 520.81 277.41 522.84 275.73 523.69C272.32 525.42 268.66 526.1 264.91 526.91C261.458 527.726 257.962 528.344 254.44 528.76C251.181 529.033 247.91 529.137 244.64 529.07L223.08 528.98C217.08 528.98 210.96 528.98 204.92 528.53C199.28 528.15 193.51 527.44 188.05 528.92C187.37 527.77 188.46 526.42 189.14 525.26C189.907 523.677 190.326 521.948 190.37 520.19L191.73 505.83C191.991 503.84 192.025 501.827 191.83 499.83C191.54 497.72 190.74 495.72 190.33 493.62C189.55 489.62 190.26 485.44 190.08 481.34C189.792 477.722 189.163 474.139 188.2 470.64L184 453.1C183.32 450.27 183 447 181.9 444.29C178.607 435.85 175.163 427.48 171.57 419.18C171.437 418.817 171.385 418.429 171.418 418.044C171.451 417.659 171.568 417.285 171.76 416.95L175.32 410.57C176.274 408.757 177.363 407.018 178.58 405.37C181.581 401.568 185.833 398.954 190.58 397.99C195.346 397.055 200.288 397.786 204.58 400.06C206.24 400.95 207.78 402.06 209.47 402.89C212.32 404.33 215.82 405.84 219 405.62Z" fill="#0F77FF"/>
<path d="M276.2 421.27L281.82 428.75C282.333 429.386 282.769 430.081 283.12 430.82C283.97 432.82 283.5 435.08 283.96 437.18C284.308 438.52 284.861 439.799 285.6 440.97C287.713 444.682 290.1 448.232 292.74 451.59C293.961 453.291 295.462 454.772 297.18 455.97C298.044 456.569 299.028 456.974 300.064 457.157C301.1 457.34 302.163 457.297 303.18 457.03C302.315 457.353 301.602 457.988 301.18 458.81C299.04 463.04 298.88 468.05 299.79 472.71C300.054 474.302 300.581 475.84 301.35 477.26C302.136 478.684 303.406 479.78 304.93 480.35C304.832 481.056 304.59 481.736 304.221 482.346C303.852 482.957 303.363 483.487 302.784 483.903C302.204 484.319 301.546 484.613 300.849 484.767C300.152 484.921 299.431 484.932 298.73 484.8C297.626 484.463 296.585 483.946 295.65 483.27L286.65 477.44C285.151 476.534 283.747 475.478 282.46 474.29C280.78 472.61 279.6 470.48 277.96 468.75C275.17 465.75 271.07 464.03 269.09 460.48C267.86 458.25 267.64 455.62 266.88 453.19C266.38 451.6 265.65 450.1 265.17 448.5C263.69 443.57 264.76 438.14 267.02 433.5C269.28 428.86 272.87 425.21 276.2 421.27Z" fill="#0F77FF"/>
<path d="M255.05 352.81C252.853 349.399 250.014 346.447 246.69 344.12C242.26 340.8 237.15 338.05 231.62 337.74C229.304 337.623 226.989 338.001 224.83 338.85C224.73 332.14 223.06 327.67 218.88 328.35C211.07 329.6 202.38 332.61 199.39 339.93C197.14 345.46 198.88 351.69 199.46 357.64C199.679 359.208 199.622 360.802 199.29 362.35C198.65 364.86 196.87 366.89 195.16 368.83C192.773 371.295 190.768 374.103 189.21 377.16C187.8 380.29 187.36 384.02 188.81 387.16C189.309 387.961 189.648 388.851 189.81 389.78C189.9 391.78 187.81 393.1 186.21 394.4C180.35 399.25 180.6 408.09 180.55 415.71C180.442 431.27 176.966 446.622 170.36 460.71C172.83 461.966 175.621 462.447 178.369 462.091C181.117 461.734 183.693 460.556 185.76 458.71C184.946 462.183 183.773 465.561 182.26 468.79C187.26 471.19 193.2 467.25 195.69 462.33C198.18 457.41 198.47 451.69 200.24 446.47C202.01 441.25 205.15 436.71 206.49 431.47C206.94 429.73 207.21 427.88 208.27 426.47C209.164 425.425 210.217 424.528 211.39 423.81C216.51 420.14 208.98 392.33 210.98 386.35C213.98 387.01 219.42 372.66 222.53 358.07C224.701 358.816 227.015 359.045 229.29 358.74C230.085 358.57 230.899 358.513 231.71 358.57C232.459 358.729 233.173 359.021 233.82 359.43C236.117 360.849 238.521 362.086 241.01 363.13C246.17 365.05 251.84 364.8 257.33 364.52C258.084 360.469 257.269 356.283 255.05 352.81Z" fill="#303D5C"/>
<g opacity="0.1">
<path opacity="0.1" d="M173.15 460.71C179.751 446.62 183.227 431.269 183.34 415.71C183.34 408.09 183.13 399.25 189 394.4C190.56 393.1 192.69 391.81 192.59 389.78C192.433 388.849 192.093 387.959 191.59 387.16C190.13 384.06 190.59 380.33 191.98 377.16C193.541 374.105 195.546 371.298 197.93 368.83C199.64 366.89 201.43 364.83 202.07 362.35C202.396 360.801 202.454 359.208 202.24 357.64C201.66 351.64 199.91 345.46 202.17 339.93C205.06 332.84 213.29 329.8 220.9 328.48C220.255 328.268 219.567 328.223 218.9 328.35C211.09 329.6 202.4 332.61 199.41 339.93C197.16 345.46 198.9 351.69 199.48 357.64C199.699 359.208 199.641 360.802 199.31 362.35C198.67 364.86 196.89 366.89 195.18 368.83C192.793 371.295 190.787 374.103 189.23 377.16C187.82 380.29 187.38 384.02 188.83 387.16C189.328 387.961 189.668 388.851 189.83 389.78C189.92 391.78 187.83 393.1 186.23 394.4C180.37 399.25 180.62 408.09 180.57 415.71C180.462 431.27 176.986 446.622 170.38 460.71C172.704 461.911 175.329 462.402 177.93 462.12C176.26 461.964 174.637 461.486 173.15 460.71Z" fill="black"/>
<path opacity="0.1" d="M185.05 468.77C186.56 465.541 187.729 462.162 188.54 458.69C187.541 459.614 186.4 460.37 185.16 460.93C184.407 463.619 183.433 466.241 182.25 468.77C183.678 469.453 185.286 469.66 186.84 469.36C186.221 469.241 185.619 469.043 185.05 468.77Z" fill="black"/>
<path opacity="0.1" d="M227.63 338.85C229.077 338.279 230.6 337.922 232.15 337.79L231.62 337.74C230.279 337.672 228.935 337.773 227.62 338.04C227.61 338.31 227.63 338.57 227.63 338.85Z" fill="black"/>
<path opacity="0.1" d="M243.8 363.05C241.308 362.003 238.901 360.766 236.6 359.35C235.955 358.937 235.24 358.645 234.49 358.49C233.75 358.427 233.005 358.474 232.28 358.63C232.813 358.816 233.326 359.058 233.81 359.35C236.107 360.768 238.511 362.005 241 363.05C244.882 364.326 248.971 364.855 253.05 364.61C249.901 364.607 246.775 364.079 243.8 363.05Z" fill="black"/>
<path opacity="0.1" d="M225.32 357.99C225.27 358.2 225.22 358.41 225.18 358.63C226.348 358.805 227.534 358.835 228.71 358.72C227.556 358.607 226.418 358.362 225.32 357.99V357.99Z" fill="black"/>
</g>
<path d="M175.86 468.15C176.003 469.407 175.868 470.679 175.465 471.878C175.063 473.078 174.402 474.174 173.53 475.09C172.542 476.046 171.428 476.863 170.22 477.52C169.05 478.326 167.701 478.834 166.29 479C164.406 478.936 162.618 478.157 161.29 476.82C157.16 473.19 155.09 467.82 153.18 462.65C150.65 455.82 148.13 448.92 147.05 441.71C145.89 433.98 146.38 425.97 144.17 418.47C146.17 414.54 147.39 410.21 149.62 406.42C151.043 404.164 152.3 401.808 153.38 399.37C155.451 394.186 155.67 388.446 154 383.12C154.392 382.863 154.855 382.739 155.323 382.764C155.79 382.789 156.238 382.963 156.6 383.26C157.315 383.864 157.857 384.648 158.17 385.53C159.454 388.54 159.987 391.818 159.72 395.08C159.567 395.87 159.665 396.688 160 397.42C160.307 397.788 160.698 398.078 161.14 398.264C161.582 398.45 162.062 398.528 162.54 398.49C164.532 398.397 166.503 398.037 168.4 397.42C174.298 395.921 180.406 395.418 186.47 395.93C187.691 395.965 188.89 396.258 189.99 396.79C190.538 397.063 190.998 397.485 191.32 398.006C191.641 398.527 191.811 399.127 191.81 399.74L177.36 401.85C176.288 401.905 175.251 402.251 174.36 402.85C174.14 403.006 173.953 403.206 173.812 403.436C173.671 403.666 173.578 403.923 173.539 404.19C173.5 404.457 173.515 404.73 173.584 404.991C173.653 405.252 173.774 405.497 173.94 405.71C174.253 405.963 174.587 406.187 174.94 406.38C175.296 406.669 175.581 407.036 175.773 407.453C175.965 407.87 176.059 408.326 176.048 408.784C176.036 409.243 175.919 409.693 175.707 410.1C175.494 410.506 175.19 410.859 174.82 411.13C174.444 411.286 174.104 411.518 173.82 411.81C173.23 412.6 174.02 413.65 174.26 414.61C174.37 415.315 174.264 416.036 173.955 416.679C173.646 417.322 173.149 417.856 172.53 418.21C171.285 418.889 169.931 419.345 168.53 419.56C165.691 420.211 162.926 421.153 160.28 422.37C159.416 422.67 158.666 423.229 158.13 423.97C157.42 425.18 157.89 426.71 158.38 428.02L162.14 438.16C162.73 439.75 163.32 441.34 164.06 442.86C165.06 444.86 166.2 446.72 167.18 448.69C168.058 450.543 168.842 452.438 169.53 454.37C171.43 459.57 175.22 462.67 175.86 468.15Z" fill="#EE8E9E"/>
<path d="M342.93 399.87C342.127 400.467 341.546 401.315 341.28 402.28C341.225 402.477 341.232 402.687 341.3 402.88C341.368 403.073 341.494 403.24 341.66 403.36C341.878 403.43 342.112 403.43 342.33 403.36C343.399 403.156 344.398 402.681 345.23 401.98C344.899 402.157 344.604 402.394 344.36 402.68C344.244 402.828 344.171 403.006 344.152 403.194C344.133 403.382 344.166 403.571 344.25 403.74C344.366 403.883 344.511 404.001 344.674 404.087C344.837 404.173 345.016 404.225 345.2 404.24C346.594 404.494 348.027 404.426 349.39 404.04C348.751 404.265 348.158 404.604 347.64 405.04C347.386 405.265 347.185 405.542 347.05 405.853C346.916 406.164 346.851 406.501 346.86 406.84C346.857 406.969 346.884 407.098 346.937 407.215C346.991 407.333 347.07 407.437 347.17 407.52C347.311 407.603 347.468 407.657 347.63 407.68C348.917 407.905 350.233 407.905 351.52 407.68C351.855 407.664 352.181 407.564 352.468 407.39C352.754 407.215 352.992 406.971 353.16 406.68C353.226 406.357 353.227 406.024 353.162 405.701C353.096 405.378 352.966 405.072 352.78 404.8C352.076 403.314 351.733 401.683 351.78 400.04C351.823 399.7 351.775 399.355 351.64 399.04C351.423 398.744 351.119 398.523 350.77 398.41C349.39 397.8 347.53 396.96 345.99 397.46C344.82 398.052 343.78 398.871 342.93 399.87V399.87Z" fill="#EE8E9E"/>
<path d="M374.58 367.88L326.86 393.7C326.699 393.79 326.567 393.923 326.477 394.084C326.387 394.245 326.343 394.427 326.35 394.611C326.357 394.796 326.415 394.974 326.518 395.127C326.62 395.281 326.763 395.403 326.93 395.48L335.07 398.55C335.305 398.638 335.521 398.772 335.705 398.943C335.888 399.115 336.036 399.321 336.14 399.55L342.47 412.55C342.59 413.13 343.65 413.28 343.66 412.7L342.66 401.93C342.718 401.134 343.022 400.376 343.53 399.76L368.27 375.52C368.339 375.45 368.425 375.398 368.519 375.37C368.614 375.342 368.714 375.339 368.81 375.36C368.903 375.383 368.989 375.428 369.06 375.493C369.131 375.558 369.184 375.639 369.215 375.73C369.246 375.821 369.253 375.918 369.237 376.012C369.22 376.106 369.18 376.195 369.12 376.27L347.83 402.42C347.378 403.057 347.089 403.795 346.99 404.57L345.72 413.87C345.82 414.68 346.46 414.99 346.97 414.26L351.57 408.87C351.723 408.67 351.947 408.535 352.195 408.492C352.443 408.45 352.699 408.502 352.91 408.64L364.76 417.27C364.893 417.354 365.043 417.405 365.2 417.42C365.356 417.434 365.513 417.412 365.659 417.355C365.805 417.297 365.936 417.206 366.04 417.089C366.145 416.972 366.22 416.832 366.26 416.68L376 368.96C376.031 368.781 376.012 368.597 375.946 368.427C375.88 368.258 375.769 368.109 375.625 367.998C375.481 367.887 375.31 367.817 375.129 367.797C374.949 367.776 374.766 367.805 374.6 367.88H374.58Z" fill="#0F77FF"/>
<path d="M917.08 814.83C949.924 814.83 976.55 809.708 976.55 803.39C976.55 797.072 949.924 791.95 917.08 791.95C884.236 791.95 857.61 797.072 857.61 803.39C857.61 809.708 884.236 814.83 917.08 814.83Z" fill="#0F77FF"/>
<path d="M916.09 807.59C919.912 807.59 923.01 803.533 923.01 798.53C923.01 793.526 919.912 789.47 916.09 789.47C912.268 789.47 909.17 793.526 909.17 798.53C909.17 803.533 912.268 807.59 916.09 807.59Z" fill="#3F3D56"/>
<path d="M916.09 796.52C919.912 796.52 923.01 792.464 923.01 787.46C923.01 782.457 919.912 778.4 916.09 778.4C912.268 778.4 909.17 782.457 909.17 787.46C909.17 792.464 912.268 796.52 916.09 796.52Z" fill="#3F3D56"/>
<path d="M916.09 785.44C919.912 785.44 923.01 781.384 923.01 776.38C923.01 771.377 919.912 767.32 916.09 767.32C912.268 767.32 909.17 771.377 909.17 776.38C909.17 781.384 912.268 785.44 916.09 785.44Z" fill="#3F3D56"/>
<path d="M916.09 774.36C919.912 774.36 923.01 770.304 923.01 765.3C923.01 760.297 919.912 756.24 916.09 756.24C912.268 756.24 909.17 760.297 909.17 765.3C909.17 770.304 912.268 774.36 916.09 774.36Z" fill="#3F3D56"/>
<path d="M916.09 763.28C919.912 763.28 923.01 759.224 923.01 754.22C923.01 749.216 919.912 745.16 916.09 745.16C912.268 745.16 909.17 749.216 909.17 754.22C909.17 759.224 912.268 763.28 916.09 763.28Z" fill="#3F3D56"/>
<path d="M916.09 752.21C919.912 752.21 923.01 748.154 923.01 743.15C923.01 738.146 919.912 734.09 916.09 734.09C912.268 734.09 909.17 738.146 909.17 743.15C909.17 748.154 912.268 752.21 916.09 752.21Z" fill="#3F3D56"/>
<path d="M916.09 741.13C919.912 741.13 923.01 737.073 923.01 732.07C923.01 727.066 919.912 723.01 916.09 723.01C912.268 723.01 909.17 727.066 909.17 732.07C909.17 737.073 912.268 741.13 916.09 741.13Z" fill="#3F3D56"/>
<path d="M942 656.26C942.942 655.054 943.804 653.788 944.58 652.47L926.38 649.47L946.06 649.62C947.945 645.512 948.972 641.063 949.081 636.545C949.189 632.027 948.376 627.534 946.69 623.34L920.3 637.03L944.64 619.14C942.363 615.192 939.297 611.755 935.633 609.044C931.968 606.333 927.785 604.407 923.343 603.385C918.901 602.363 914.296 602.267 909.816 603.104C905.335 603.941 901.075 605.692 897.302 608.248C893.528 610.805 890.322 614.111 887.883 617.962C885.444 621.812 883.825 626.124 883.127 630.629C882.429 635.133 882.666 639.732 883.825 644.141C884.983 648.549 887.038 652.671 889.86 656.25C888.396 658.114 887.129 660.125 886.08 662.25L909.7 674.52L884.52 666.07C882.752 671.296 882.315 676.879 883.247 682.316C884.179 687.753 886.452 692.872 889.86 697.21C886.015 702.102 883.624 707.977 882.959 714.163C882.295 720.35 883.385 726.598 886.105 732.195C888.824 737.791 893.063 742.51 898.337 745.811C903.611 749.112 909.708 750.863 915.93 750.863C922.152 750.863 928.249 749.112 933.523 745.811C938.797 742.51 943.036 737.791 945.756 732.195C948.475 726.598 949.565 720.35 948.901 714.163C948.237 707.977 945.845 702.102 942 697.21C946.59 691.363 949.085 684.144 949.085 676.71C949.085 669.276 946.59 662.057 942 656.21V656.26Z" fill="#0F77FF"/>
<path opacity="0.1" d="M882.78 676.769C882.766 684.206 885.264 691.43 889.87 697.269C886.025 702.161 883.634 708.036 882.969 714.223C882.305 720.409 883.395 726.658 886.115 732.254C888.834 737.851 893.073 742.569 898.347 745.87C903.621 749.171 909.718 750.922 915.94 750.922C922.162 750.922 928.259 749.171 933.533 745.87C938.807 742.569 943.046 737.851 945.766 732.254C948.485 726.658 949.575 720.409 948.911 714.223C948.247 708.036 945.855 702.161 942.01 697.269C946.45 691.629 882.78 673.049 882.78 676.769Z" fill="black"/>
<path d="M358.05 779.3C376.8 779.3 392 776.377 392 772.77C392 769.164 376.8 766.24 358.05 766.24C339.3 766.24 324.1 769.164 324.1 772.77C324.1 776.377 339.3 779.3 358.05 779.3Z" fill="#0F77FF"/>
<path d="M358.62 775.16C360.801 775.16 362.57 772.846 362.57 769.99C362.57 767.135 360.801 764.82 358.62 764.82C356.438 764.82 354.67 767.135 354.67 769.99C354.67 772.846 356.438 775.16 358.62 775.16Z" fill="#3F3D56"/>
<path d="M358.62 768.84C360.801 768.84 362.57 766.525 362.57 763.67C362.57 760.815 360.801 758.5 358.62 758.5C356.438 758.5 354.67 760.815 354.67 763.67C354.67 766.525 356.438 768.84 358.62 768.84Z" fill="#3F3D56"/>
<path d="M358.62 762.51C360.801 762.51 362.57 760.195 362.57 757.34C362.57 754.485 360.801 752.17 358.62 752.17C356.438 752.17 354.67 754.485 354.67 757.34C354.67 760.195 356.438 762.51 358.62 762.51Z" fill="#3F3D56"/>
<path d="M358.62 756.19C360.801 756.19 362.57 753.875 362.57 751.02C362.57 748.164 360.801 745.85 358.62 745.85C356.438 745.85 354.67 748.164 354.67 751.02C354.67 753.875 356.438 756.19 358.62 756.19Z" fill="#3F3D56"/>
<path d="M358.62 749.859C360.801 749.859 362.57 747.545 362.57 744.69C362.57 741.834 360.801 739.52 358.62 739.52C356.438 739.52 354.67 741.834 354.67 744.69C354.67 747.545 356.438 749.859 358.62 749.859Z" fill="#3F3D56"/>
<path d="M358.62 743.54C360.801 743.54 362.57 741.225 362.57 738.37C362.57 735.515 360.801 733.2 358.62 733.2C356.438 733.2 354.67 735.515 354.67 738.37C354.67 741.225 356.438 743.54 358.62 743.54Z" fill="#3F3D56"/>
<path d="M358.62 737.22C360.801 737.22 362.57 734.905 362.57 732.05C362.57 729.195 360.801 726.88 358.62 726.88C356.438 726.88 354.67 729.195 354.67 732.05C354.67 734.905 356.438 737.22 358.62 737.22Z" fill="#3F3D56"/>
<path d="M343.82 688.77C343.28 688.082 342.789 687.357 342.35 686.6L352.73 684.9L341.5 684.98C340.425 682.635 339.839 680.096 339.777 677.517C339.715 674.938 340.179 672.374 341.14 669.98L356.21 677.8L342.31 667.58C343.607 665.318 345.356 663.349 347.449 661.794C349.542 660.24 351.933 659.135 354.473 658.547C357.012 657.959 359.646 657.902 362.209 658.38C364.772 658.857 367.208 659.858 369.367 661.32C371.525 662.783 373.358 664.675 374.751 666.878C376.144 669.082 377.067 671.549 377.462 674.126C377.858 676.703 377.717 679.333 377.049 681.853C376.381 684.373 375.2 686.728 373.58 688.77C374.426 689.836 375.15 690.993 375.74 692.22L362.26 699.22L376.64 694.42C377.3 696.379 377.638 698.433 377.64 700.5C377.645 704.746 376.215 708.87 373.58 712.2C375.776 714.992 377.142 718.346 377.522 721.878C377.901 725.41 377.28 728.978 375.727 732.173C374.175 735.368 371.755 738.063 368.744 739.947C365.733 741.832 362.252 742.832 358.7 742.832C355.148 742.832 351.667 741.832 348.656 739.947C345.645 738.063 343.225 735.368 341.673 732.173C340.121 728.978 339.499 725.41 339.878 721.878C340.258 718.346 341.624 714.992 343.82 712.2C341.196 708.863 339.77 704.74 339.77 700.495C339.77 696.25 341.196 692.128 343.82 688.79V688.77Z" fill="#0F77FF"/>
<path opacity="0.1" d="M377.64 700.48C377.645 704.727 376.215 708.85 373.58 712.18C375.776 714.973 377.142 718.327 377.522 721.859C377.901 725.391 377.28 728.958 375.727 732.153C374.175 735.349 371.755 738.043 368.744 739.928C365.733 741.813 362.252 742.812 358.7 742.812C355.148 742.812 351.667 741.813 348.656 739.928C345.645 738.043 343.225 735.349 341.673 732.153C340.121 728.958 339.499 725.391 339.878 721.859C340.258 718.327 341.624 714.973 343.82 712.18C341.28 708.96 377.64 698.35 377.64 700.48Z" fill="black"/>
<path d="M105.17 724.64C117.779 724.64 128 722.675 128 720.25C128 717.826 117.779 715.86 105.17 715.86C92.5614 715.86 82.3401 717.826 82.3401 720.25C82.3401 722.675 92.5614 724.64 105.17 724.64Z" fill="#0F77FF"/>
<path d="M105.56 721.87C107.029 721.87 108.22 720.312 108.22 718.39C108.22 716.468 107.029 714.91 105.56 714.91C104.091 714.91 102.9 716.468 102.9 718.39C102.9 720.312 104.091 721.87 105.56 721.87Z" fill="#3F3D56"/>
<path d="M105.56 717.62C107.029 717.62 108.22 716.062 108.22 714.14C108.22 712.218 107.029 710.66 105.56 710.66C104.091 710.66 102.9 712.218 102.9 714.14C102.9 716.062 104.091 717.62 105.56 717.62Z" fill="#3F3D56"/>
<path d="M105.56 713.36C107.029 713.36 108.22 711.802 108.22 709.88C108.22 707.958 107.029 706.4 105.56 706.4C104.091 706.4 102.9 707.958 102.9 709.88C102.9 711.802 104.091 713.36 105.56 713.36Z" fill="#3F3D56"/>
<path d="M105.56 709.11C107.029 709.11 108.22 707.552 108.22 705.63C108.22 703.708 107.029 702.15 105.56 702.15C104.091 702.15 102.9 703.708 102.9 705.63C102.9 707.552 104.091 709.11 105.56 709.11Z" fill="#3F3D56"/>
<path d="M105.56 704.86C107.029 704.86 108.22 703.302 108.22 701.38C108.22 699.458 107.029 697.9 105.56 697.9C104.091 697.9 102.9 699.458 102.9 701.38C102.9 703.302 104.091 704.86 105.56 704.86Z" fill="#3F3D56"/>
<path d="M105.56 700.61C107.029 700.61 108.22 699.052 108.22 697.13C108.22 695.208 107.029 693.65 105.56 693.65C104.091 693.65 102.9 695.208 102.9 697.13C102.9 699.052 104.091 700.61 105.56 700.61Z" fill="#3F3D56"/>
<path d="M105.56 696.36C107.029 696.36 108.22 694.802 108.22 692.88C108.22 690.958 107.029 689.4 105.56 689.4C104.091 689.4 102.9 690.958 102.9 692.88C102.9 694.802 104.091 696.36 105.56 696.36Z" fill="#3F3D56"/>
<path d="M95.6101 663.78C95.2381 663.321 94.9037 662.833 94.6101 662.32L101.61 661.18H94.0601C93.3336 659.606 92.9367 657.9 92.8937 656.166C92.8507 654.433 93.1626 652.709 93.8101 651.1L103.94 656.42L94.5901 649.55C95.4575 648.022 96.632 646.689 98.0396 645.637C99.4473 644.584 101.058 643.835 102.769 643.436C104.481 643.036 106.257 642.996 107.985 643.316C109.713 643.637 111.356 644.312 112.81 645.299C114.264 646.286 115.498 647.563 116.435 649.05C117.371 650.538 117.989 652.203 118.251 653.941C118.512 655.679 118.41 657.452 117.952 659.149C117.494 660.846 116.69 662.43 115.59 663.8C116.154 664.52 116.64 665.298 117.04 666.12L108 670.81L117.66 667.57C118.108 668.884 118.335 670.263 118.33 671.65C118.334 674.505 117.375 677.277 115.61 679.52C117.093 681.398 118.016 683.656 118.275 686.035C118.534 688.413 118.118 690.817 117.075 692.97C116.031 695.123 114.402 696.939 112.375 698.21C110.347 699.48 108.003 700.154 105.61 700.154C103.217 700.154 100.873 699.48 98.8455 698.21C96.8179 696.939 95.1891 695.123 94.1456 692.97C93.1021 690.817 92.686 688.413 92.945 686.035C93.204 683.656 94.1276 681.398 95.6101 679.52C93.842 677.278 92.8805 674.506 92.8805 671.65C92.8805 668.795 93.842 666.023 95.6101 663.78V663.78Z" fill="#0F77FF"/>
<path opacity="0.1" d="M118.34 671.65C118.343 674.504 117.385 677.277 115.62 679.52C117.102 681.398 118.026 683.655 118.285 686.034C118.544 688.413 118.128 690.816 117.084 692.969C116.041 695.123 114.412 696.938 112.385 698.209C110.357 699.479 108.013 700.153 105.62 700.153C103.227 700.153 100.883 699.479 98.8552 698.209C96.8277 696.938 95.1989 695.123 94.1554 692.969C93.1118 690.816 92.6957 688.413 92.9548 686.034C93.2138 683.655 94.1374 681.398 95.6199 679.52C93.8999 677.36 118.34 670.22 118.34 671.65Z" fill="black"/>
</g>
<defs>
<linearGradient id="paint0_linear" x1="709.49" y1="808.07" x2="709.49" y2="311.01" gradientUnits="userSpaceOnUse">
<stop stop-color="#808080" stop-opacity="0.25"/>
<stop offset="0.54" stop-color="#808080" stop-opacity="0.12"/>
<stop offset="1" stop-color="#808080" stop-opacity="0.1"/>
</linearGradient>
<linearGradient id="paint1_linear" x1="38991.8" y1="264652" x2="86187.9" y2="264652" gradientUnits="userSpaceOnUse">
<stop stop-color="#808080" stop-opacity="0.25"/>
<stop offset="0.54" stop-color="#808080" stop-opacity="0.12"/>
<stop offset="1" stop-color="#808080" stop-opacity="0.1"/>
</linearGradient>
<clipPath id="clip0">
<rect width="1130" height="814.83" fill="white"/>
</clipPath>
</defs>
</svg>
