<svg width="1111" height="858" viewBox="0 0 1111 858" fill="none" xmlns="http://www.w3.org/2000/svg">
<g clip-path="url(#clip0)">
<path opacity="0.1" d="M346.73 857.68C477.898 857.68 584.23 841.562 584.23 821.68C584.23 801.797 477.898 785.68 346.73 785.68C215.562 785.68 109.23 801.797 109.23 821.68C109.23 841.562 215.562 857.68 346.73 857.68Z" fill="#0F77FF"/>
<path opacity="0.1" d="M342.89 37.8399C380.56 4.6399 439.7 -2.1601 493.54 0.5199C662.62 8.8399 815.23 89.5099 947.28 180.78C995.08 213.83 1042.14 249.43 1073.16 294.94C1136.32 387.56 1117.58 515.88 1029.76 592.18C999.88 618.18 963.66 638.05 926.48 655.69C860.36 687.06 789.02 712.24 713.98 719.41C660.47 724.52 606.3 720.36 553.1 713.23C404.46 693.31 258.56 649.23 136.28 573.86C82.6499 540.84 32.0999 499.7 9.98986 446.21C-12.1201 392.72 1.98986 324.94 56.7999 293.29C79.4499 280.19 106.53 274.29 133.04 268.72C172.04 260.55 211.72 252.49 246.94 235.88C283.31 218.71 326.38 185.52 319.18 147.54C311.45 106.77 305.23 70.9799 342.89 37.8399Z" fill="#0F77FF"/>
<path d="M920.83 88.4602C927.59 133.02 908.78 172.83 908.78 172.83C908.78 172.83 879.01 140.4 872.23 95.8401C868.44 70.8401 872.69 47.3602 877.15 31.5402C877.712 29.4857 878.859 27.6387 880.452 26.2236C882.044 24.8085 884.012 23.886 886.119 23.5683C888.225 23.2507 890.378 23.5514 892.317 24.4339C894.256 25.3165 895.896 26.743 897.04 28.5402C906.01 42.3002 917.04 63.4702 920.83 88.4602Z" fill="#0F77FF"/>
<path d="M1046.53 159.48C1053.23 159.449 1059.9 160.293 1066.38 161.99C1077.29 164.79 1077.46 180.24 1066.61 183.28C1060.17 185.115 1053.52 186.103 1046.82 186.22C1022.29 186.49 1002.26 173.33 1002.26 173.33C1002.26 173.33 1022 159.75 1046.53 159.48Z" fill="#0F77FF"/>
<path d="M977.55 91.7396C954.72 116.83 949.89 149.62 949.89 149.62C949.89 149.62 982.07 141.72 1004.89 116.62C1015.47 104.99 1022.19 91.7096 1026.35 80.8096C1027.14 78.7462 1027.29 76.4934 1026.78 74.3445C1026.27 72.1955 1025.12 70.25 1023.49 68.761C1021.86 67.2721 1019.82 66.3087 1017.63 65.9963C1015.44 65.6839 1013.21 66.037 1011.23 67.0096C1000.71 72.1796 988.13 80.1096 977.55 91.7396Z" fill="#0F77FF"/>
<path d="M1005.66 87.0098H531.26C520.325 87.0098 511.46 95.8745 511.46 106.81V686.18C511.46 697.115 520.325 705.98 531.26 705.98H1005.66C1016.6 705.98 1025.46 697.115 1025.46 686.18V106.81C1025.46 95.8745 1016.6 87.0098 1005.66 87.0098Z" fill="#5B5881"/>
<path d="M981.12 149.45H555.8V643.54H981.12V149.45Z" fill="white"/>
<path d="M768.46 694.219C778.456 694.219 786.56 686.116 786.56 676.12C786.56 666.123 778.456 658.02 768.46 658.02C758.464 658.02 750.36 666.123 750.36 676.12C750.36 686.116 758.464 694.219 768.46 694.219Z" fill="white"/>
<path d="M768.46 131.76C766.769 131.76 765.116 131.259 763.71 130.319C762.304 129.38 761.208 128.044 760.561 126.482C759.914 124.92 759.744 123.201 760.074 121.542C760.404 119.884 761.218 118.36 762.414 117.164C763.61 115.969 765.133 115.154 766.792 114.824C768.45 114.495 770.17 114.664 771.732 115.311C773.294 115.958 774.629 117.054 775.569 118.46C776.508 119.866 777.01 121.519 777.01 123.21C777.005 125.476 776.102 127.648 774.5 129.25C772.898 130.852 770.726 131.755 768.46 131.76V131.76Z" fill="white"/>
<path d="M768.46 115.16C770.052 115.16 771.608 115.632 772.932 116.517C774.256 117.401 775.288 118.659 775.897 120.13C776.506 121.601 776.666 123.219 776.355 124.781C776.045 126.342 775.278 127.777 774.152 128.902C773.026 130.028 771.592 130.795 770.03 131.106C768.469 131.416 766.85 131.257 765.379 130.648C763.908 130.038 762.651 129.006 761.767 127.683C760.882 126.359 760.41 124.802 760.41 123.21C760.413 121.076 761.261 119.03 762.771 117.521C764.28 116.012 766.326 115.163 768.46 115.16ZM768.46 114.16C766.668 114.15 764.913 114.673 763.418 115.661C761.924 116.65 760.756 118.059 760.063 119.712C759.371 121.365 759.184 123.186 759.528 124.945C759.871 126.704 760.729 128.321 761.993 129.592C763.257 130.862 764.869 131.729 766.626 132.083C768.383 132.436 770.205 132.26 771.862 131.576C773.518 130.893 774.934 129.733 775.931 128.243C776.928 126.754 777.46 125.002 777.46 123.21C777.466 122.024 777.239 120.848 776.789 119.751C776.34 118.653 775.678 117.655 774.842 116.814C774.005 115.973 773.011 115.306 771.916 114.85C770.82 114.395 769.646 114.16 768.46 114.16V114.16Z" fill="white"/>
<path d="M659.47 302.51H579.86C577.485 302.51 575.56 304.435 575.56 306.81V418.13C575.56 420.505 577.485 422.43 579.86 422.43H659.47C661.845 422.43 663.77 420.505 663.77 418.13V306.81C663.77 304.435 661.845 302.51 659.47 302.51Z" fill="#C8DDFA" stroke="#0F77FF" stroke-miterlimit="10"/>
<path d="M648.36 332.73H590.97C587.027 332.73 583.83 335.927 583.83 339.87V363.64C583.83 367.584 587.027 370.78 590.97 370.78H648.36C652.303 370.78 655.5 367.584 655.5 363.64V339.87C655.5 335.927 652.303 332.73 648.36 332.73Z" fill="white"/>
<path d="M638.85 386.3H600.48C599.547 386.3 598.79 387.056 598.79 387.99V390.52C598.79 391.453 599.547 392.21 600.48 392.21H638.85C639.783 392.21 640.54 391.453 640.54 390.52V387.99C640.54 387.056 639.783 386.3 638.85 386.3Z" fill="#0F77FF"/>
<path d="M808.6 302.51H728.99C726.615 302.51 724.69 304.435 724.69 306.81V418.13C724.69 420.505 726.615 422.43 728.99 422.43H808.6C810.975 422.43 812.9 420.505 812.9 418.13V306.81C812.9 304.435 810.975 302.51 808.6 302.51Z" fill="#C8DDFA" stroke="#0F77FF" stroke-miterlimit="10"/>
<path d="M788.7 321.24H749.35C748.544 321.24 747.89 321.894 747.89 322.7V342.22C747.89 343.027 748.544 343.68 749.35 343.68H788.7C789.506 343.68 790.16 343.027 790.16 342.22V322.7C790.16 321.894 789.506 321.24 788.7 321.24Z" fill="white"/>
<path d="M793.98 364.71H743.4C742.467 364.71 741.71 365.467 741.71 366.4V368.93C741.71 369.863 742.467 370.62 743.4 370.62H793.98C794.913 370.62 795.67 369.863 795.67 368.93V366.4C795.67 365.467 794.913 364.71 793.98 364.71Z" fill="#0F77FF"/>
<path d="M793.98 375.73H743.4C742.467 375.73 741.71 376.487 741.71 377.42V379.95C741.71 380.884 742.467 381.64 743.4 381.64H793.98C794.913 381.64 795.67 380.884 795.67 379.95V377.42C795.67 376.487 794.913 375.73 793.98 375.73Z" fill="#0F77FF"/>
<path d="M957.06 217.32H877.45C875.075 217.32 873.15 219.245 873.15 221.62V332.94C873.15 335.315 875.075 337.24 877.45 337.24H957.06C959.435 337.24 961.36 335.315 961.36 332.94V221.62C961.36 219.245 959.435 217.32 957.06 217.32Z" fill="#C8DDFA" stroke="#0F77FF" stroke-miterlimit="10"/>
<path d="M944.51 235.93H890C889.194 235.93 888.54 236.583 888.54 237.39V261.27C888.54 262.076 889.194 262.73 890 262.73H944.51C945.316 262.73 945.97 262.076 945.97 261.27V237.39C945.97 236.583 945.316 235.93 944.51 235.93Z" fill="white"/>
<path d="M944.51 274.88H890C889.194 274.88 888.54 275.534 888.54 276.34V300.22C888.54 301.026 889.194 301.68 890 301.68H944.51C945.316 301.68 945.97 301.026 945.97 300.22V276.34C945.97 275.534 945.316 274.88 944.51 274.88Z" fill="white"/>
<path d="M898.96 323.28H887.78C885.665 323.28 883.95 324.995 883.95 327.11V327.72C883.95 329.836 885.665 331.55 887.78 331.55H898.96C901.075 331.55 902.79 329.836 902.79 327.72V327.11C902.79 324.995 901.075 323.28 898.96 323.28Z" fill="#0F77FF"/>
<path d="M922.85 323.28H911.67C909.555 323.28 907.84 324.995 907.84 327.11V327.72C907.84 329.836 909.555 331.55 911.67 331.55H922.85C924.965 331.55 926.68 329.836 926.68 327.72V327.11C926.68 324.995 924.965 323.28 922.85 323.28Z" fill="#0F77FF"/>
<path d="M946.74 323.28H935.56C933.445 323.28 931.73 324.995 931.73 327.11V327.72C931.73 329.836 933.445 331.55 935.56 331.55H946.74C948.855 331.55 950.57 329.836 950.57 327.72V327.11C950.57 324.995 948.855 323.28 946.74 323.28Z" fill="#0F77FF"/>
<path d="M956.85 387.7H877.24C874.865 387.7 872.94 389.625 872.94 392V503.32C872.94 505.695 874.865 507.62 877.24 507.62H956.85C959.225 507.62 961.15 505.695 961.15 503.32V392C961.15 389.625 959.225 387.7 956.85 387.7Z" fill="#C8DDFA" stroke="#0F77FF" stroke-miterlimit="10"/>
<path d="M904.65 401.72H881.21C880.404 401.72 879.75 402.373 879.75 403.18V427.06C879.75 427.866 880.404 428.52 881.21 428.52H904.65C905.456 428.52 906.11 427.866 906.11 427.06V403.18C906.11 402.373 905.456 401.72 904.65 401.72Z" fill="white"/>
<path d="M942.34 444.84H891.76C890.827 444.84 890.07 445.596 890.07 446.53V449.06C890.07 449.993 890.827 450.75 891.76 450.75H942.34C943.273 450.75 944.03 449.993 944.03 449.06V446.53C944.03 445.596 943.273 444.84 942.34 444.84Z" fill="#0F77FF"/>
<path d="M942.34 456.79H891.76C890.827 456.79 890.07 457.547 890.07 458.48V461.01C890.07 461.943 890.827 462.7 891.76 462.7H942.34C943.273 462.7 944.03 461.943 944.03 461.01V458.48C944.03 457.547 943.273 456.79 942.34 456.79Z" fill="#0F77FF"/>
<path d="M942.34 468.74H891.76C890.827 468.74 890.07 469.497 890.07 470.43V472.96C890.07 473.894 890.827 474.65 891.76 474.65H942.34C943.273 474.65 944.03 473.894 944.03 472.96V470.43C944.03 469.497 943.273 468.74 942.34 468.74Z" fill="#0F77FF"/>
<path d="M714.52 359.61L713.17 360.26L702.23 365.52L701.23 365.99C701.163 366.021 701.091 366.039 701.017 366.041C700.944 366.043 700.871 366.03 700.802 366.003C700.734 365.976 700.672 365.935 700.62 365.883C700.568 365.831 700.527 365.769 700.5 365.7C700.488 365.634 700.488 365.567 700.5 365.5V362.39C700.5 362.25 700.444 362.115 700.345 362.016C700.245 361.916 700.11 361.86 699.97 361.86H673.38C673.238 361.86 673.103 361.805 673.002 361.706C672.901 361.607 672.842 361.472 672.84 361.33V356.94C672.842 356.799 672.901 356.664 673.002 356.565C673.103 356.466 673.238 356.41 673.38 356.41H700C700.141 356.408 700.276 356.35 700.375 356.249C700.474 356.148 700.53 356.012 700.53 355.87V352.69C700.52 352.624 700.52 352.557 700.53 352.49C700.558 352.423 700.6 352.362 700.652 352.311C700.704 352.26 700.767 352.22 700.835 352.194C700.903 352.168 700.976 352.156 701.049 352.159C701.122 352.161 701.194 352.179 701.26 352.21L702.26 352.68L713.17 357.99L714.52 358.65C714.611 358.693 714.688 358.761 714.742 358.846C714.796 358.931 714.825 359.03 714.825 359.13C714.825 359.231 714.796 359.33 714.742 359.415C714.688 359.5 714.611 359.568 714.52 359.61V359.61Z" fill="white" stroke="white" stroke-miterlimit="10"/>
<path d="M862.55 332.64L861.67 333.85L854.51 343.61L853.88 344.48C853.835 344.538 853.779 344.586 853.715 344.622C853.652 344.658 853.581 344.68 853.509 344.689C853.436 344.697 853.363 344.691 853.292 344.671C853.222 344.65 853.157 344.616 853.1 344.57C853.049 344.526 853.008 344.471 852.98 344.41L851.52 341.67C851.452 341.544 851.338 341.45 851.202 341.407C851.065 341.364 850.918 341.376 850.79 341.44L827.29 353.95C827.228 353.983 827.161 354.004 827.091 354.011C827.021 354.018 826.951 354.011 826.884 353.99C826.817 353.97 826.755 353.936 826.701 353.892C826.647 353.847 826.603 353.792 826.57 353.73L824.51 349.84C824.477 349.778 824.456 349.711 824.449 349.641C824.442 349.572 824.449 349.501 824.47 349.434C824.49 349.367 824.524 349.305 824.569 349.251C824.613 349.197 824.668 349.153 824.73 349.12L848.23 336.63C848.292 336.598 848.347 336.553 848.391 336.499C848.436 336.445 848.47 336.383 848.49 336.316C848.511 336.249 848.517 336.179 848.511 336.109C848.504 336.039 848.483 335.972 848.45 335.91L846.96 333.1C846.922 333.044 846.901 332.978 846.9 332.91C846.89 332.837 846.896 332.763 846.917 332.692C846.938 332.621 846.974 332.556 847.022 332.5C847.07 332.444 847.13 332.399 847.197 332.368C847.263 332.337 847.336 332.321 847.41 332.32H848.48L860.6 331.88L862.1 331.83C862.194 331.83 862.287 331.855 862.369 331.903C862.45 331.951 862.517 332.02 862.563 332.103C862.609 332.185 862.632 332.279 862.63 332.373C862.627 332.468 862.6 332.56 862.55 332.64V332.64Z" fill="white" stroke="white" stroke-miterlimit="10"/>
<path d="M862.47 383.9H860.98H848.87H847.8C847.727 383.9 847.655 383.885 847.588 383.856C847.52 383.827 847.46 383.784 847.41 383.731C847.361 383.677 847.322 383.614 847.298 383.545C847.274 383.476 847.264 383.402 847.27 383.33C847.272 383.263 847.29 383.198 847.32 383.14L848.66 380.33C848.691 380.267 848.708 380.198 848.712 380.128C848.716 380.058 848.706 379.989 848.683 379.923C848.66 379.857 848.624 379.796 848.577 379.744C848.53 379.692 848.473 379.65 848.41 379.62L824.41 368.1C824.282 368.037 824.183 367.926 824.136 367.791C824.089 367.656 824.098 367.508 824.16 367.38L826.06 363.43C826.089 363.365 826.131 363.308 826.182 363.26C826.234 363.213 826.295 363.176 826.361 363.153C826.428 363.129 826.498 363.12 826.569 363.124C826.639 363.129 826.707 363.148 826.77 363.18L850.77 374.71C850.899 374.769 851.046 374.776 851.18 374.73C851.315 374.683 851.426 374.586 851.49 374.46L852.87 371.59C852.907 371.507 852.965 371.436 853.038 371.382C853.111 371.329 853.197 371.296 853.286 371.286C853.376 371.275 853.467 371.289 853.55 371.325C853.633 371.361 853.706 371.417 853.76 371.49L854.43 372.32L861.96 381.84L862.89 383.02C862.959 383.098 863.003 383.194 863.017 383.297C863.032 383.4 863.015 383.505 862.971 383.598C862.926 383.692 862.855 383.771 862.766 383.824C862.677 383.878 862.574 383.904 862.47 383.9V383.9Z" fill="white" stroke="white" stroke-miterlimit="10"/>
<path d="M424.19 606.65L424.11 609.58L419.01 789.65H410.43L414.64 609.58L414.72 606.2L424.19 606.65Z" fill="#504F60"/>
<path opacity="0.1" d="M424.19 606.65L424.11 609.58L419.01 789.65H410.43L414.64 609.58L414.72 606.2L424.19 606.65Z" fill="black"/>
<path d="M473.84 759.19L467.42 759.17L371.97 758.97L366.89 758.96L369.59 750.61H473.16L473.84 759.19Z" fill="#504F60"/>
<path opacity="0.1" d="M424.19 606.65L424.11 609.58H414.64L414.72 606.2L424.19 606.65Z" fill="black"/>
<path d="M427.81 602.25H411.9V608.23H427.81V602.25Z" fill="#504F60"/>
<path opacity="0.1" d="M372.82 750.61L371.97 758.97L366.89 758.96L369.59 750.61H372.82Z" fill="black"/>
<path d="M386.52 602.14L386.25 604.73L365.08 813.56L355.38 813.11L377.69 604.73L377.94 602.36L386.52 602.14Z" fill="#504F60"/>
<path opacity="0.1" d="M473.84 759.19L467.42 759.17L466.55 750.61H473.16L473.84 759.19Z" fill="black"/>
<path d="M484 813.11L474.29 813.56L453.12 604.73L452.86 602.14L461.43 602.36L461.68 604.73L484 813.11Z" fill="#504F60"/>
<path d="M525.29 396.23H311.38V601.34H525.29V396.23Z" fill="white"/>
<path d="M568.33 396.23H268.59C266.309 396.23 264.46 398.08 264.46 400.36V597.21C264.46 599.491 266.309 601.34 268.59 601.34H568.33C570.611 601.34 572.46 599.491 572.46 597.21V400.36C572.46 398.08 570.611 396.23 568.33 396.23Z" fill="#F4F4F4"/>
<path d="M422.5 327.64V377.17H414.16V327.64C414.16 326.534 414.599 325.473 415.381 324.691C416.163 323.909 417.224 323.47 418.33 323.47C419.436 323.47 420.497 323.909 421.279 324.691C422.061 325.473 422.5 326.534 422.5 327.64V327.64Z" fill="#504F60"/>
<path opacity="0.1" d="M422.51 372.66H414.16V377.17H422.51V372.66Z" fill="black"/>
<path d="M425.78 376.04V392.4H410.89V376.04C410.89 375.51 411.101 375.001 411.476 374.626C411.851 374.251 412.36 374.04 412.89 374.04H423.72C423.988 374.032 424.254 374.078 424.504 374.175C424.754 374.272 424.981 374.418 425.173 374.604C425.365 374.791 425.518 375.014 425.622 375.26C425.727 375.507 425.78 375.772 425.78 376.04V376.04Z" fill="#504F60"/>
<path opacity="0.1" d="M418.33 387.55C420.075 387.55 421.49 386.136 421.49 384.39C421.49 382.645 420.075 381.23 418.33 381.23C416.585 381.23 415.17 382.645 415.17 384.39C415.17 386.136 416.585 387.55 418.33 387.55Z" fill="black"/>
<path d="M418.33 386.87C420.075 386.87 421.49 385.455 421.49 383.71C421.49 381.965 420.075 380.55 418.33 380.55C416.585 380.55 415.17 381.965 415.17 383.71C415.17 385.455 416.585 386.87 418.33 386.87Z" fill="#3F3D56"/>
<path opacity="0.1" d="M425.78 390.37H410.89V392.4H425.78V390.37Z" fill="black"/>
<path opacity="0.1" d="M431.87 393.08H404.79V397.59H431.87V393.08Z" fill="black"/>
<path d="M431.87 391.72H404.79V396.23H431.87V391.72Z" fill="#504F60"/>
<path opacity="0.1" d="M364.63 596H476.21C477.801 596 479.327 596.632 480.453 597.757C481.578 598.883 482.21 600.409 482.21 602V602H358.65C358.65 600.412 359.279 598.889 360.4 597.764C361.521 596.64 363.042 596.005 364.63 596V596Z" fill="black"/>
<path opacity="0.1" d="M377.94 602.36L386.52 602.14L386.25 604.73H377.69L377.94 602.36Z" fill="black"/>
<path opacity="0.1" d="M427.81 602.25H411.9V604.73H427.81V602.25Z" fill="black"/>
<path opacity="0.1" d="M461.68 604.73H453.12L452.86 602.14L461.43 602.36L461.68 604.73Z" fill="black"/>
<path d="M364.63 597.4H476.21C477.801 597.4 479.327 598.032 480.453 599.158C481.578 600.283 482.21 601.809 482.21 603.4V603.4H358.65C358.65 601.809 359.282 600.283 360.407 599.158C361.532 598.032 363.059 597.4 364.65 597.4H364.63Z" fill="#504F60"/>
<path d="M517.82 420.32C518.047 420.284 518.278 420.302 518.497 420.37C518.716 420.439 518.915 420.558 519.081 420.716C519.246 420.875 519.373 421.07 519.451 421.285C519.529 421.501 519.556 421.732 519.53 421.96C518.08 435.96 519.01 450.3 520.58 464.27C521.31 470.66 522.3 477.42 525.13 482.16C525.311 482.447 525.389 482.787 525.353 483.124C525.316 483.462 525.168 483.777 524.93 484.02C524.14 484.634 523.148 484.931 522.15 484.85L477.52 485.1C477.294 485.101 477.07 485.051 476.865 484.954C476.661 484.856 476.482 484.713 476.341 484.536C476.2 484.358 476.102 484.151 476.053 483.93C476.004 483.709 476.007 483.48 476.06 483.26C479.65 467.96 478.88 451.26 477.44 435.39C476.73 427.58 476.32 423.39 482.15 422.84C488.15 422.3 494.15 422.05 500.15 421.55C501.59 421.43 513.13 421.09 517.82 420.32Z" fill="white" stroke="#33313F" stroke-width="3" stroke-miterlimit="10"/>
<path d="M483.67 512.01C483.444 511.975 483.212 511.992 482.993 512.061C482.775 512.13 482.575 512.248 482.409 512.407C482.244 512.566 482.117 512.76 482.039 512.976C481.961 513.191 481.934 513.422 481.96 513.65C483.41 527.65 482.48 541.99 480.9 555.96C480.18 562.35 479.19 569.11 476.36 573.86C476.179 574.145 476.099 574.484 476.136 574.82C476.172 575.156 476.322 575.47 476.56 575.71C477.35 576.325 478.342 576.621 479.34 576.54L523.97 576.8C524.196 576.798 524.419 576.746 524.623 576.646C524.826 576.547 525.004 576.403 525.144 576.225C525.284 576.048 525.383 575.841 525.432 575.62C525.482 575.399 525.481 575.17 525.43 574.95C521.84 559.65 522.61 542.95 524.05 527.08C524.76 519.27 525.17 515.08 519.34 514.53C513.51 513.98 507.34 513.74 501.34 513.24C499.9 513.12 488.36 512.78 483.67 512.01Z" fill="white" stroke="#33313F" stroke-width="3" stroke-miterlimit="10"/>
<path d="M496.78 537.77C501.966 537.528 507.161 537.591 512.34 537.96C512.676 537.992 512.99 538.139 513.23 538.376C513.471 538.612 513.622 538.924 513.66 539.26L514.15 543.35C514.175 543.441 514.177 543.537 514.156 543.63C514.135 543.722 514.092 543.808 514.03 543.88C513.92 543.959 513.785 543.994 513.65 543.98C511.47 544.04 509.29 543.79 507.12 543.98C505.77 544.09 504.43 544.35 503.12 544.5C500.905 544.695 498.68 544.735 496.46 544.62C493.332 544.674 490.212 544.29 487.19 543.48C487.19 543.48 487.37 540.09 487.37 539.77C487.37 538.19 487.32 538.05 488.95 538.01L496.78 537.77Z" stroke="#33313F" stroke-width="2" stroke-miterlimit="10" stroke-linecap="round"/>
<path d="M496.78 556.21C501.966 556.454 507.162 556.387 512.34 556.01C512.676 555.978 512.99 555.831 513.23 555.595C513.471 555.358 513.622 555.046 513.66 554.71L514.15 550.63C514.175 550.537 514.177 550.44 514.156 550.346C514.135 550.252 514.092 550.164 514.03 550.09C513.92 550.012 513.785 549.976 513.65 549.991C511.47 549.931 509.29 550.191 507.12 549.991C505.77 549.891 504.43 549.631 503.12 549.481C500.906 549.281 498.68 549.24 496.46 549.361C493.332 549.307 490.212 549.69 487.19 550.5C487.19 550.5 487.37 553.88 487.37 554.21C487.37 555.79 487.32 555.92 488.95 555.97L496.78 556.21Z" stroke="#33313F" stroke-width="2" stroke-miterlimit="10" stroke-linecap="round"/>
<path d="M496.78 563.43C501.966 563.187 507.162 563.254 512.34 563.63C512.676 563.663 512.99 563.81 513.23 564.046C513.471 564.283 513.622 564.595 513.66 564.93L514.15 569.01C514.175 569.103 514.177 569.201 514.156 569.295C514.135 569.389 514.092 569.477 514.03 569.55C513.92 569.629 513.785 569.665 513.65 569.65C511.47 569.71 509.29 569.45 507.12 569.65C505.77 569.75 504.43 570.02 503.12 570.17C500.905 570.362 498.68 570.399 496.46 570.28C493.332 570.338 490.212 569.957 487.19 569.15C487.19 569.15 487.37 565.76 487.37 565.43C487.37 563.85 487.32 563.72 488.95 563.68L496.78 563.43Z" stroke="#33313F" stroke-width="2" stroke-miterlimit="10" stroke-linecap="round"/>
<path d="M503.35 477.84C503.807 478.939 503.959 480.141 503.79 481.32C503.792 481.415 503.768 481.508 503.72 481.59C503.665 481.643 503.599 481.684 503.526 481.71C503.454 481.736 503.377 481.746 503.3 481.74L493.8 482.11C493.8 482.11 494.33 479.31 494.4 479.11C494.73 477.97 495.56 478.27 496.63 478.21L503.35 477.84Z" fill="white" stroke="#33313F" stroke-width="2" stroke-miterlimit="10" stroke-linecap="round"/>
<path d="M517.7 477.84C518.154 478.94 518.303 480.142 518.13 481.32C518.135 481.414 518.114 481.507 518.07 481.59C518.014 481.642 517.948 481.683 517.875 481.708C517.803 481.734 517.726 481.745 517.65 481.74L508.14 482.11C508.14 482.11 508.68 479.31 508.75 479.11C509.07 477.97 509.9 478.27 510.98 478.21L517.7 477.84Z" fill="white" stroke="#33313F" stroke-width="2" stroke-miterlimit="10" stroke-linecap="round"/>
<path d="M511.97 430.1L513.25 441.1C513.293 441.498 513.256 441.899 513.141 442.282C513.026 442.665 512.836 443.021 512.582 443.33C512.327 443.638 512.014 443.892 511.66 444.078C511.306 444.263 510.918 444.376 510.52 444.41C502.404 445.052 494.247 444.998 486.14 444.25C485.419 444.181 484.748 443.853 484.25 443.327C483.752 442.802 483.461 442.114 483.43 441.39C483.278 439.429 482.991 437.481 482.57 435.56C482.24 433.56 481.88 431.63 484.24 431.04C486.6 430.45 489.83 430.87 492.41 430.82C495.503 430.76 498.587 430.673 501.66 430.56C502.52 430.56 511.97 430.05 511.97 430.1Z" stroke="#33313F" stroke-width="3" stroke-miterlimit="10"/>
<path d="M511.97 469.84L513.23 458.84C513.273 458.443 513.236 458.041 513.121 457.658C513.006 457.275 512.816 456.919 512.562 456.611C512.307 456.302 511.994 456.048 511.64 455.862C511.286 455.677 510.898 455.564 510.5 455.53C502.384 454.89 494.228 454.94 486.12 455.68C485.398 455.75 484.725 456.079 484.227 456.607C483.728 457.134 483.438 457.825 483.41 458.55C483.258 460.511 482.971 462.459 482.55 464.38C482.22 466.38 481.86 468.31 484.22 468.9C486.58 469.49 489.81 469.07 492.39 469.12C495.48 469.18 498.56 469.26 501.64 469.38C502.52 469.41 511.97 469.92 511.97 469.84Z" stroke="#33313F" stroke-width="3" stroke-miterlimit="10"/>
<path d="M499.12 519.41C498.787 523.07 498.577 526.737 498.49 530.41C494.819 530.379 491.162 529.96 487.58 529.16C487.298 529.147 487.022 529.072 486.772 528.94C486.522 528.809 486.304 528.624 486.133 528.399C485.963 528.174 485.843 527.914 485.784 527.638C485.725 527.361 485.727 527.076 485.79 526.8C485.72 524.52 484.52 519.43 487.73 519.11C488.69 519.01 499.11 519.59 499.12 519.41Z" stroke="#33313F" stroke-width="2" stroke-miterlimit="10" stroke-linecap="round"/>
<path d="M322.55 469.45C323.02 469.399 323.496 469.453 323.943 469.609C324.39 469.765 324.796 470.018 325.133 470.35C325.47 470.682 325.729 471.085 325.891 471.53C326.053 471.974 326.114 472.449 326.07 472.92C324.92 486.23 325.83 499.86 327.33 513.13C328 519.03 328.89 525.24 331.25 529.89C331.455 530.289 331.555 530.734 331.539 531.182C331.524 531.63 331.393 532.067 331.16 532.45C330.927 532.834 330.6 533.151 330.21 533.371C329.819 533.592 329.378 533.709 328.93 533.71V533.71L284.65 533.97C284.386 533.972 284.124 533.914 283.885 533.801C283.646 533.688 283.436 533.522 283.27 533.317C283.104 533.111 282.986 532.871 282.925 532.613C282.865 532.356 282.863 532.088 282.92 531.83C286.43 516.61 285.66 499.99 284.23 484.25C283.51 476.44 283.11 472.25 288.93 471.7C294.93 471.17 300.93 470.92 306.88 470.41C308.15 470.31 317.23 470.03 322.55 469.45Z" fill="white" stroke="#33313F" stroke-width="3" stroke-miterlimit="10" stroke-linecap="round"/>
<path d="M384.15 469.2C383.908 469.163 383.66 469.182 383.427 469.257C383.193 469.331 382.98 469.458 382.803 469.629C382.627 469.799 382.493 470.008 382.411 470.239C382.329 470.47 382.301 470.717 382.33 470.96C383.76 484.89 382.83 499.21 381.26 513.13C380.54 519.52 379.55 526.25 376.73 531C376.532 531.336 376.466 531.733 376.543 532.116C376.621 532.498 376.837 532.838 377.15 533.07C377.907 533.549 378.797 533.774 379.69 533.71L424.2 533.97C424.444 533.97 424.685 533.914 424.905 533.807C425.124 533.699 425.316 533.543 425.465 533.35C425.615 533.157 425.719 532.932 425.768 532.693C425.817 532.454 425.811 532.207 425.75 531.97C422.2 516.7 422.96 500.02 424.4 484.22C425.11 476.41 425.52 472.22 419.7 471.67C413.7 471.14 407.7 470.89 401.7 470.38C400.23 470.29 388.93 469.96 384.15 469.2Z" fill="white" stroke="#33313F" stroke-width="3" stroke-miterlimit="10"/>
<path d="M296.04 478.29L318.68 508.49" stroke="#33313F" stroke-width="2" stroke-miterlimit="10" stroke-linecap="round"/>
<path d="M318.68 476.03L296.79 510" stroke="#33313F" stroke-width="2" stroke-miterlimit="10" stroke-linecap="round"/>
<path d="M397.07 479.71L409.4 496.16" stroke="#33313F" stroke-width="2" stroke-miterlimit="10" stroke-linecap="round"/>
<path d="M409.4 478.47L397.48 496.98" stroke="#33313F" stroke-width="2" stroke-miterlimit="10" stroke-linecap="round"/>
<path d="M303.52 518.14C308.709 517.898 313.908 517.961 319.09 518.33C319.425 518.366 319.737 518.514 319.977 518.75C320.216 518.986 320.369 519.296 320.41 519.63L320.89 523.72C320.914 523.812 320.916 523.909 320.897 524.002C320.878 524.096 320.838 524.184 320.78 524.26C320.666 524.329 320.534 524.363 320.4 524.36C318.22 524.42 316.03 524.16 313.86 524.36C312.51 524.46 311.18 524.72 309.86 524.87C307.646 525.065 305.42 525.105 303.2 524.99C300.075 525.044 296.958 524.661 293.94 523.85C293.88 523.85 294.12 520.47 294.12 520.14C294.12 518.56 294.06 518.43 295.69 518.38L303.52 518.14Z" stroke="#33313F" stroke-width="2" stroke-miterlimit="10" stroke-linecap="round"/>
<path d="M398.64 503.04C403.829 502.796 409.029 502.863 414.21 503.24C414.546 503.272 414.86 503.419 415.101 503.656C415.341 503.892 415.493 504.205 415.53 504.54L416.01 508.62C416.034 508.712 416.036 508.809 416.017 508.902C415.998 508.996 415.958 509.084 415.9 509.16C415.79 509.238 415.655 509.273 415.52 509.26C413.34 509.32 411.15 509.06 408.98 509.26C407.63 509.36 406.3 509.63 404.98 509.77C402.766 509.97 400.54 510.01 398.32 509.89C395.192 509.944 392.072 509.56 389.05 508.75C389 508.75 389.23 505.37 389.23 505.04C389.23 503.46 389.18 503.33 390.81 503.28L398.64 503.04Z" stroke="#33313F" stroke-width="2" stroke-miterlimit="10" stroke-linecap="round"/>
<path d="M406.57 514.37C401.384 514.128 396.188 514.192 391.01 514.56C390.674 514.593 390.36 514.739 390.119 514.976C389.879 515.213 389.727 515.525 389.69 515.86L389.23 519.94C389.201 520.032 389.196 520.13 389.215 520.224C389.235 520.319 389.277 520.407 389.34 520.48C389.45 520.559 389.585 520.595 389.72 520.58C391.9 520.64 394.08 520.39 396.26 520.58C397.61 520.68 398.94 520.95 400.26 521.1C402.475 521.29 404.7 521.33 406.92 521.22C410.048 521.275 413.168 520.892 416.19 520.08C416.24 520.08 416.01 516.69 416.01 516.37C416.01 514.78 416.07 514.65 414.44 514.61L406.57 514.37Z" stroke="#33313F" stroke-width="2" stroke-miterlimit="10" stroke-linecap="round"/>
<path d="M341.86 506.97C341.86 506.97 356.57 506.22 359.21 506.97" stroke="#33313F" stroke-width="3" stroke-miterlimit="10"/>
<path d="M359.23 499.05C359.23 499.05 365.64 505.46 365.64 506.97C365.64 508.48 357.34 513.76 357.34 513.76" stroke="#33313F" stroke-width="3" stroke-miterlimit="10"/>
<path d="M438.07 493.29C438.07 493.29 451.4 487.05 454.13 486.75" stroke="#33313F" stroke-width="3" stroke-miterlimit="10"/>
<path d="M451.15 479.42C451.15 479.42 459.5 482.94 460.07 484.33C460.64 485.72 454.95 493.75 454.95 493.75" stroke="#33313F" stroke-width="3" stroke-miterlimit="10"/>
<path d="M437.93 509.27C437.93 509.27 451.48 515.02 453.53 516.86" stroke="#33313F" stroke-width="3" stroke-miterlimit="10"/>
<path d="M456.99 509.73C456.99 509.73 459.99 518.3 459.29 519.66C458.59 521.02 448.86 522.14 448.86 522.14" stroke="#33313F" stroke-width="3" stroke-miterlimit="10"/>
<path d="M490.52 477.84C490.974 478.94 491.123 480.142 490.95 481.32C490.955 481.414 490.934 481.507 490.89 481.59C490.834 481.642 490.768 481.683 490.696 481.708C490.623 481.734 490.547 481.745 490.47 481.74L480.96 482.11C480.96 482.11 481.5 479.31 481.57 479.11C481.89 477.97 482.73 478.27 483.8 478.21L490.52 477.84Z" fill="white" stroke="#33313F" stroke-width="2" stroke-miterlimit="10" stroke-linecap="round"/>
<path d="M310.87 564.02L314.23 560.89L311.23 560.77L309.66 563.18L310.87 564.02Z" fill="#33313F"/>
<path d="M286.7 585.94L290.26 581.37L291.05 580.55L301.95 569.13L305.66 565.25L307.4 565.04L309.9 562.56L311.37 563.85L308.94 566.69L308.98 568.18L305.19 572.29L294.49 583.91L293.8 584.65L289.5 588.63L286.7 585.94Z" fill="#65617D"/>
<path d="M291.05 580.55L301.95 569.13L305.19 572.29L294.49 583.91L291.05 580.55Z" fill="#33313F"/>
<path d="M307.5 584.95C304.332 582.001 301.577 578.637 299.31 574.95C294.51 567.47 286.49 563.43 280.99 561.42V558.99L281.33 558.92L281.18 556.66H281.33L280.94 550.66V550.61L278.96 520.84C278.96 520.84 271.91 500.99 284.44 482.68C296.97 464.37 285.22 446.81 273.44 439.94C273.44 439.94 267.96 410.94 272.66 404.07C266.284 400.4 259.715 397.078 252.98 394.12C252.87 393.76 252.78 393.4 252.69 393.02C252.56 390.32 252.39 387.62 252.24 384.92C252.397 383.516 252.654 382.126 253.01 380.76C253.16 380.19 253.33 379.62 253.51 379.03C259.11 376.89 263.934 373.11 267.351 368.183C270.768 363.257 272.618 357.414 272.66 351.42C272.663 347.922 272.032 344.453 270.8 341.18C271.432 340.139 271.914 339.015 272.23 337.84C272.98 334.75 272.13 331.45 270.37 328.32C267.23 321.54 259.4 315.19 253.72 312.84C245.58 309.54 233.33 310.32 224.85 311.34C220.09 311.91 214.66 313.5 212.94 317.86C212.31 319.46 212.3 321.23 211.86 322.86C210.08 329.52 202.39 332.62 197.64 337.72C193.44 342.22 191.64 348.31 190.24 354.24C186.341 371.235 185.41 388.777 187.49 406.09C187.97 410.09 188.61 414.04 189.29 418C186.43 422 183.85 429.07 185.03 441.35L175.63 485.61L171.72 511.56C171.72 511.56 169.37 522.24 178.72 531.4C184.72 537.24 191.97 547.11 196.44 553.5C194.494 559.157 193.53 565.107 193.59 571.09C193.69 573.81 193.84 576.44 194.03 578.94C194.426 584.251 195.433 589.499 197.03 594.58C198.13 605.24 200.3 618.87 204.55 627.58L206.11 674.13C206.11 674.13 203.76 716.87 199.11 725.26C194.46 733.65 209.28 804.63 209.28 804.63V814.55L206.78 821.89L206.15 821.42C194.41 835.92 206.15 841.26 206.15 841.26C206.15 841.26 209.35 841.41 214.46 841.61C214.026 843.644 214.282 845.764 215.188 847.637C216.093 849.509 217.596 851.026 219.46 851.95C219.46 851.95 285.99 855 297.74 851.95C309.49 848.9 306.35 838.21 300.08 838.95C297.69 839.25 294.16 838.62 290.71 837.73C294.36 833.48 291.44 827.73 286.78 828.27C280.52 829.03 266.43 823.49 266.43 823.49L266.36 823.58C265.91 823.408 265.449 823.268 264.98 823.16C259.746 821.982 254.576 820.537 249.49 818.83C246.49 812.4 239.49 795.12 244.49 781.72C246.75 775.66 247.49 767.6 247.49 759.78C247.609 736.188 251.081 712.734 257.8 690.12L267.19 658.12C267.19 658.12 280.5 619.19 281.28 608.51L281.23 592.97C292.23 599.97 300.98 597.87 306.56 594.6C307.374 594.119 308.063 593.454 308.571 592.657C309.079 591.86 309.391 590.954 309.483 590.013C309.575 589.073 309.443 588.124 309.098 587.244C308.754 586.364 308.206 585.578 307.5 584.95ZM203.03 503.95C203.3 502.83 203.52 501.61 203.71 500.32C205.55 500.32 207.4 500.32 209.24 500.26C211.529 504.909 212.491 510.099 212.02 515.26C207.78 513.95 201.44 510.74 203.03 504V503.95Z" fill="url(#paint0_linear)"/>
<path d="M210.47 810.84L207.47 819.84L217.26 829.63L249.65 837.16L273 834.9L271.49 826.61C271.041 824.831 270.111 823.21 268.802 821.924C267.494 820.638 265.856 819.737 264.07 819.32C254.47 817.06 236.17 811.92 232.32 804.77L210.47 810.84Z" fill="#DB8B8B"/>
<path opacity="0.1" d="M210.47 810.84L207.47 819.84L217.26 829.63L249.65 837.16L273 834.9L271.49 826.61C271.041 824.831 270.111 823.21 268.802 821.924C267.494 820.638 265.856 819.737 264.07 819.32C254.47 817.06 236.17 811.92 232.32 804.77L210.47 810.84Z" fill="black"/>
<path d="M265.46 832.64L260.94 826.64L265.46 819.64C265.46 819.64 279.01 825.11 285.04 824.36C291.07 823.61 294.04 834.15 282.78 837.16C271.52 840.17 207.46 837.16 207.46 837.16C207.46 837.16 196.16 831.89 207.46 817.58L217.25 825.11C217.25 825.11 233.82 834.11 242.11 832.64H265.46Z" fill="#2E3037"/>
<path d="M285.79 845.45L262.44 847.71L230.05 840.17L220.23 830.38L221.03 827.99L222.15 824.63L223.25 821.34L245.09 815.34C246.199 817.143 247.716 818.661 249.52 819.77C256.61 824.62 269.36 828.13 276.84 829.88C277.15 829.96 277.47 830.05 277.77 830.16C279.353 830.687 280.778 831.604 281.912 832.828C283.047 834.051 283.854 835.541 284.26 837.16L285.79 845.45Z" fill="#DB8B8B"/>
<path opacity="0.1" d="M285.79 845.45L262.44 847.71L230.05 840.17L220.23 830.38L221.03 827.99L230.03 834.9C230.03 834.9 246.61 843.9 254.89 842.43H278.23L273.71 836.43L277.77 830.16C279.353 830.687 280.778 831.605 281.912 832.828C283.047 834.052 283.854 835.542 284.26 837.16L285.79 845.45Z" fill="black"/>
<path d="M278.23 843.19L273.71 837.19L278.23 830.19C278.23 830.19 291.79 835.66 297.81 834.91C303.83 834.16 306.81 844.7 295.56 847.72C284.31 850.74 220.23 847.72 220.23 847.72C220.23 847.72 208.93 842.44 220.23 828.13L230.02 835.66C230.02 835.66 246.6 844.66 254.88 843.2L278.23 843.19Z" fill="#2E3037"/>
<path d="M259.43 406.32C259.43 406.32 223.28 410.08 228.55 395.02C230.027 390.75 230.409 386.177 229.66 381.72C228.724 376.196 226.542 370.957 223.28 366.4L257.17 371.67C255.139 375.065 253.594 378.727 252.58 382.55C248.54 398.54 259.43 406.32 259.43 406.32Z" fill="#DB8B8B"/>
<path d="M197.67 578.05C197.67 578.05 198.42 610.44 205.95 626.26L207.46 672.2C207.46 672.2 205.2 714.39 200.68 722.67C196.16 730.95 210.47 801.01 210.47 801.01V813.06C210.47 813.06 234.57 822.06 241.35 811.55L234.57 721.92L237.57 597.64L197.67 578.05Z" fill="#35323E"/>
<path opacity="0.1" d="M197.66 578.05C197.66 578.05 198.41 610.44 205.94 626.26L207.45 672.2C207.45 672.2 205.19 714.39 200.67 722.67C196.15 730.95 210.46 801.01 210.46 801.01V813.06C210.46 813.06 234.56 822.06 241.34 811.55L234.56 721.92L237.56 597.64L197.66 578.05Z" fill="black"/>
<path d="M182.6 474.11L178.08 486.16L174.32 511.77C173.811 515.338 174.16 518.976 175.34 522.381C176.519 525.787 178.494 528.861 181.1 531.35C190.1 540.35 202.19 559.22 202.19 559.22L216.5 516.29C216.5 516.29 202.19 514.03 204.5 504.24C206.81 494.45 206 476.37 206 476.37L182.6 474.11Z" fill="#0F77FF"/>
<path opacity="0.1" d="M249.55 819.75C239.88 834.96 224.85 826.34 222.18 824.63L223.28 821.34L245.12 815.34C246.231 817.136 247.749 818.647 249.55 819.75V819.75Z" fill="black"/>
<path d="M279.77 607.43C279.01 617.97 266.21 656.43 266.21 656.43L257.21 688.04C250.719 710.375 247.361 733.502 247.23 756.76C247.23 764.47 246.52 772.43 244.35 778.41C238.35 794.98 250.35 817.58 250.35 817.58C239.81 836.41 221.73 823.58 221.73 823.58V811.58C221.73 811.58 207.46 746.02 211.23 733.22C215 720.42 216.51 685.76 216.51 685.76V623.25C204.435 611.222 197.098 595.247 195.84 578.25C195.66 575.78 195.51 573.19 195.42 570.5C194.81 553.5 206.42 533.58 210.96 526.5C212.06 524.78 212.74 523.82 212.74 523.82L279.23 550.2L279.38 550.26V552.83V558.53L279.77 607.43Z" fill="#35323E"/>
<path opacity="0.1" d="M257.17 371.67C255.139 375.065 253.594 378.727 252.58 382.55C248.899 383.954 244.973 384.603 241.036 384.461C237.099 384.318 233.23 383.386 229.66 381.72C228.724 376.196 226.542 370.957 223.28 366.4L257.17 371.67Z" fill="black"/>
<path d="M242.11 382.97C258.336 382.97 271.49 369.816 271.49 353.59C271.49 337.364 258.336 324.21 242.11 324.21C225.884 324.21 212.73 337.364 212.73 353.59C212.73 369.816 225.884 382.97 242.11 382.97Z" fill="#DB8B8B"/>
<path opacity="0.1" d="M279.77 558.47L279.44 558.53C247.86 565.02 208.23 532.11 208.23 532.11C209.296 530.319 210.212 528.442 210.97 526.5C212.07 524.78 212.75 523.82 212.75 523.82L279.23 550.2L279.4 552.83L279.77 558.47Z" fill="black"/>
<path d="M271.48 405.57C271.48 405.57 229.3 379.96 215.74 390.5L196.91 414.6C196.91 414.6 184.86 418.37 187.12 442.47L178.12 486.16L205.23 492.94C205.23 492.94 221.05 508 208.23 529.85C208.23 529.85 248.15 562.99 279.79 556.21L277.51 520.84C277.51 520.84 270.73 501.25 282.78 483.18C294.83 465.11 283.53 447.78 272.24 441C272.23 440.97 266.96 412.34 271.48 405.57Z" fill="#0F77FF"/>
<path d="M273.74 559.22C273.74 559.22 289.56 562.22 297.09 574.29C299.264 577.914 301.918 581.227 304.98 584.14C305.66 584.769 306.186 585.547 306.514 586.414C306.843 587.28 306.967 588.211 306.876 589.133C306.785 590.056 306.482 590.944 305.99 591.73C305.498 592.515 304.83 593.176 304.04 593.66C298.04 597.26 288.32 599.47 276.04 589.35C254.91 572.03 273.74 559.22 273.74 559.22Z" fill="#DB8B8B"/>
<path opacity="0.1" d="M250.39 419.84C250.39 419.84 235.33 418.33 231.56 457.5C227.79 496.67 221.77 505.7 221.77 505.7C221.77 505.7 218 526.04 227.04 538.09C236.08 550.14 253.4 575.84 253.4 575.84C253.4 575.84 272.24 581.12 276 562.28L252.65 518.6C252.65 518.6 248.89 503.53 257.92 492.99C266.95 482.45 273.74 412.34 250.39 419.84Z" fill="black"/>
<path d="M251.9 417.62C251.9 417.62 236.83 416.11 233.07 455.28C229.31 494.45 223.28 503.48 223.28 503.48C223.28 503.48 219.51 523.84 228.55 535.84C237.59 547.84 254.91 573.5 254.91 573.5C254.91 573.5 273.74 578.78 277.51 559.95L254.16 516.26C254.16 516.26 250.39 501.19 259.43 490.65C268.47 480.11 275.23 410.08 251.9 417.62Z" fill="#0F77FF"/>
<path opacity="0.1" d="M264.33 445.84C264.33 445.84 265.83 469.19 259.05 482C252.27 494.81 252.27 511.37 259.05 520.41" fill="black"/>
<path opacity="0.1" d="M268.09 417.24C268.09 417.24 262.09 411.24 244.74 410.46C227.39 409.68 219.89 404.46 219.89 404.46" fill="black"/>
<path opacity="0.1" d="M226.23 315.63C221.65 316.19 216.42 317.76 214.77 322.07C214.16 323.65 214.15 325.39 213.72 327.07C212.01 333.65 204.61 336.71 200.04 341.74C196.04 346.18 194.23 352.19 192.92 358.04C189.159 374.815 188.25 392.103 190.23 409.18C191.7 421.67 194.7 433.96 195.55 446.51C196.4 459.06 194.85 472.26 187.99 482.8C184.99 487.34 181.15 491.32 179.06 496.31C183.38 499.81 189.34 500.31 194.9 500.5C201.38 500.72 207.86 500.72 214.34 500.5C217.74 500.38 221.29 500.16 224.22 498.44C226.39 497.053 228.175 495.14 229.41 492.88C233.11 486.59 234.05 479.03 233.89 471.73C233.73 464.43 232.58 457.18 232.44 449.88C232.37 445.88 232.68 441.68 234.97 438.42C236.62 436.07 239.13 434.49 241.28 432.58C249.35 425.44 252.11 413.98 252.38 403.21C252.65 392.44 250.88 381.65 251.79 370.92C252.14 366.71 253.71 361.67 257.85 360.85C259.15 360.59 260.54 360.85 261.78 360.35C265.1 359.08 264.78 354.4 265.72 350.98C266.79 347.13 270.07 344.16 270.99 340.28C273.16 331.17 261.56 320.28 253.99 317.12C246.14 313.84 234.35 314.63 226.23 315.63Z" fill="black"/>
<path d="M225.44 314.13C220.86 314.69 215.63 316.26 213.98 320.56C213.555 322.206 213.221 323.876 212.98 325.56C211.27 332.14 203.86 335.2 199.29 340.24C195.29 344.67 193.48 350.68 192.17 356.54C188.426 373.327 187.534 390.626 189.53 407.71C191 420.2 194 432.5 194.84 445.04C195.68 457.58 194.15 470.79 187.29 481.33C184.29 485.87 180.45 489.85 178.36 494.84C182.68 498.35 188.64 498.84 194.2 499.03C200.68 499.25 207.16 499.25 213.64 499.03C217.04 498.91 220.59 498.7 223.52 496.97C225.692 495.587 227.475 493.673 228.7 491.41C232.41 485.12 233.34 477.56 233.19 470.26C233.04 462.96 231.87 455.71 231.74 448.41C231.67 444.41 231.98 440.21 234.26 436.96C235.92 434.6 238.43 433.02 240.58 431.12C248.64 423.97 251.41 412.51 251.68 401.74C251.95 390.97 250.17 380.18 251.08 369.45C251.44 365.25 253.01 360.2 257.14 359.39C258.45 359.13 259.84 359.39 261.08 358.88C264.4 357.61 264.08 352.94 265.02 349.51C266.08 345.66 269.36 342.7 270.29 338.82C272.46 329.7 260.86 318.82 253.29 315.65C245.38 312.35 233.6 313.12 225.44 314.13Z" fill="#35323E"/>
</g>
<defs>
<linearGradient id="paint0_linear" x1="240.49" y1="853.35" x2="240.49" y2="310.5" gradientUnits="userSpaceOnUse">
<stop stop-color="#808080" stop-opacity="0.25"/>
<stop offset="0.54" stop-color="#808080" stop-opacity="0.12"/>
<stop offset="1" stop-color="#808080" stop-opacity="0.1"/>
</linearGradient>
<clipPath id="clip0">
<rect width="1110.46" height="857.68" fill="white"/>
</clipPath>
</defs>
</svg>
