<svg width="114" height="48" viewBox="0 0 114 48" fill="none" xmlns="http://www.w3.org/2000/svg">
<g filter="url(#filter0_d)">
<path d="M103.5 2.5H10.5C7.18629 2.5 4.5 5.18629 4.5 8.5V35.5C4.5 38.8137 7.18629 41.5 10.5 41.5H103.5C106.814 41.5 109.5 38.8137 109.5 35.5V8.5C109.5 5.18629 106.814 2.5 103.5 2.5Z" fill="white" stroke="#E7E7E7"/>
<path d="M23.9997 8L24.4533 9.46796H25.9213L24.7337 10.3752L25.1873 11.8431L23.9997 10.9353L22.8124 11.8431L23.2661 10.3752L22.0781 9.46796H23.5461L23.9997 8Z" fill="#0F77FF"/>
<path d="M23.9997 32.1569L24.4533 33.6253H25.9213L24.7337 34.5323L25.1873 36L23.9997 35.093L22.8124 36L23.2661 34.5323L22.0781 33.6253H23.5461L23.9997 32.1569Z" fill="#0F77FF"/>
<path d="M30.0388 10.196L30.4921 11.664H31.9603L30.7725 12.5716L31.2262 14.0392L30.0388 13.1316L28.851 14.0392L29.3047 12.5716L28.1172 11.664H29.5854L30.0388 10.196Z" fill="#0F77FF"/>
<path d="M34.9803 14.3595L35.4337 15.8273H36.9017L35.714 16.7348L36.1677 18.2026L34.9803 17.2955L33.7926 18.2026L34.2463 16.7348L33.0586 15.8273H34.5263L34.9803 14.3595Z" fill="#0F77FF"/>
<path d="M34.9804 26.1177L35.4337 27.5861H36.9017L35.7141 28.4933L36.168 29.9608L34.9804 29.054L33.7926 29.9608L34.2463 28.4933L33.0586 27.5861H34.5267L34.9804 26.1177Z" fill="#0F77FF"/>
<path d="M13.0194 14.3595L13.4728 15.8273H14.9408L13.7532 16.7348L14.2066 18.2026L13.0194 17.2955L11.8316 18.2026L12.2852 16.7348L11.0977 15.8273H12.566L13.0194 14.3595Z" fill="#0F77FF"/>
<path d="M36.0789 20.0785L36.5323 21.5463H38.0004L36.8127 22.4535L37.2663 23.9216L36.0789 23.0148L34.8913 23.9216L35.3452 22.4535L34.1572 21.5463H35.625L36.0789 20.0785Z" fill="#0F77FF"/>
<path d="M11.9218 20.0785L12.3752 21.5463H13.8431L12.6554 22.4535L13.1093 23.9216L11.9218 23.0148L10.734 23.9216L11.1877 22.4535L10 21.5463H11.4681L11.9218 20.0785Z" fill="#0F77FF"/>
<path d="M13.0195 26.1177L13.4729 27.5861H14.9408L13.7534 28.4933L14.2067 29.9608L13.0195 29.054L11.8318 29.9608L12.2854 28.4933L11.0977 27.5861H12.5659L13.0195 26.1177Z" fill="#0F77FF"/>
<path d="M31.1375 31.0588L31.5909 32.5266H33.059L31.871 33.4342L32.3249 34.902L31.1375 33.9949L29.9496 34.902L30.4035 33.4342L29.2158 32.5266H30.6839L31.1375 31.0588Z" fill="#0F77FF"/>
<path d="M17.9607 10.196L18.414 11.664H19.8822L18.6945 12.5716L19.1484 14.0392L17.9607 13.1316L16.7732 14.0392L17.2268 12.5716L16.0391 11.664H17.507L17.9607 10.196Z" fill="#0F77FF"/>
<path d="M16.8629 31.0588L17.3164 32.5273H18.7845L17.5969 33.4341L18.0505 34.902L16.8629 33.9954L15.6755 34.902L16.129 33.4341L14.9414 32.5273H16.4092L16.8629 31.0588Z" fill="#0F77FF"/>
<path d="M27.1429 21.1364H26.7143V19.8068C26.7143 18.2594 25.4964 17 24 17C22.5036 17 21.2857 18.2594 21.2857 19.8068V21.1364H20.8571C20.3839 21.1364 20 21.5334 20 22.0227V25.5682C20 26.0575 20.3839 26.4545 20.8571 26.4545H27.1429C27.6161 26.4545 28 26.0575 28 25.5682V22.0227C28 21.5334 27.6161 21.1364 27.1429 21.1364ZM25.2857 21.1364H22.7143V19.8068C22.7143 19.0737 23.2911 18.4773 24 18.4773C24.7089 18.4773 25.2857 19.0737 25.2857 19.8068V21.1364Z" fill="#555555"/>
<path fill-rule="evenodd" clip-rule="evenodd" d="M47 17.5957C47 20.4198 49.1632 22.1915 51.8205 22.1915C53.503 22.1915 54.7982 21.5121 55.7596 20.4598V16.983H51.4599V18.8879H53.503V19.6339C53.1424 19.9269 52.5148 20.1667 51.8205 20.1667C50.365 20.1667 49.3368 19.0477 49.3368 17.5957C49.3368 16.1438 50.365 15.0248 51.8205 15.0248C52.6617 15.0248 53.3427 15.491 53.7033 16.0772L55.6261 15.0648C54.9718 13.9591 53.77 13 51.8205 13C49.1632 13 47 14.7717 47 17.5957ZM57.1083 22.0316V13.1465H60.8472C63.6513 13.1465 65.6677 14.825 65.6677 17.5824C65.6677 20.3399 63.6513 22.0316 60.8605 22.0316H57.1083ZM59.405 20.0335H60.8472C62.4095 20.0335 63.3175 18.9012 63.3175 17.5824C63.3175 16.2104 62.4896 15.1447 60.8605 15.1447H59.405V20.0335ZM66.816 22.0316V13.1465H71.276C73.2789 13.1465 74.3739 14.492 74.3739 16.1038C74.3739 17.7023 73.2789 19.0211 71.276 19.0211H69.1128V22.0316H66.816ZM72.0371 16.0905C72.0371 15.4777 71.5831 15.0781 70.9688 15.0781H69.1128V17.0762H70.9688C71.5831 17.0762 72.0371 16.6899 72.0371 16.0905ZM80.3694 22.0316L78.8739 19.0211H77.6988V22.0316H75.4021V13.1465H79.862C81.8383 13.1465 82.9599 14.452 82.9599 16.1038C82.9599 17.649 82.0119 18.4749 81.184 18.768L83 22.0316H80.3694ZM80.6231 16.0772C80.6231 15.4644 80.1157 15.0781 79.5148 15.0781H77.6988V17.0762H79.5148C80.1157 17.0762 80.6231 16.6899 80.6231 16.0772Z" fill="#0F77FF"/>
<path d="M51.464 29.104C51.4213 28.9387 51.3627 28.7867 51.288 28.648C51.2133 28.5093 51.1173 28.3893 51 28.288C50.8827 28.1867 50.744 28.1093 50.584 28.056C50.4293 27.9973 50.248 27.968 50.04 27.968C49.736 27.968 49.472 28.0293 49.248 28.152C49.0293 28.2747 48.8507 28.44 48.712 28.648C48.5733 28.8507 48.4693 29.0827 48.4 29.344C48.336 29.6053 48.304 29.872 48.304 30.144C48.304 30.416 48.336 30.6827 48.4 30.944C48.4693 31.2053 48.5733 31.44 48.712 31.648C48.8507 31.8507 49.0293 32.0133 49.248 32.136C49.472 32.2587 49.736 32.32 50.04 32.32C50.264 32.32 50.4613 32.2827 50.632 32.208C50.8027 32.128 50.9493 32.0213 51.072 31.888C51.1947 31.7493 51.2907 31.5893 51.36 31.408C51.4293 31.2267 51.4747 31.032 51.496 30.824H52.472C52.4507 31.1653 52.376 31.4773 52.248 31.76C52.1253 32.0427 51.9573 32.288 51.744 32.496C51.5307 32.6987 51.28 32.856 50.992 32.968C50.704 33.08 50.3867 33.136 50.04 33.136C49.6133 33.136 49.2293 33.0587 48.888 32.904C48.552 32.744 48.2667 32.528 48.032 32.256C47.7973 31.984 47.616 31.6667 47.488 31.304C47.3653 30.9413 47.304 30.5547 47.304 30.144C47.304 29.7387 47.3653 29.3547 47.488 28.992C47.616 28.6293 47.7973 28.312 48.032 28.04C48.2667 27.768 48.552 27.552 48.888 27.392C49.2293 27.232 49.6133 27.152 50.04 27.152C50.36 27.152 50.6613 27.1973 50.944 27.288C51.2267 27.3733 51.4747 27.5013 51.688 27.672C51.9067 27.8373 52.0827 28.04 52.216 28.28C52.3493 28.52 52.432 28.7947 52.464 29.104H51.464ZM55.8134 27.968C55.5094 27.968 55.2454 28.0293 55.0214 28.152C54.8028 28.2747 54.6241 28.44 54.4854 28.648C54.3468 28.8507 54.2428 29.0827 54.1734 29.344C54.1094 29.6053 54.0774 29.872 54.0774 30.144C54.0774 30.416 54.1094 30.6827 54.1734 30.944C54.2428 31.2053 54.3468 31.44 54.4854 31.648C54.6241 31.8507 54.8028 32.0133 55.0214 32.136C55.2454 32.2587 55.5094 32.32 55.8134 32.32C56.1174 32.32 56.3788 32.2587 56.5974 32.136C56.8214 32.0133 57.0028 31.8507 57.1414 31.648C57.2801 31.44 57.3814 31.2053 57.4454 30.944C57.5148 30.6827 57.5494 30.416 57.5494 30.144C57.5494 29.872 57.5148 29.6053 57.4454 29.344C57.3814 29.0827 57.2801 28.8507 57.1414 28.648C57.0028 28.44 56.8214 28.2747 56.5974 28.152C56.3788 28.0293 56.1174 27.968 55.8134 27.968ZM55.8134 27.152C56.2401 27.152 56.6214 27.232 56.9574 27.392C57.2988 27.552 57.5868 27.768 57.8214 28.04C58.0561 28.312 58.2348 28.6293 58.3574 28.992C58.4854 29.3547 58.5494 29.7387 58.5494 30.144C58.5494 30.5547 58.4854 30.9413 58.3574 31.304C58.2348 31.6667 58.0561 31.984 57.8214 32.256C57.5868 32.528 57.2988 32.744 56.9574 32.904C56.6214 33.0587 56.2401 33.136 55.8134 33.136C55.3868 33.136 55.0028 33.0587 54.6614 32.904C54.3254 32.744 54.0401 32.528 53.8054 32.256C53.5708 31.984 53.3894 31.6667 53.2614 31.304C53.1388 30.9413 53.0774 30.5547 53.0774 30.144C53.0774 29.7387 53.1388 29.3547 53.2614 28.992C53.3894 28.6293 53.5708 28.312 53.8054 28.04C54.0401 27.768 54.3254 27.552 54.6614 27.392C55.0028 27.232 55.3868 27.152 55.8134 27.152ZM59.4436 27.288H60.8516L62.4276 31.76H62.4436L63.9796 27.288H65.3716V33H64.4196V28.592H64.4036L62.8196 33H61.9956L60.4116 28.592H60.3956V33H59.4436V27.288ZM66.5689 27.288H69.0889C69.4943 27.288 69.8249 27.3467 70.0809 27.464C70.3369 27.5813 70.5343 27.728 70.6729 27.904C70.8116 28.08 70.9049 28.272 70.9529 28.48C71.0063 28.688 71.0329 28.88 71.0329 29.056C71.0329 29.232 71.0063 29.424 70.9529 29.632C70.9049 29.8347 70.8116 30.024 70.6729 30.2C70.5343 30.376 70.3369 30.5227 70.0809 30.64C69.8249 30.752 69.4943 30.808 69.0889 30.808H67.5689V33H66.5689V27.288ZM67.5689 29.992H69.0329C69.1449 29.992 69.2596 29.976 69.3769 29.944C69.4943 29.912 69.6009 29.8613 69.6969 29.792C69.7983 29.7173 69.8783 29.6213 69.9369 29.504C70.0009 29.3813 70.0329 29.2293 70.0329 29.048C70.0329 28.8613 70.0063 28.7067 69.9529 28.584C69.8996 28.4613 69.8276 28.3653 69.7369 28.296C69.6463 28.2213 69.5423 28.1707 69.4249 28.144C69.3076 28.1173 69.1823 28.104 69.0489 28.104H67.5689V29.992ZM71.9049 27.288H72.9049V32.136H75.8089V33H71.9049V27.288ZM76.4986 27.288H77.4986V33H76.4986V27.288ZM80.2532 27.288H81.3172L83.5172 33H82.4452L81.9092 31.488H79.6292L79.0932 33H78.0612L80.2532 27.288ZM79.9012 30.728H81.6452L80.7892 28.272H80.7652L79.9012 30.728ZM84.0211 27.288H85.0771L87.6851 31.496H87.7011V27.288H88.6531V33H87.5971L84.9971 28.8H84.9731V33H84.0211V27.288ZM89.2906 27.288H93.9146V28.152H92.0986V33H91.0986V28.152H89.2906V27.288Z" fill="#555555"/>
</g>
<defs>
<filter id="filter0_d" x="0" y="0" width="114" height="48" filterUnits="userSpaceOnUse" color-interpolation-filters="sRGB">
<feFlood flood-opacity="0" result="BackgroundImageFix"/>
<feColorMatrix in="SourceAlpha" type="matrix" values="0 0 0 0 0 0 0 0 0 0 0 0 0 0 0 0 0 0 127 0"/>
<feOffset dy="2"/>
<feGaussianBlur stdDeviation="2"/>
<feColorMatrix type="matrix" values="0 0 0 0 0.847059 0 0 0 0 0.866667 0 0 0 0 0.890196 0 0 0 1 0"/>
<feBlend mode="normal" in2="BackgroundImageFix" result="effect1_dropShadow"/>
<feBlend mode="normal" in="SourceGraphic" in2="effect1_dropShadow" result="shape"/>
</filter>
</defs>
</svg>
