<svg width="107" height="41" viewBox="0 0 107 41" fill="none" xmlns="http://www.w3.org/2000/svg">
<path d="M100 1H7C3.68629 1 1 3.68629 1 7V34C1 37.3137 3.68629 40 7 40H100C103.314 40 106 37.3137 106 34V7C106 3.68629 103.314 1 100 1Z" stroke="white"/>
<path d="M20.4997 6.5L20.9533 7.96796H22.4213L21.2337 8.87518L21.6873 10.3431L20.4997 9.43534L19.3124 10.3431L19.7661 8.87518L18.5781 7.96796H20.0461L20.4997 6.5Z" fill="white"/>
<path d="M20.4997 30.6569L20.9533 32.1253H22.4213L21.2337 33.0323L21.6873 34.5L20.4997 33.593L19.3124 34.5L19.7661 33.0323L18.5781 32.1253H20.0461L20.4997 30.6569Z" fill="white"/>
<path d="M26.5388 8.69604L26.9921 10.164H28.4603L27.2725 11.0716L27.7262 12.5392L26.5388 11.6316L25.351 12.5392L25.8047 11.0716L24.6172 10.164H26.0854L26.5388 8.69604Z" fill="white"/>
<path d="M31.4803 12.8595L31.9337 14.3273H33.4017L32.214 15.2348L32.6677 16.7026L31.4803 15.7955L30.2926 16.7026L30.7463 15.2348L29.5586 14.3273H31.0263L31.4803 12.8595Z" fill="white"/>
<path d="M31.4804 24.6177L31.9337 26.0861H33.4017L32.2141 26.9933L32.668 28.4608L31.4804 27.554L30.2926 28.4608L30.7463 26.9933L29.5586 26.0861H31.0267L31.4804 24.6177Z" fill="white"/>
<path d="M9.51938 12.8595L9.9728 14.3273H11.4408L10.2532 15.2348L10.7066 16.7026L9.51938 15.7955L8.33157 16.7026L8.78523 15.2348L7.59766 14.3273H9.06596L9.51938 12.8595Z" fill="white"/>
<path d="M32.5789 18.5785L33.0323 20.0463H34.5004L33.3127 20.9535L33.7663 22.4216L32.5789 21.5148L31.3913 22.4216L31.8452 20.9535L30.6572 20.0463H32.125L32.5789 18.5785Z" fill="white"/>
<path d="M8.42184 18.5785L8.87523 20.0463H10.3431L9.1554 20.9535L9.60934 22.4216L8.42184 21.5148L7.23403 22.4216L7.68773 20.9535L6.5 20.0463H7.96814L8.42184 18.5785Z" fill="white"/>
<path d="M9.5195 24.6177L9.97289 26.0861H11.4408L10.2534 26.9933L10.7067 28.4608L9.5195 27.554L8.33177 28.4608L8.78539 26.9933L7.59766 26.0861H9.06587L9.5195 24.6177Z" fill="white"/>
<path d="M27.6375 29.5588L28.0909 31.0266H29.559L28.371 31.9342L28.8249 33.402L27.6375 32.4949L26.4496 33.402L26.9035 31.9342L25.7158 31.0266H27.1839L27.6375 29.5588Z" fill="white"/>
<path d="M14.4607 8.69604L14.914 10.164H16.3822L15.1945 11.0716L15.6484 12.5392L14.4607 11.6316L13.2732 12.5392L13.7268 11.0716L12.5391 10.164H14.007L14.4607 8.69604Z" fill="white"/>
<path d="M13.3629 29.5588L13.8164 31.0273H15.2845L14.0969 31.9341L14.5505 33.402L13.3629 32.4954L12.1755 33.402L12.629 31.9341L11.4414 31.0273H12.9092L13.3629 29.5588Z" fill="white"/>
<path d="M23.6429 19.6364H23.2143V18.3068C23.2143 16.7594 21.9964 15.5 20.5 15.5C19.0036 15.5 17.7857 16.7594 17.7857 18.3068V19.6364H17.3571C16.8839 19.6364 16.5 20.0334 16.5 20.5227V24.0682C16.5 24.5575 16.8839 24.9545 17.3571 24.9545H23.6429C24.1161 24.9545 24.5 24.5575 24.5 24.0682V20.5227C24.5 20.0334 24.1161 19.6364 23.6429 19.6364ZM21.7857 19.6364H19.2143V18.3068C19.2143 17.5737 19.7911 16.9773 20.5 16.9773C21.2089 16.9773 21.7857 17.5737 21.7857 18.3068V19.6364Z" fill="white"/>
<path fill-rule="evenodd" clip-rule="evenodd" d="M43.5 16.0957C43.5 18.9198 45.6632 20.6915 48.3205 20.6915C50.003 20.6915 51.2982 20.0121 52.2596 18.9598V15.483H47.9599V17.3879H50.003V18.1339C49.6424 18.4269 49.0148 18.6667 48.3205 18.6667C46.865 18.6667 45.8368 17.5477 45.8368 16.0957C45.8368 14.6438 46.865 13.5248 48.3205 13.5248C49.1617 13.5248 49.8427 13.991 50.2033 14.5772L52.1261 13.5648C51.4718 12.4591 50.27 11.5 48.3205 11.5C45.6632 11.5 43.5 13.2717 43.5 16.0957ZM53.6083 20.5316V11.6465H57.3472C60.1513 11.6465 62.1677 13.325 62.1677 16.0824C62.1677 18.8399 60.1513 20.5316 57.3605 20.5316H53.6083ZM55.905 18.5335H57.3472C58.9095 18.5335 59.8175 17.4012 59.8175 16.0824C59.8175 14.7104 58.9896 13.6447 57.3605 13.6447H55.905V18.5335ZM63.316 20.5316V11.6465H67.776C69.7789 11.6465 70.8739 12.992 70.8739 14.6038C70.8739 16.2023 69.7789 17.5211 67.776 17.5211H65.6128V20.5316H63.316ZM68.5371 14.5905C68.5371 13.9777 68.0831 13.5781 67.4688 13.5781H65.6128V15.5762H67.4688C68.0831 15.5762 68.5371 15.1899 68.5371 14.5905ZM76.8694 20.5316L75.3739 17.5211H74.1988V20.5316H71.9021V11.6465H76.362C78.3383 11.6465 79.4599 12.952 79.4599 14.6038C79.4599 16.149 78.5119 16.9749 77.684 17.268L79.5 20.5316H76.8694ZM77.1231 14.5772C77.1231 13.9644 76.6157 13.5781 76.0148 13.5781H74.1988V15.5762H76.0148C76.6157 15.5762 77.1231 15.1899 77.1231 14.5772Z" fill="white"/>
<path d="M47.964 27.604C47.9213 27.4387 47.8627 27.2867 47.788 27.148C47.7133 27.0093 47.6173 26.8893 47.5 26.788C47.3827 26.6867 47.244 26.6093 47.084 26.556C46.9293 26.4973 46.748 26.468 46.54 26.468C46.236 26.468 45.972 26.5293 45.748 26.652C45.5293 26.7747 45.3507 26.94 45.212 27.148C45.0733 27.3507 44.9693 27.5827 44.9 27.844C44.836 28.1053 44.804 28.372 44.804 28.644C44.804 28.916 44.836 29.1827 44.9 29.444C44.9693 29.7053 45.0733 29.94 45.212 30.148C45.3507 30.3507 45.5293 30.5133 45.748 30.636C45.972 30.7587 46.236 30.82 46.54 30.82C46.764 30.82 46.9613 30.7827 47.132 30.708C47.3027 30.628 47.4493 30.5213 47.572 30.388C47.6947 30.2493 47.7907 30.0893 47.86 29.908C47.9293 29.7267 47.9747 29.532 47.996 29.324H48.972C48.9507 29.6653 48.876 29.9773 48.748 30.26C48.6253 30.5427 48.4573 30.788 48.244 30.996C48.0307 31.1987 47.78 31.356 47.492 31.468C47.204 31.58 46.8867 31.636 46.54 31.636C46.1133 31.636 45.7293 31.5587 45.388 31.404C45.052 31.244 44.7667 31.028 44.532 30.756C44.2973 30.484 44.116 30.1667 43.988 29.804C43.8653 29.4413 43.804 29.0547 43.804 28.644C43.804 28.2387 43.8653 27.8547 43.988 27.492C44.116 27.1293 44.2973 26.812 44.532 26.54C44.7667 26.268 45.052 26.052 45.388 25.892C45.7293 25.732 46.1133 25.652 46.54 25.652C46.86 25.652 47.1613 25.6973 47.444 25.788C47.7267 25.8733 47.9747 26.0013 48.188 26.172C48.4067 26.3373 48.5827 26.54 48.716 26.78C48.8493 27.02 48.932 27.2947 48.964 27.604H47.964ZM52.3134 26.468C52.0094 26.468 51.7454 26.5293 51.5214 26.652C51.3028 26.7747 51.1241 26.94 50.9854 27.148C50.8468 27.3507 50.7428 27.5827 50.6734 27.844C50.6094 28.1053 50.5774 28.372 50.5774 28.644C50.5774 28.916 50.6094 29.1827 50.6734 29.444C50.7428 29.7053 50.8468 29.94 50.9854 30.148C51.1241 30.3507 51.3028 30.5133 51.5214 30.636C51.7454 30.7587 52.0094 30.82 52.3134 30.82C52.6174 30.82 52.8788 30.7587 53.0974 30.636C53.3214 30.5133 53.5028 30.3507 53.6414 30.148C53.7801 29.94 53.8814 29.7053 53.9454 29.444C54.0148 29.1827 54.0494 28.916 54.0494 28.644C54.0494 28.372 54.0148 28.1053 53.9454 27.844C53.8814 27.5827 53.7801 27.3507 53.6414 27.148C53.5028 26.94 53.3214 26.7747 53.0974 26.652C52.8788 26.5293 52.6174 26.468 52.3134 26.468ZM52.3134 25.652C52.7401 25.652 53.1214 25.732 53.4574 25.892C53.7988 26.052 54.0868 26.268 54.3214 26.54C54.5561 26.812 54.7348 27.1293 54.8574 27.492C54.9854 27.8547 55.0494 28.2387 55.0494 28.644C55.0494 29.0547 54.9854 29.4413 54.8574 29.804C54.7348 30.1667 54.5561 30.484 54.3214 30.756C54.0868 31.028 53.7988 31.244 53.4574 31.404C53.1214 31.5587 52.7401 31.636 52.3134 31.636C51.8868 31.636 51.5028 31.5587 51.1614 31.404C50.8254 31.244 50.5401 31.028 50.3054 30.756C50.0708 30.484 49.8894 30.1667 49.7614 29.804C49.6388 29.4413 49.5774 29.0547 49.5774 28.644C49.5774 28.2387 49.6388 27.8547 49.7614 27.492C49.8894 27.1293 50.0708 26.812 50.3054 26.54C50.5401 26.268 50.8254 26.052 51.1614 25.892C51.5028 25.732 51.8868 25.652 52.3134 25.652ZM55.9436 25.788H57.3516L58.9276 30.26H58.9436L60.4796 25.788H61.8716V31.5H60.9196V27.092H60.9036L59.3196 31.5H58.4956L56.9116 27.092H56.8956V31.5H55.9436V25.788ZM63.0689 25.788H65.5889C65.9943 25.788 66.3249 25.8467 66.5809 25.964C66.8369 26.0813 67.0343 26.228 67.1729 26.404C67.3116 26.58 67.4049 26.772 67.4529 26.98C67.5063 27.188 67.5329 27.38 67.5329 27.556C67.5329 27.732 67.5063 27.924 67.4529 28.132C67.4049 28.3347 67.3116 28.524 67.1729 28.7C67.0343 28.876 66.8369 29.0227 66.5809 29.14C66.3249 29.252 65.9943 29.308 65.5889 29.308H64.0689V31.5H63.0689V25.788ZM64.0689 28.492H65.5329C65.6449 28.492 65.7596 28.476 65.8769 28.444C65.9943 28.412 66.1009 28.3613 66.1969 28.292C66.2983 28.2173 66.3783 28.1213 66.4369 28.004C66.5009 27.8813 66.5329 27.7293 66.5329 27.548C66.5329 27.3613 66.5063 27.2067 66.4529 27.084C66.3996 26.9613 66.3276 26.8653 66.2369 26.796C66.1463 26.7213 66.0423 26.6707 65.9249 26.644C65.8076 26.6173 65.6823 26.604 65.5489 26.604H64.0689V28.492ZM68.4049 25.788H69.4049V30.636H72.3089V31.5H68.4049V25.788ZM72.9986 25.788H73.9986V31.5H72.9986V25.788ZM76.7532 25.788H77.8172L80.0172 31.5H78.9452L78.4092 29.988H76.1292L75.5932 31.5H74.5612L76.7532 25.788ZM76.4012 29.228H78.1452L77.2892 26.772H77.2652L76.4012 29.228ZM80.5211 25.788H81.5771L84.1851 29.996H84.2011V25.788H85.1531V31.5H84.0971L81.4971 27.3H81.4731V31.5H80.5211V25.788ZM85.7906 25.788H90.4146V26.652H88.5986V31.5H87.5986V26.652H85.7906V25.788Z" fill="white" fill-opacity="0.71"/>
</svg>
