<svg width="86" height="38" viewBox="0 0 86 38" fill="none" xmlns="http://www.w3.org/2000/svg">
<path d="M20.5008 26.79V32.95H18.5508V17.75H23.7308C25.0508 17.75 26.1608 18.19 27.0808 19.07C28.0108 19.95 28.4808 21.02 28.4808 22.28C28.4808 23.57 28.0108 24.64 27.0808 25.51C26.1708 26.37 25.0608 26.81 23.7308 26.81H20.5008V26.79ZM20.5008 19.61V24.92H23.7708C24.5508 24.92 25.1908 24.66 25.7008 24.13C26.2208 23.61 26.4908 22.98 26.4908 22.26C26.4908 21.55 26.2308 20.94 25.7008 20.41C25.1908 19.87 24.5508 19.6 23.7708 19.6H20.5008V19.61Z" fill="#777677"/>
<path d="M33.7111 22.2C35.1511 22.2 36.2911 22.59 37.1311 23.36C37.9611 24.13 38.3811 25.1899 38.3811 26.5299V32.9399H36.5111V31.5H36.4311C35.6211 32.69 34.5511 33.2799 33.2011 33.2799C32.0511 33.2799 31.0911 32.9399 30.3211 32.2599C29.5511 31.5799 29.1611 30.7299 29.1611 29.7099C29.1611 28.6299 29.5711 27.7799 30.3811 27.1399C31.1911 26.4999 32.2811 26.18 33.6411 26.18C34.8011 26.18 35.7611 26.39 36.5111 26.82V26.3699C36.5111 25.6899 36.2411 25.1099 35.7011 24.6399C35.1611 24.1699 34.5311 23.93 33.8111 23.93C32.7211 23.93 31.8611 24.39 31.2211 25.31L29.5011 24.2299C30.4511 22.8799 31.8511 22.2 33.7111 22.2ZM31.1811 29.7599C31.1811 30.2699 31.4011 30.6899 31.8311 31.0299C32.2611 31.3699 32.7711 31.54 33.3511 31.54C34.1711 31.54 34.9011 31.24 35.5511 30.63C36.1911 30.02 36.5211 29.31 36.5211 28.49C35.9111 28.01 35.0611 27.77 33.9711 27.77C33.1811 27.77 32.5211 27.96 31.9811 28.34C31.4411 28.72 31.1811 29.1899 31.1811 29.7599Z" fill="#777677"/>
<path d="M40.5811 22.54H42.4511V24.24H42.5311C43.1111 22.91 44.3111 22.24 46.1211 22.24L46.5211 22.28V24.32L45.6511 24.24C44.7411 24.24 44.0011 24.52 43.4111 25.08C42.8211 25.64 42.5311 26.35 42.5311 27.21V32.94H40.5811V22.54V22.54ZM52.771 33.11C51.921 33.11 51.2211 32.85 50.6611 32.32C50.1011 31.8 49.8111 31.07 49.8011 30.13V24.31H47.9711V22.53H49.8011V19.35H51.7511V22.53H54.3011V24.31H51.7511V29.49C51.7511 30.18 51.8811 30.65 52.1511 30.9C52.4211 31.15 52.7211 31.27 53.0611 31.27C53.2211 31.27 53.371 31.25 53.521 31.22C53.671 31.18 53.8111 31.14 53.9311 31.08L54.5511 32.82C54.0511 33.02 53.451 33.11 52.771 33.11Z" fill="#777677"/>
<path d="M56.2705 22.54H58.1405V23.9799H58.2205C58.5205 23.4699 58.9705 23.0499 59.5905 22.7099C60.2105 22.3699 60.8505 22.2 61.5105 22.2C62.7805 22.2 63.7605 22.56 64.4505 23.29C65.1405 24.02 65.4805 25.06 65.4805 26.4V32.9399H63.5305V26.5299C63.4905 24.8299 62.6305 23.9799 60.9605 23.9799C60.1805 23.9799 59.5305 24.2999 59.0105 24.9199C58.4905 25.5499 58.2205 26.3 58.2205 27.18V32.93H56.2705V22.54Z" fill="#777677"/>
<path d="M72.4507 33.2799C70.9207 33.2799 69.6607 32.7599 68.6707 31.7099C67.6807 30.6599 67.1807 29.34 67.1807 27.74C67.1807 26.15 67.6607 24.8399 68.6207 23.7799C69.5807 22.7299 70.8107 22.2 72.3107 22.2C73.8507 22.2 75.0807 22.7 75.9907 23.7C76.9007 24.7 77.3607 26.0999 77.3607 27.8899L77.3407 28.0999H69.1707C69.2007 29.1199 69.5407 29.94 70.1907 30.56C70.8407 31.18 71.6207 31.49 72.5307 31.49C73.7807 31.49 74.7507 30.8699 75.4607 29.6199L77.2007 30.47C76.7307 31.35 76.0907 32.0299 75.2607 32.5299C74.4407 33.0299 73.5007 33.2799 72.4507 33.2799ZM69.3307 26.49H75.3007C75.2407 25.77 74.9507 25.17 74.4207 24.7C73.8907 24.23 73.1807 23.99 72.2907 23.99C71.5507 23.99 70.9207 24.2199 70.3907 24.6699C69.8507 25.1199 69.5007 25.72 69.3307 26.49Z" fill="#777677"/>
<path d="M81.1111 32.94H79.1611V22.54H81.0311V24.24H81.1111C81.3111 23.69 81.7211 23.22 82.3311 22.83C82.9511 22.44 83.5511 22.25 84.1511 22.25C84.7211 22.25 85.2011 22.33 85.5911 22.5L85.0011 24.39C84.7611 24.29 84.3811 24.24 83.8511 24.24C83.1111 24.24 82.4711 24.54 81.9311 25.13C81.3811 25.72 81.1111 26.42 81.1111 27.21V32.94Z" fill="#777677"/>
<path d="M22.9708 8.85994V10.1899H26.1408C26.0408 11.0299 25.6908 11.6799 25.1008 12.1399C24.5208 12.5999 23.8108 12.8299 22.9708 12.8299C21.9908 12.8299 21.1708 12.4899 20.5008 11.7999C19.8308 11.1199 19.4908 10.2899 19.4908 9.29994C19.4908 8.30994 19.8308 7.47994 20.5008 6.79994C21.1708 6.10994 22.0008 5.76994 22.9708 5.76994C23.8908 5.76994 24.6808 6.08994 25.3608 6.71994L26.3008 5.77994C25.3608 4.88994 24.2508 4.43994 22.9708 4.43994C22.1008 4.43994 21.2808 4.65994 20.5108 5.09994C19.7408 5.52994 19.1408 6.12994 18.7008 6.88994C18.2708 7.62994 18.0508 8.42994 18.0508 9.28994C18.0508 10.1599 18.2708 10.9599 18.7008 11.7099C19.1308 12.4599 19.7408 13.0499 20.5108 13.4899C21.2808 13.9299 22.1008 14.1499 22.9708 14.1499C24.2808 14.1499 25.3708 13.7399 26.2308 12.9199C27.0808 12.1099 27.5108 11.0299 27.5108 9.68994C27.5108 9.36994 27.4908 9.09994 27.4408 8.85994H22.9708V8.85994Z" fill="#487CBF"/>
<path d="M31.1205 7.8999C30.2305 7.8999 29.4805 8.1999 28.8805 8.7999C28.2805 9.3899 27.9805 10.1299 27.9805 11.0299C27.9805 11.9099 28.2805 12.6499 28.8905 13.2599C29.4905 13.8599 30.2305 14.1599 31.1205 14.1599C32.0005 14.1599 32.7505 13.8599 33.3505 13.2599C33.9605 12.6499 34.2605 11.9099 34.2605 11.0299C34.2605 10.1399 33.9605 9.3999 33.3505 8.7999C32.7405 8.1999 32.0005 7.8999 31.1205 7.8999ZM32.3605 12.3699C32.0205 12.7299 31.6105 12.9099 31.1205 12.9099C30.6205 12.9099 30.2005 12.7299 29.8605 12.3699C29.5205 12.0099 29.3505 11.5599 29.3505 11.0199C29.3505 10.4699 29.5205 10.0199 29.8605 9.6699C30.2005 9.3099 30.6205 9.1299 31.1205 9.1299C31.6205 9.1299 32.0405 9.3099 32.3805 9.6699C32.7205 10.0199 32.8905 10.4699 32.8905 11.0199C32.8805 11.5499 32.7105 11.9999 32.3605 12.3699Z" fill="#EF372C"/>
<path d="M49.9804 4.7699H48.6104V13.9599H49.9804V4.7699Z" fill="#00AC4E"/>
<path d="M37.9603 7.8999C37.0703 7.8999 36.3203 8.1999 35.7203 8.7999C35.1203 9.3899 34.8203 10.1299 34.8203 11.0299C34.8203 11.9099 35.1203 12.6499 35.7303 13.2599C36.3303 13.8599 37.0703 14.1599 37.9603 14.1599C38.8403 14.1599 39.5903 13.8599 40.1903 13.2599C40.8003 12.6499 41.1003 11.9099 41.1003 11.0299C41.1003 10.1399 40.8003 9.3999 40.1903 8.7999C39.5903 8.1999 38.8503 7.8999 37.9603 7.8999ZM39.2103 12.3699C38.8703 12.7299 38.4603 12.9099 37.9703 12.9099C37.4703 12.9099 37.0503 12.7299 36.7103 12.3699C36.3703 12.0099 36.2003 11.5599 36.2003 11.0199C36.2003 10.4699 36.3703 10.0199 36.7103 9.6699C37.0503 9.3099 37.4703 9.1299 37.9703 9.1299C38.4703 9.1299 38.8903 9.3099 39.2303 9.6699C39.5703 10.0199 39.7403 10.4699 39.7403 11.0199C39.7303 11.5499 39.5503 11.9999 39.2103 12.3699Z" fill="#FDB614"/>
<path d="M53.7506 12.9199C53.0606 12.9199 52.5606 12.5999 52.2306 11.9699L56.4106 10.2399L56.2706 9.87989C56.1606 9.58989 56.0206 9.31989 55.8406 9.06989C55.6606 8.82989 55.4606 8.60989 55.2306 8.43989C55.0006 8.25989 54.7506 8.12989 54.4706 8.02989C54.1906 7.93989 53.9006 7.88989 53.5906 7.88989C52.7506 7.88989 52.0506 8.18989 51.4806 8.77989C50.9206 9.37989 50.6406 10.1299 50.6406 11.0199C50.6406 11.8999 50.9406 12.6499 51.5306 13.2499C52.1206 13.8499 52.8606 14.1499 53.7406 14.1499C54.8506 14.1499 55.7106 13.6899 56.3406 12.7599L55.2706 12.0499C54.9006 12.6299 54.3906 12.9199 53.7506 12.9199ZM52.4806 9.62989C52.8306 9.27989 53.2106 9.10989 53.6406 9.10989C53.9106 9.10989 54.1506 9.16989 54.3606 9.28989C54.5706 9.40989 54.7206 9.56989 54.8006 9.76989L52.0106 10.9299C51.9906 10.3999 52.1506 9.96989 52.4806 9.62989Z" fill="#EF372C"/>
<path d="M46.3602 8.5999H46.3102C45.9202 8.1299 45.3702 7.8999 44.6602 7.8999C43.8502 7.8999 43.1502 8.2099 42.5502 8.8199C41.9602 9.4399 41.6602 10.1699 41.6602 11.0299C41.6602 11.8799 41.9602 12.6199 42.5502 13.2299C43.1602 13.8399 43.8602 14.1399 44.6602 14.1399C45.3602 14.1399 45.9102 13.8999 46.3102 13.4299H46.3602V13.7499C46.3602 15.0599 45.8002 15.7199 44.6902 15.7199C44.3302 15.7199 44.0202 15.6199 43.7402 15.4099C43.4602 15.1999 43.2502 14.9399 43.1102 14.5999L41.9102 15.0999C42.0302 15.3799 42.1802 15.6299 42.3602 15.8499C42.5402 16.0799 42.7502 16.2699 42.9902 16.4299C43.2302 16.5899 43.4902 16.7199 43.7802 16.8099C44.0602 16.8999 44.3602 16.9499 44.6802 16.9499C45.6102 16.9499 46.3402 16.6699 46.8602 16.0999C47.3802 15.5399 47.6502 14.7299 47.6502 13.6899V8.0799H46.3502V8.5999H46.3602ZM45.9702 12.3899C45.6502 12.7499 45.2502 12.9199 44.7902 12.9199C44.3002 12.9199 43.8902 12.7399 43.5502 12.3799C43.2202 12.0199 43.0502 11.5699 43.0502 11.0399C43.0502 10.4999 43.2202 10.0499 43.5602 9.6899C43.9102 9.3199 44.3202 9.1299 44.7902 9.1299C45.2602 9.1299 45.6602 9.3099 45.9702 9.6699C46.2902 10.0399 46.4602 10.4999 46.4602 11.0299C46.4502 11.5699 46.2902 12.0199 45.9702 12.3899Z" fill="#487CBF"/>
<path d="M10.4405 0.0699463H0.480469V37.9299H10.4405V0.0699463Z" fill="#487CBF"/>
</svg>
