<svg width="1106" height="238" viewBox="0 0 1106 238" fill="none" xmlns="http://www.w3.org/2000/svg">
<path d="M363.73 70.3135H318.844V201.657H281.84V70.3135H236.954V40.7087H363.73V70.3135Z" fill="#0F77FF"/>
<path d="M390.028 104.779C393.531 98.5926 397.545 93.7321 402.07 90.1972C406.669 86.6623 411.924 84.8949 417.835 84.8949C422.944 84.8949 427.105 86.11 430.316 88.5403L428.126 113.726C427.762 115.347 427.141 116.451 426.265 117.04C425.462 117.629 424.331 117.924 422.871 117.924C422.288 117.924 421.521 117.887 420.572 117.814C419.624 117.74 418.638 117.666 417.616 117.593C416.595 117.445 415.536 117.335 414.442 117.261C413.42 117.114 412.471 117.04 411.595 117.04C406.632 117.04 402.654 118.366 399.662 121.017C396.742 123.668 394.261 127.35 392.217 132.064V201.657H358.279V87.1042H378.423C380.102 87.1042 381.488 87.2515 382.583 87.5461C383.751 87.8406 384.7 88.3193 385.43 88.9821C386.232 89.5713 386.816 90.3813 387.181 91.4124C387.619 92.4434 387.984 93.6953 388.276 95.1682L390.028 104.779Z" fill="#0F77FF"/>
<path d="M499.387 155.04C492.599 155.335 487.016 155.924 482.637 156.808C478.258 157.692 474.791 158.796 472.236 160.122C469.682 161.447 467.894 162.957 466.872 164.651C465.923 166.345 465.449 168.186 465.449 170.174C465.449 174.077 466.507 176.839 468.623 178.459C470.74 180.006 473.842 180.779 477.929 180.779C482.308 180.779 486.14 180.006 489.424 178.459C492.709 176.913 496.03 174.409 499.387 170.947V155.04ZM438.298 103.011C445.158 96.8988 452.749 92.3697 461.069 89.424C469.463 86.4046 478.44 84.8949 488.001 84.8949C494.862 84.8949 501.029 86.0364 506.503 88.3193C512.05 90.5286 516.721 93.6585 520.517 97.7089C524.385 101.686 527.341 106.436 529.384 111.959C531.428 117.482 532.45 123.521 532.45 130.075V201.657H516.904C513.692 201.657 511.247 201.215 509.569 200.331C507.963 199.447 506.613 197.606 505.518 194.808L503.109 188.511C500.263 190.942 497.526 193.077 494.898 194.918C492.271 196.76 489.534 198.343 486.688 199.668C483.914 200.92 480.922 201.841 477.71 202.43C474.572 203.093 471.069 203.424 467.2 203.424C462.018 203.424 457.311 202.761 453.077 201.436C448.844 200.037 445.231 198.011 442.239 195.36C439.32 192.709 437.057 189.432 435.451 185.529C433.846 181.552 433.043 176.986 433.043 171.831C433.043 167.707 434.065 163.546 436.108 159.349C438.152 155.077 441.692 151.211 446.728 147.75C451.764 144.215 458.551 141.269 467.091 138.912C475.63 136.556 486.396 135.23 499.387 134.936V130.075C499.387 123.374 498 118.55 495.227 115.604C492.526 112.585 488.658 111.075 483.622 111.075C479.608 111.075 476.324 111.517 473.769 112.401C471.214 113.285 468.915 114.279 466.872 115.383C464.901 116.488 462.967 117.482 461.069 118.366C459.172 119.25 456.909 119.691 454.282 119.691C451.946 119.691 449.976 119.102 448.37 117.924C446.764 116.746 445.45 115.347 444.429 113.726L438.298 103.011Z" fill="#0F77FF"/>
<path d="M658.111 87.1042L614.101 201.657H583.228L539.217 87.1042H567.463C569.871 87.1042 571.878 87.6934 573.484 88.8717C575.163 89.9763 576.294 91.3755 576.878 93.0693L592.643 144.436C594.03 148.633 595.234 152.721 596.256 156.697C597.35 160.674 598.299 164.651 599.102 168.628C600.708 160.674 602.934 152.61 605.78 144.436L622.202 93.0693C622.786 91.3755 623.881 89.9763 625.487 88.8717C627.092 87.6934 628.99 87.1042 631.18 87.1042H658.111Z" fill="#0F77FF"/>
<path d="M703.122 36.2903V201.657H669.184V36.2903H703.122Z" fill="#0F77FF"/>
<path d="M833.898 87.1044L773.247 231.372C772.225 233.655 770.984 235.312 769.525 236.343C768.065 237.448 765.729 238 762.518 238H737.119L759.015 191.605L713.69 87.1044H743.688C746.315 87.1044 748.322 87.6935 749.709 88.8718C751.169 90.0501 752.227 91.4494 752.884 93.0695L771.495 142.448C773.247 146.94 774.67 151.543 775.765 156.256C776.568 153.899 777.371 151.543 778.173 149.186C778.976 146.829 779.816 144.51 780.692 142.227L797.551 93.0695C798.208 91.3757 799.376 89.9765 801.055 88.8718C802.733 87.6935 804.558 87.1044 806.529 87.1044H833.898Z" fill="#0F77FF"/>
<path d="M973.01 201.657H939.072V110.744H891.558V167.634C891.558 170.285 892.178 172.494 893.419 174.262C894.732 175.955 896.594 176.802 899.002 176.802C900.243 176.802 901.265 176.692 902.068 176.471C902.943 176.176 903.673 175.882 904.257 175.587C904.914 175.219 905.498 174.924 906.009 174.703C906.593 174.409 907.25 174.262 907.979 174.262C909.001 174.262 909.804 174.519 910.388 175.035C911.045 175.477 911.702 176.213 912.359 177.244L922.65 193.483C918.271 196.797 913.344 199.3 907.87 200.994C902.396 202.614 896.74 203.424 890.901 203.424C885.5 203.424 880.719 202.651 876.559 201.105C872.472 199.485 869.005 197.238 866.158 194.366C863.385 191.421 861.268 187.886 859.809 183.762C858.349 179.638 857.619 175.035 857.619 169.953V110.744H847.985C846.233 110.744 844.737 110.192 843.496 109.087C842.256 107.909 841.635 106.215 841.635 104.006V90.6393L859.699 86.9939L866.377 59.1566C867.253 55.6217 869.735 53.8543 873.822 53.8543H891.558V87.3253H973.01V201.657Z" fill="#0F77FF"/>
<path d="M1105.36 201.657H1072.73C1070.33 201.657 1068.35 201.068 1066.82 199.89C1065.36 198.711 1064.19 197.312 1063.32 195.692L1043.06 160.564C1042.7 161.816 1042.26 162.994 1041.75 164.099C1041.24 165.203 1040.69 166.234 1040.11 167.192L1023.47 195.692C1022.45 197.165 1021.24 198.527 1019.86 199.779C1018.47 201.031 1016.68 201.657 1014.49 201.657H984.274L1022.37 142.448L985.807 87.1044H1018.43C1020.84 87.1044 1022.59 87.4358 1023.69 88.0986C1024.85 88.6877 1025.88 89.7187 1026.75 91.1916L1047.01 125.104C1047.44 123.779 1047.99 122.49 1048.65 121.238C1049.31 119.913 1050.03 118.587 1050.84 117.261L1065.29 91.7439C1066.31 90.1238 1067.37 88.9455 1068.46 88.209C1069.63 87.4726 1071.05 87.1044 1072.73 87.1044H1103.83L1067.26 140.901L1105.36 201.657Z" fill="#0F77FF"/>
<path d="M944.681 65.4557L926.935 43.6036C925.57 39.5478 927.504 36.2613 928.642 35.125C932.259 31.7685 936.747 33.4351 938.539 34.6879L951.166 49.7222L989.473 2.0846C996.231 -3.15991 996.811 2.69646 995.019 6.45502L956.455 67.4661C951.473 71.8015 946.53 67.9323 944.681 65.4557Z" fill="#0F77FF"/>
<path fill-rule="evenodd" clip-rule="evenodd" d="M0 126.036C0 163.549 19.8831 196.419 49.6855 214.681C49.5309 214.546 49.377 214.41 49.2238 214.274C59.0337 220.721 91.1206 194.098 91.522 139.769V117.584H29.4468C28.8945 117.584 28.4468 117.136 28.4468 116.584V103.787C28.4468 103.343 28.7395 102.952 29.1655 102.827L91.522 84.5498V83.6968L93.9607 69.4792C95.2872 64.8872 99.3263 61.7396 103.913 61.7237H105.103C109.69 61.7396 113.729 64.8872 115.055 69.4792L117.494 83.6968V84.5493L179.851 102.824C180.277 102.949 180.57 103.339 180.57 103.783V116.584C180.57 117.136 180.122 117.584 179.57 117.584H117.494V140.553H117.499C117.499 188.481 141.505 215.148 154.22 216.94C186.159 199.218 207.776 165.151 207.776 126.036C207.776 68.6601 161.264 22.1477 103.888 22.1477C46.5124 22.1477 0 68.6601 0 126.036ZM48.613 88.795C48.9994 87.5291 50.1676 86.6643 51.4911 86.6643H54.6834C55.7272 86.6643 56.6667 87.2974 57.0585 88.2649C57.6304 89.6769 56.8515 91.2731 55.3866 91.6911L52.3169 92.5671C50.0237 93.2216 47.9168 91.0758 48.613 88.795ZM154.33 86.6643C153.286 86.6643 152.347 87.2976 151.955 88.2653C151.384 89.677 152.162 91.2726 153.627 91.6906L156.701 92.5679C158.993 93.2222 161.1 91.0778 160.406 88.7971C160.02 87.5301 158.851 86.6643 157.527 86.6643H154.33Z" fill="#0F77FF"/>
</svg>
