<svg width="102" height="104" viewBox="0 0 102 104" fill="none" xmlns="http://www.w3.org/2000/svg">
<path d="M25.7432 89.6229H29.0874V92.9672H25.7432V89.6229Z" fill="#78B9EB"/>
<path d="M31.6361 49.4144L31.6358 49.4146C30.9507 49.7271 30.5106 50.4111 30.5106 51.1639C30.5106 51.9167 30.9507 52.6008 31.6358 52.9133L31.6361 52.9134L48.9032 60.7625V82.6844H40.7926C35.1131 82.6844 30.5098 87.2886 30.5098 92.9672C30.5098 98.6458 35.1131 103.25 40.7926 103.25H60.8581C66.5368 103.25 71.1409 98.6459 71.1409 92.9672C71.1409 87.2886 66.5368 82.6844 60.8581 82.6844H52.7475V60.7625L70.0146 52.9134L70.0149 52.9133C70.7001 52.6007 71.1393 51.9165 71.1393 51.1639C71.1393 50.4113 70.7001 49.7272 70.0149 49.4146L70.0146 49.4144L52.7475 41.5654V21.3156H60.8581C66.5368 21.3156 71.1409 16.7114 71.1409 11.0328C71.1409 5.35415 66.5368 0.75 60.8581 0.75H40.7926C35.1131 0.75 30.5098 5.35416 30.5098 11.0328C30.5098 16.7114 35.1131 21.3156 40.7926 21.3156H48.9032V41.5654L31.6361 49.4144ZM67.2966 92.9672C67.2966 96.5229 64.4138 99.4057 60.8581 99.4057H40.7926C37.2361 99.4057 34.354 96.5229 34.354 92.9672C34.354 89.4116 37.2361 86.5287 40.7926 86.5287H60.8581C64.4138 86.5287 67.2966 89.4116 67.2966 92.9672ZM50.8253 57.4105L37.0778 51.1639L50.8253 44.9174L64.5729 51.1639L50.8253 57.4105ZM34.354 11.0328C34.354 7.47713 37.2361 4.59426 40.7926 4.59426H60.8581C64.4138 4.59426 67.2966 7.47715 67.2966 11.0328C67.2966 14.5884 64.4138 17.4713 60.8581 17.4713H40.7926C37.2361 17.4713 34.354 14.5884 34.354 11.0328Z" fill="#00CA4C" stroke="#00CA4C" stroke-width="0.5"/>
<path d="M67.5793 9.11066H67.3293V9.36066V12.7049V12.9549H67.5793H79.2515C89.2719 12.9549 97.3949 21.0779 97.3949 31.0984C97.3949 41.1188 89.2719 49.2418 79.2515 49.2418H67.5793H67.3293V49.4918V52.8361V53.0861H67.5793H79.2515C91.3949 53.0861 101.239 43.2418 101.239 31.0984C101.239 18.9549 91.3949 9.11066 79.2515 9.11066H67.5793Z" fill="#00CA4C" stroke="#00CA4C" stroke-width="0.5"/>
<path d="M34.0712 93.2172H34.3212V92.9672V89.6229V89.3729H34.0712H22.9004C13.9446 89.3729 5.47246 82.1373 4.40396 73.6013L4.40372 73.5995C3.71674 68.417 5.30008 63.191 8.74786 59.2608L8.74788 59.2608C12.1948 55.3306 17.1712 53.0804 22.3988 53.0861H22.3991H34.0712H34.3212V52.8361V49.4918V49.2418H34.0712H22.3996C16.5622 49.2196 10.9586 51.5346 6.83825 55.6689C2.00558 60.4992 -0.306762 67.3015 0.579994 74.0758C1.89176 84.4647 12.1063 93.2172 22.9004 93.2172H34.0712Z" fill="#00CA4C" stroke="#00CA4C" stroke-width="0.5"/>
<path d="M73.7484 11.5C73.7484 13.9853 71.7337 16 69.2484 16C66.7632 16 68.2484 13.9853 68.2484 11.5C68.2484 9.01472 66.7632 7 69.2484 7C71.7337 7 73.7484 9.01472 73.7484 11.5Z" fill="#00CA4C"/>
<path d="M27.8082 91.5C27.8082 93.9853 29.8229 96 32.3082 96C34.7935 96 33.3082 93.9853 33.3082 91.5C33.3082 89.0147 34.7935 87 32.3082 87C29.8229 87 27.8082 89.0147 27.8082 91.5Z" fill="#00CA4C"/>
</svg>
