<svg width="399" height="729" viewBox="0 0 399 729" fill="none" xmlns="http://www.w3.org/2000/svg">
<path d="M24.2 221.2H11V128.6H24.2V221.2V221.2Z" fill="white"/>
<path d="M389.5 196.5H376.3V128.6H389.5V196.5V196.5Z" fill="white"/>
<path d="M24.2 328.4H11V235.8H24.2V328.4Z" fill="white"/>
<path d="M389.5 128.6H375.1V196.5H389.5V128.6Z" fill="white"/>
<g filter="url(#filter0_d)">
<path d="M383.9 642.5C383.9 676.4 356.4 703.9 322.5 703.9H76.6998C42.7998 703.9 15.2998 676.4 15.2998 642.5V66.4C15.2998 32.5 42.7998 5 76.6998 5H322.5C356.4 5 383.9 32.5 383.9 66.4V642.5Z" fill="white"/>
</g>
<path d="M250.1 28.4C250.1 30.8 248.2 32.7 245.8 32.7H153.5C151.1 32.7 149.1 30.8 149.1 28.4C149.1 26 151.1 24 153.5 24H245.8C248.2 24 250.1 26 250.1 28.4Z" fill="#E0E3E3"/>
<path d="M322.5 15.2998H296.9C296.9 16.0998 297 16.8998 297 17.5998C297 31.5998 285.7 42.7998 271.8 42.7998H127.5C113.5 42.7998 102.3 31.5998 102.3 17.5998C102.3 16.8998 102.3 16.0998 102.4 15.2998H76.7002C48.6002 15.2998 25.7002 38.1998 25.7002 66.3998V642.5C25.7002 670.6 48.6002 693.5 76.7002 693.5H322.5C350.7 693.5 373.6 670.6 373.6 642.5V66.3998C373.6 38.1998 350.7 15.2998 322.5 15.2998Z" fill="#5C9CFF"/>
<path d="M329.5 37.7999C328.9 37.7999 328.4 37.3999 328.4 36.8999V29.3999C328.4 28.8999 328.9 28.4999 329.4 28.4999L346.7 28.3999C347.3 28.3999 347.7 28.8999 347.8 29.3999V30.8999H349.1V35.2999H347.8V36.8999C347.8 37.3999 347.3 37.7999 346.7 37.7999H329.5ZM347 29.0999H329.1V37.1999L347 37.0999V29.0999ZM329.8 29.8999H342.9V36.3999H329.8V29.8999Z" fill="white"/>
<path d="M313.5 34.4C314.5 34.4 315.4 34.8 316.1 35.4L317.3 34C316.3 33.1 315 32.5 313.5 32.5C312.1 32.5 310.7 33.1 309.7 34L310.9 35.4C311.6 34.8 312.5 34.4 313.5 34.4V34.4Z" fill="white"/>
<path d="M313.5 29.5C311.3 29.5 309.3 30.3 307.8 31.7L309 33.1C310.2 32.1 311.8 31.4 313.5 31.4C315.2 31.4 316.8 32.1 318 33.1L319.2 31.7C317.7 30.3 315.7 29.5 313.5 29.5V29.5Z" fill="white"/>
<path d="M313.5 26.5996C310.6 26.5996 308 27.6996 305.9 29.3996L307.2 30.8996C308.9 29.3996 311.1 28.4996 313.5 28.4996C316 28.4996 318.2 29.3996 319.9 30.8996L321.1 29.3996C319.1 27.6996 316.4 26.5996 313.5 26.5996Z" fill="white"/>
<path d="M314.7 37.2002C314.4 36.9002 314 36.7002 313.5 36.7002C313.1 36.7002 312.7 36.9002 312.4 37.2002L313.5 38.5002L314.7 37.2002Z" fill="white"/>
<defs>
<filter id="filter0_d" x="0.299805" y="0" width="398.6" height="728.9" filterUnits="userSpaceOnUse" color-interpolation-filters="sRGB">
<feFlood flood-opacity="0" result="BackgroundImageFix"/>
<feColorMatrix in="SourceAlpha" type="matrix" values="0 0 0 0 0 0 0 0 0 0 0 0 0 0 0 0 0 0 127 0"/>
<feOffset dy="10"/>
<feGaussianBlur stdDeviation="7.5"/>
<feColorMatrix type="matrix" values="0 0 0 0 0 0 0 0 0 0 0 0 0 0 0 0 0 0 0.2 0"/>
<feBlend mode="normal" in2="BackgroundImageFix" result="effect1_dropShadow"/>
<feBlend mode="normal" in="SourceGraphic" in2="effect1_dropShadow" result="shape"/>
</filter>
</defs>
</svg>
